<svg width="390" height="216" viewBox="0 0 390 216" fill="none" xmlns="http://www.w3.org/2000/svg">
<rect y="10" width="390" height="206" rx="103" fill="white"/>
<path d="M171.191 0.431999C175.33 0.431999 178.893 1.28533 181.879 2.992C184.866 4.69866 187.17 7.19467 188.791 10.48C190.413 13.7227 191.223 17.776 191.223 22.64C191.223 27.8027 190.242 32.176 188.279 35.76C186.359 39.344 183.693 42.0747 180.279 43.952C176.866 45.8293 172.898 46.768 168.375 46.768C166.029 46.768 163.767 46.512 161.591 46C159.415 45.488 157.538 44.72 155.959 43.696L159.799 36.08C161.037 36.9333 162.359 37.5307 163.767 37.872C165.175 38.1707 166.647 38.32 168.183 38.32C172.023 38.32 175.074 37.1467 177.335 34.8C179.639 32.4533 180.791 28.976 180.791 24.368C180.791 23.6 180.77 22.7467 180.727 21.808C180.685 20.8693 180.578 19.9307 180.407 18.992L183.223 21.68C182.498 23.344 181.474 24.752 180.151 25.904C178.829 27.0133 177.293 27.8667 175.543 28.464C173.794 29.0187 171.831 29.296 169.655 29.296C166.797 29.296 164.194 28.72 161.847 27.568C159.543 26.416 157.687 24.7947 156.279 22.704C154.914 20.6133 154.231 18.16 154.231 15.344C154.231 12.272 154.978 9.62667 156.471 7.408C158.007 5.18933 160.055 3.48266 162.615 2.288C165.218 1.05067 168.077 0.431999 171.191 0.431999ZM171.831 8.176C170.338 8.176 169.037 8.45333 167.927 9.008C166.818 9.52 165.943 10.288 165.303 11.312C164.663 12.2933 164.343 13.4667 164.343 14.832C164.343 16.88 165.026 18.5227 166.391 19.76C167.799 20.9547 169.655 21.552 171.959 21.552C173.453 21.552 174.775 21.2747 175.927 20.72C177.122 20.1227 178.039 19.312 178.679 18.288C179.319 17.264 179.639 16.112 179.639 14.832C179.639 13.552 179.319 12.4213 178.679 11.44C178.082 10.416 177.207 9.62667 176.055 9.072C174.903 8.47467 173.495 8.176 171.831 8.176ZM215.307 46.768C211.638 46.768 208.353 45.872 205.451 44.08C202.55 42.2453 200.267 39.6 198.603 36.144C196.939 32.688 196.107 28.5067 196.107 23.6C196.107 18.6933 196.939 14.512 198.603 11.056C200.267 7.6 202.55 4.976 205.451 3.184C208.353 1.34933 211.638 0.431999 215.307 0.431999C219.019 0.431999 222.305 1.34933 225.163 3.184C228.065 4.976 230.347 7.6 232.011 11.056C233.675 14.512 234.507 18.6933 234.507 23.6C234.507 28.5067 233.675 32.688 232.011 36.144C230.347 39.6 228.065 42.2453 225.163 44.08C222.305 45.872 219.019 46.768 215.307 46.768ZM215.307 38C217.057 38 218.571 37.5093 219.851 36.528C221.174 35.5467 222.198 33.9893 222.923 31.856C223.691 29.7227 224.075 26.9707 224.075 23.6C224.075 20.2293 223.691 17.4773 222.923 15.344C222.198 13.2107 221.174 11.6533 219.851 10.672C218.571 9.69066 217.057 9.2 215.307 9.2C213.601 9.2 212.086 9.69066 210.763 10.672C209.483 11.6533 208.459 13.2107 207.691 15.344C206.966 17.4773 206.603 20.2293 206.603 23.6C206.603 26.9707 206.966 29.7227 207.691 31.856C208.459 33.9893 209.483 35.5467 210.763 36.528C212.086 37.5093 213.601 38 215.307 38Z" fill="#418FDE"/>
<path d="M58.775 75V58.2H66.407C68.231 58.2 69.839 58.552 71.231 59.256C72.623 59.944 73.711 60.912 74.495 62.16C75.279 63.408 75.671 64.888 75.671 66.6C75.671 68.296 75.279 69.776 74.495 71.04C73.711 72.288 72.623 73.264 71.231 73.968C69.839 74.656 68.231 75 66.407 75H58.775ZM62.663 71.808H66.215C67.335 71.808 68.303 71.6 69.119 71.184C69.951 70.752 70.591 70.144 71.039 69.36C71.503 68.576 71.735 67.656 71.735 66.6C71.735 65.528 71.503 64.608 71.039 63.84C70.591 63.056 69.951 62.456 69.119 62.04C68.303 61.608 67.335 61.392 66.215 61.392H62.663V71.808ZM86.1691 75V72.48L85.9291 71.928V67.416C85.9291 66.616 85.6811 65.992 85.1851 65.544C84.7051 65.096 83.9611 64.872 82.9531 64.872C82.2651 64.872 81.5851 64.984 80.9131 65.208C80.2571 65.416 79.6971 65.704 79.2331 66.072L77.8891 63.456C78.5931 62.96 79.4411 62.576 80.4331 62.304C81.4251 62.032 82.4331 61.896 83.4571 61.896C85.4251 61.896 86.9531 62.36 88.0411 63.288C89.1291 64.216 89.6731 65.664 89.6731 67.632V75H86.1691ZM82.2331 75.192C81.2251 75.192 80.3611 75.024 79.6411 74.688C78.9211 74.336 78.3691 73.864 77.9851 73.272C77.6011 72.68 77.4091 72.016 77.4091 71.28C77.4091 70.512 77.5931 69.84 77.9611 69.264C78.3451 68.688 78.9451 68.24 79.7611 67.92C80.5771 67.584 81.6411 67.416 82.9531 67.416H86.3851V69.6H83.3611C82.4811 69.6 81.8731 69.744 81.5371 70.032C81.2171 70.32 81.0571 70.68 81.0571 71.112C81.0571 71.592 81.2411 71.976 81.6091 72.264C81.9931 72.536 82.5131 72.672 83.1691 72.672C83.7931 72.672 84.3531 72.528 84.8491 72.24C85.3451 71.936 85.7051 71.496 85.9291 70.92L86.5051 72.648C86.2331 73.48 85.7371 74.112 85.0171 74.544C84.2971 74.976 83.3691 75.192 82.2331 75.192ZM94.3692 79.848C93.6972 79.848 93.0332 79.744 92.3772 79.536C91.7212 79.328 91.1852 79.04 90.7692 78.672L92.1372 76.008C92.4252 76.264 92.7532 76.464 93.1212 76.608C93.5052 76.752 93.8812 76.824 94.2492 76.824C94.7772 76.824 95.1932 76.696 95.4972 76.44C95.8172 76.2 96.1052 75.792 96.3612 75.216L97.0332 73.632L97.3212 73.224L101.953 62.088H105.553L99.7212 75.792C99.3052 76.832 98.8252 77.648 98.2812 78.24C97.7532 78.832 97.1612 79.248 96.5052 79.488C95.8652 79.728 95.1532 79.848 94.3692 79.848ZM96.5772 75.504L90.8172 62.088H94.6812L99.1452 72.888L96.5772 75.504ZM111.147 75.192C110.043 75.192 108.979 75.064 107.955 74.808C106.947 74.536 106.147 74.2 105.555 73.8L106.803 71.112C107.395 71.48 108.091 71.784 108.891 72.024C109.707 72.248 110.507 72.36 111.291 72.36C112.155 72.36 112.763 72.256 113.115 72.048C113.483 71.84 113.667 71.552 113.667 71.184C113.667 70.88 113.523 70.656 113.235 70.512C112.963 70.352 112.595 70.232 112.131 70.152C111.667 70.072 111.155 69.992 110.595 69.912C110.051 69.832 109.499 69.728 108.939 69.6C108.379 69.456 107.867 69.248 107.403 68.976C106.939 68.704 106.563 68.336 106.275 67.872C106.003 67.408 105.867 66.808 105.867 66.072C105.867 65.256 106.099 64.536 106.563 63.912C107.043 63.288 107.731 62.8 108.627 62.448C109.523 62.08 110.595 61.896 111.843 61.896C112.723 61.896 113.619 61.992 114.531 62.184C115.443 62.376 116.203 62.656 116.811 63.024L115.563 65.688C114.939 65.32 114.307 65.072 113.667 64.944C113.043 64.8 112.435 64.728 111.843 64.728C111.011 64.728 110.403 64.84 110.019 65.064C109.635 65.288 109.443 65.576 109.443 65.928C109.443 66.248 109.579 66.488 109.851 66.648C110.139 66.808 110.515 66.936 110.979 67.032C111.443 67.128 111.947 67.216 112.491 67.296C113.051 67.36 113.611 67.464 114.171 67.608C114.731 67.752 115.235 67.96 115.683 68.232C116.147 68.488 116.523 68.848 116.811 69.312C117.099 69.76 117.243 70.352 117.243 71.088C117.243 71.888 117.003 72.6 116.523 73.224C116.043 73.832 115.347 74.312 114.435 74.664C113.539 75.016 112.443 75.192 111.147 75.192ZM132.89 75.288C131.354 75.288 130.018 74.968 128.882 74.328C127.762 73.688 126.898 72.752 126.29 71.52C125.682 70.288 125.378 68.768 125.378 66.96C125.378 65.024 125.738 63.384 126.458 62.04C127.194 60.696 128.202 59.672 129.482 58.968C130.778 58.264 132.266 57.912 133.946 57.912C134.842 57.912 135.698 58.008 136.514 58.2C137.33 58.392 138.034 58.68 138.626 59.064L137.186 61.92C136.722 61.6 136.226 61.384 135.698 61.272C135.17 61.144 134.618 61.08 134.042 61.08C132.586 61.08 131.434 61.52 130.586 62.4C129.738 63.28 129.314 64.584 129.314 66.312C129.314 66.6 129.314 66.92 129.314 67.272C129.33 67.624 129.378 67.976 129.458 68.328L128.378 67.32C128.682 66.696 129.074 66.176 129.554 65.76C130.034 65.328 130.602 65.008 131.258 64.8C131.93 64.576 132.666 64.464 133.466 64.464C134.554 64.464 135.53 64.68 136.394 65.112C137.258 65.544 137.946 66.152 138.458 66.936C138.986 67.72 139.25 68.64 139.25 69.696C139.25 70.832 138.962 71.824 138.386 72.672C137.826 73.504 137.066 74.152 136.106 74.616C135.162 75.064 134.09 75.288 132.89 75.288ZM132.674 72.384C133.218 72.384 133.698 72.288 134.114 72.096C134.546 71.888 134.882 71.592 135.122 71.208C135.362 70.824 135.482 70.384 135.482 69.888C135.482 69.12 135.218 68.512 134.69 68.064C134.178 67.6 133.49 67.368 132.626 67.368C132.05 67.368 131.546 67.48 131.114 67.704C130.682 67.912 130.338 68.208 130.082 68.592C129.842 68.96 129.722 69.392 129.722 69.888C129.722 70.368 129.842 70.8 130.082 71.184C130.322 71.552 130.658 71.848 131.09 72.072C131.522 72.28 132.05 72.384 132.674 72.384ZM143.162 75V59.64L144.842 61.32H139.802V58.2H147.05V75H143.162ZM148.942 69.408V67.08H160.942V69.408H148.942ZM167.692 57.912C169.244 57.912 170.58 58.232 171.7 58.872C172.82 59.512 173.684 60.448 174.292 61.68C174.9 62.896 175.204 64.416 175.204 66.24C175.204 68.176 174.836 69.816 174.1 71.16C173.38 72.504 172.38 73.528 171.1 74.232C169.82 74.936 168.332 75.288 166.636 75.288C165.756 75.288 164.908 75.192 164.092 75C163.276 74.808 162.572 74.52 161.98 74.136L163.42 71.28C163.884 71.6 164.38 71.824 164.908 71.952C165.436 72.064 165.988 72.12 166.564 72.12C168.004 72.12 169.148 71.68 169.996 70.8C170.86 69.92 171.292 68.616 171.292 66.888C171.292 66.6 171.284 66.28 171.268 65.928C171.252 65.576 171.212 65.224 171.148 64.872L172.204 65.88C171.932 66.504 171.548 67.032 171.052 67.464C170.556 67.88 169.98 68.2 169.324 68.424C168.668 68.632 167.932 68.736 167.116 68.736C166.044 68.736 165.068 68.52 164.188 68.088C163.324 67.656 162.628 67.048 162.1 66.264C161.588 65.48 161.332 64.56 161.332 63.504C161.332 62.352 161.612 61.36 162.172 60.528C162.748 59.696 163.516 59.056 164.476 58.608C165.452 58.144 166.524 57.912 167.692 57.912ZM167.932 60.816C167.372 60.816 166.884 60.92 166.468 61.128C166.052 61.32 165.724 61.608 165.484 61.992C165.244 62.36 165.124 62.8 165.124 63.312C165.124 64.08 165.38 64.696 165.892 65.16C166.42 65.608 167.116 65.832 167.98 65.832C168.54 65.832 169.036 65.728 169.468 65.52C169.916 65.296 170.26 64.992 170.5 64.608C170.74 64.224 170.86 63.792 170.86 63.312C170.86 62.832 170.74 62.408 170.5 62.04C170.276 61.656 169.948 61.36 169.516 61.152C169.084 60.928 168.556 60.816 167.932 60.816ZM184.179 75.288C182.803 75.288 181.571 74.952 180.483 74.28C179.395 73.592 178.539 72.6 177.915 71.304C177.291 70.008 176.979 68.44 176.979 66.6C176.979 64.76 177.291 63.192 177.915 61.896C178.539 60.6 179.395 59.616 180.483 58.944C181.571 58.256 182.803 57.912 184.179 57.912C185.571 57.912 186.803 58.256 187.875 58.944C188.963 59.616 189.819 60.6 190.443 61.896C191.067 63.192 191.379 64.76 191.379 66.6C191.379 68.44 191.067 70.008 190.443 71.304C189.819 72.6 188.963 73.592 187.875 74.28C186.803 74.952 185.571 75.288 184.179 75.288ZM184.179 72C184.835 72 185.403 71.816 185.883 71.448C186.379 71.08 186.763 70.496 187.035 69.696C187.323 68.896 187.467 67.864 187.467 66.6C187.467 65.336 187.323 64.304 187.035 63.504C186.763 62.704 186.379 62.12 185.883 61.752C185.403 61.384 184.835 61.2 184.179 61.2C183.539 61.2 182.971 61.384 182.475 61.752C181.995 62.12 181.611 62.704 181.323 63.504C181.051 64.304 180.915 65.336 180.915 66.6C180.915 67.864 181.051 68.896 181.323 69.696C181.611 70.496 181.995 71.08 182.475 71.448C182.971 71.816 183.539 72 184.179 72ZM195.386 66.576C194.746 66.576 194.194 66.36 193.73 65.928C193.282 65.48 193.058 64.912 193.058 64.224C193.058 63.536 193.282 62.984 193.73 62.568C194.194 62.136 194.746 61.92 195.386 61.92C196.042 61.92 196.594 62.136 197.042 62.568C197.49 62.984 197.714 63.536 197.714 64.224C197.714 64.912 197.49 65.48 197.042 65.928C196.594 66.36 196.042 66.576 195.386 66.576ZM195.386 75.192C194.746 75.192 194.194 74.976 193.73 74.544C193.282 74.096 193.058 73.528 193.058 72.84C193.058 72.152 193.282 71.6 193.73 71.184C194.194 70.752 194.746 70.536 195.386 70.536C196.042 70.536 196.594 70.752 197.042 71.184C197.49 71.6 197.714 72.152 197.714 72.84C197.714 73.528 197.49 74.096 197.042 74.544C196.594 74.976 196.042 75.192 195.386 75.192ZM204.924 75L212.412 58.2H216.252L223.764 75H219.684L213.54 60.168H215.076L208.908 75H204.924ZM208.668 71.4L209.7 68.448H218.34L219.396 71.4H208.668ZM231.276 75.192C229.884 75.192 228.644 74.912 227.556 74.352C226.468 73.776 225.612 72.984 224.988 71.976C224.38 70.968 224.076 69.824 224.076 68.544C224.076 67.248 224.38 66.104 224.988 65.112C225.612 64.104 226.468 63.32 227.556 62.76C228.644 62.184 229.884 61.896 231.276 61.896C232.636 61.896 233.82 62.184 234.828 62.76C235.836 63.32 236.58 64.128 237.06 65.184L234.156 66.744C233.82 66.136 233.396 65.688 232.884 65.4C232.388 65.112 231.844 64.968 231.252 64.968C230.612 64.968 230.036 65.112 229.524 65.4C229.012 65.688 228.604 66.096 228.3 66.624C228.012 67.152 227.868 67.792 227.868 68.544C227.868 69.296 228.012 69.936 228.3 70.464C228.604 70.992 229.012 71.4 229.524 71.688C230.036 71.976 230.612 72.12 231.252 72.12C231.844 72.12 232.388 71.984 232.884 71.712C233.396 71.424 233.82 70.968 234.156 70.344L237.06 71.928C236.58 72.968 235.836 73.776 234.828 74.352C233.82 74.912 232.636 75.192 231.276 75.192ZM244.593 75.192C243.073 75.192 241.889 74.808 241.041 74.04C240.193 73.256 239.769 72.096 239.769 70.56V59.232H243.513V70.512C243.513 71.056 243.657 71.48 243.945 71.784C244.233 72.072 244.625 72.216 245.121 72.216C245.713 72.216 246.217 72.056 246.633 71.736L247.641 74.376C247.257 74.648 246.793 74.856 246.249 75C245.721 75.128 245.169 75.192 244.593 75.192ZM237.777 65.256V62.376H246.729V65.256H237.777ZM249.653 75V62.088H253.397V75H249.653ZM251.525 60.288C250.837 60.288 250.277 60.088 249.845 59.688C249.413 59.288 249.197 58.792 249.197 58.2C249.197 57.608 249.413 57.112 249.845 56.712C250.277 56.312 250.837 56.112 251.525 56.112C252.213 56.112 252.773 56.304 253.205 56.688C253.637 57.056 253.853 57.536 253.853 58.128C253.853 58.752 253.637 59.272 253.205 59.688C252.789 60.088 252.229 60.288 251.525 60.288ZM260.286 75L254.862 62.088H258.726L263.238 73.2H261.318L265.998 62.088H269.598L264.15 75H260.286ZM278.534 75V72.48L278.294 71.928V67.416C278.294 66.616 278.046 65.992 277.55 65.544C277.07 65.096 276.326 64.872 275.318 64.872C274.63 64.872 273.95 64.984 273.278 65.208C272.622 65.416 272.062 65.704 271.598 66.072L270.254 63.456C270.958 62.96 271.806 62.576 272.798 62.304C273.79 62.032 274.798 61.896 275.822 61.896C277.79 61.896 279.318 62.36 280.406 63.288C281.494 64.216 282.038 65.664 282.038 67.632V75H278.534ZM274.598 75.192C273.59 75.192 272.726 75.024 272.006 74.688C271.286 74.336 270.734 73.864 270.35 73.272C269.966 72.68 269.774 72.016 269.774 71.28C269.774 70.512 269.958 69.84 270.326 69.264C270.71 68.688 271.31 68.24 272.126 67.92C272.942 67.584 274.006 67.416 275.318 67.416H278.75V69.6H275.726C274.846 69.6 274.238 69.744 273.902 70.032C273.582 70.32 273.422 70.68 273.422 71.112C273.422 71.592 273.606 71.976 273.974 72.264C274.358 72.536 274.878 72.672 275.534 72.672C276.158 72.672 276.718 72.528 277.214 72.24C277.71 71.936 278.07 71.496 278.294 70.92L278.87 72.648C278.598 73.48 278.102 74.112 277.382 74.544C276.662 74.976 275.734 75.192 274.598 75.192ZM290.616 75.192C289.096 75.192 287.912 74.808 287.064 74.04C286.216 73.256 285.792 72.096 285.792 70.56V59.232H289.536V70.512C289.536 71.056 289.68 71.48 289.968 71.784C290.256 72.072 290.648 72.216 291.144 72.216C291.736 72.216 292.24 72.056 292.656 71.736L293.664 74.376C293.28 74.648 292.816 74.856 292.272 75C291.744 75.128 291.192 75.192 290.616 75.192ZM283.8 65.256V62.376H292.752V65.256H283.8ZM295.676 75V62.088H299.42V75H295.676ZM297.548 60.288C296.86 60.288 296.3 60.088 295.868 59.688C295.436 59.288 295.22 58.792 295.22 58.2C295.22 57.608 295.436 57.112 295.868 56.712C296.3 56.312 296.86 56.112 297.548 56.112C298.236 56.112 298.796 56.304 299.228 56.688C299.66 57.056 299.876 57.536 299.876 58.128C299.876 58.752 299.66 59.272 299.228 59.688C298.812 60.088 298.252 60.288 297.548 60.288ZM308.949 75.192C307.573 75.192 306.349 74.904 305.277 74.328C304.221 73.752 303.381 72.968 302.757 71.976C302.149 70.968 301.845 69.824 301.845 68.544C301.845 67.248 302.149 66.104 302.757 65.112C303.381 64.104 304.221 63.32 305.277 62.76C306.349 62.184 307.573 61.896 308.949 61.896C310.309 61.896 311.525 62.184 312.597 62.76C313.669 63.32 314.509 64.096 315.117 65.088C315.725 66.08 316.029 67.232 316.029 68.544C316.029 69.824 315.725 70.968 315.117 71.976C314.509 72.968 313.669 73.752 312.597 74.328C311.525 74.904 310.309 75.192 308.949 75.192ZM308.949 72.12C309.573 72.12 310.133 71.976 310.629 71.688C311.125 71.4 311.517 70.992 311.805 70.464C312.093 69.92 312.237 69.28 312.237 68.544C312.237 67.792 312.093 67.152 311.805 66.624C311.517 66.096 311.125 65.688 310.629 65.4C310.133 65.112 309.573 64.968 308.949 64.968C308.325 64.968 307.765 65.112 307.269 65.4C306.773 65.688 306.373 66.096 306.069 66.624C305.781 67.152 305.637 67.792 305.637 68.544C305.637 69.28 305.781 69.92 306.069 70.464C306.373 70.992 306.773 71.4 307.269 71.688C307.765 71.976 308.325 72.12 308.949 72.12ZM326.289 61.896C327.313 61.896 328.225 62.104 329.025 62.52C329.841 62.92 330.481 63.544 330.945 64.392C331.409 65.224 331.641 66.296 331.641 67.608V75H327.897V68.184C327.897 67.144 327.665 66.376 327.201 65.88C326.753 65.384 326.113 65.136 325.281 65.136C324.689 65.136 324.153 65.264 323.673 65.52C323.209 65.76 322.841 66.136 322.569 66.648C322.313 67.16 322.185 67.816 322.185 68.616V75H318.441V62.088H322.017V65.664L321.345 64.584C321.809 63.72 322.473 63.056 323.337 62.592C324.201 62.128 325.185 61.896 326.289 61.896Z" fill="black"/>
<path d="M108.808 114V102.8H109.992V112.976H116.264V114H108.808ZM123.164 114V112.144L123.116 111.84V108.736C123.116 108.021 122.913 107.472 122.508 107.088C122.113 106.704 121.521 106.512 120.732 106.512C120.188 106.512 119.671 106.603 119.18 106.784C118.689 106.965 118.273 107.205 117.932 107.504L117.42 106.656C117.847 106.293 118.359 106.016 118.956 105.824C119.553 105.621 120.183 105.52 120.844 105.52C121.932 105.52 122.769 105.792 123.356 106.336C123.953 106.869 124.252 107.685 124.252 108.784V114H123.164ZM120.268 114.08C119.639 114.08 119.089 113.979 118.62 113.776C118.161 113.563 117.809 113.275 117.564 112.912C117.319 112.539 117.196 112.112 117.196 111.632C117.196 111.195 117.297 110.8 117.5 110.448C117.713 110.085 118.055 109.797 118.524 109.584C119.004 109.36 119.644 109.248 120.444 109.248H123.34V110.096H120.476C119.665 110.096 119.1 110.24 118.78 110.528C118.471 110.816 118.316 111.173 118.316 111.6C118.316 112.08 118.503 112.464 118.876 112.752C119.249 113.04 119.772 113.184 120.444 113.184C121.084 113.184 121.633 113.04 122.092 112.752C122.561 112.453 122.903 112.027 123.116 111.472L123.372 112.256C123.159 112.811 122.785 113.253 122.252 113.584C121.729 113.915 121.068 114.08 120.268 114.08ZM130.719 114.08C130.005 114.08 129.381 113.947 128.847 113.68C128.314 113.413 127.898 113.013 127.599 112.48C127.311 111.947 127.167 111.28 127.167 110.48V105.6H128.303V110.352C128.303 111.248 128.522 111.925 128.959 112.384C129.407 112.832 130.031 113.056 130.831 113.056C131.418 113.056 131.925 112.939 132.351 112.704C132.789 112.459 133.119 112.107 133.343 111.648C133.578 111.189 133.695 110.64 133.695 110V105.6H134.831V114H133.743V111.696L133.919 112.112C133.653 112.731 133.237 113.216 132.671 113.568C132.117 113.909 131.466 114.08 130.719 114.08ZM142.195 105.52C142.878 105.52 143.475 105.653 143.987 105.92C144.51 106.176 144.915 106.571 145.203 107.104C145.502 107.637 145.651 108.309 145.651 109.12V114H144.515V109.232C144.515 108.347 144.291 107.68 143.843 107.232C143.406 106.773 142.787 106.544 141.987 106.544C141.39 106.544 140.867 106.667 140.419 106.912C139.982 107.147 139.641 107.493 139.395 107.952C139.161 108.4 139.043 108.944 139.043 109.584V114H137.907V105.6H138.995V107.904L138.819 107.472C139.086 106.864 139.513 106.389 140.099 106.048C140.686 105.696 141.385 105.52 142.195 105.52ZM152.118 114.08C151.286 114.08 150.539 113.899 149.878 113.536C149.227 113.163 148.715 112.656 148.342 112.016C147.969 111.365 147.782 110.624 147.782 109.792C147.782 108.949 147.969 108.208 148.342 107.568C148.715 106.928 149.227 106.427 149.878 106.064C150.539 105.701 151.286 105.52 152.118 105.52C152.833 105.52 153.478 105.659 154.054 105.936C154.63 106.213 155.083 106.629 155.414 107.184L154.566 107.76C154.278 107.333 153.921 107.019 153.494 106.816C153.067 106.613 152.603 106.512 152.102 106.512C151.505 106.512 150.966 106.651 150.486 106.928C150.006 107.195 149.627 107.573 149.35 108.064C149.073 108.555 148.934 109.131 148.934 109.792C148.934 110.453 149.073 111.029 149.35 111.52C149.627 112.011 150.006 112.395 150.486 112.672C150.966 112.939 151.505 113.072 152.102 113.072C152.603 113.072 153.067 112.971 153.494 112.768C153.921 112.565 154.278 112.256 154.566 111.84L155.414 112.416C155.083 112.96 154.63 113.376 154.054 113.664C153.478 113.941 152.833 114.08 152.118 114.08ZM161.719 105.52C162.401 105.52 162.999 105.653 163.511 105.92C164.033 106.176 164.439 106.571 164.727 107.104C165.025 107.637 165.175 108.309 165.175 109.12V114H164.039V109.232C164.039 108.347 163.815 107.68 163.367 107.232C162.929 106.773 162.311 106.544 161.511 106.544C160.913 106.544 160.391 106.667 159.943 106.912C159.505 107.147 159.164 107.493 158.919 107.952C158.684 108.4 158.567 108.944 158.567 109.584V114H157.431V102.128H158.567V107.904L158.343 107.472C158.609 106.864 159.036 106.389 159.623 106.048C160.209 105.696 160.908 105.52 161.719 105.52ZM172.251 114V105.6H173.387V114H172.251ZM172.827 103.744C172.592 103.744 172.395 103.664 172.235 103.504C172.075 103.344 171.995 103.152 171.995 102.928C171.995 102.704 172.075 102.517 172.235 102.368C172.395 102.208 172.592 102.128 172.827 102.128C173.061 102.128 173.259 102.203 173.419 102.352C173.579 102.501 173.659 102.688 173.659 102.912C173.659 103.147 173.579 103.344 173.419 103.504C173.269 103.664 173.072 103.744 172.827 103.744ZM180.745 105.52C181.428 105.52 182.025 105.653 182.537 105.92C183.06 106.176 183.465 106.571 183.753 107.104C184.052 107.637 184.201 108.309 184.201 109.12V114H183.065V109.232C183.065 108.347 182.841 107.68 182.393 107.232C181.956 106.773 181.337 106.544 180.537 106.544C179.94 106.544 179.417 106.667 178.969 106.912C178.532 107.147 178.191 107.493 177.945 107.952C177.711 108.4 177.593 108.944 177.593 109.584V114H176.457V105.6H177.545V107.904L177.369 107.472C177.636 106.864 178.063 106.389 178.649 106.048C179.236 105.696 179.935 105.52 180.745 105.52ZM189.836 114.08C189.047 114.08 188.439 113.867 188.012 113.44C187.585 113.013 187.372 112.411 187.372 111.632V103.744H188.508V111.568C188.508 112.059 188.631 112.437 188.876 112.704C189.132 112.971 189.495 113.104 189.964 113.104C190.465 113.104 190.881 112.96 191.212 112.672L191.612 113.488C191.388 113.691 191.116 113.84 190.796 113.936C190.487 114.032 190.167 114.08 189.836 114.08ZM185.868 106.544V105.6H191.068V106.544H185.868ZM196.861 114.08C195.986 114.08 195.218 113.899 194.557 113.536C193.896 113.163 193.378 112.656 193.005 112.016C192.632 111.365 192.445 110.624 192.445 109.792C192.445 108.96 192.621 108.224 192.973 107.584C193.336 106.944 193.826 106.443 194.445 106.08C195.074 105.707 195.778 105.52 196.557 105.52C197.346 105.52 198.045 105.701 198.653 106.064C199.272 106.416 199.757 106.917 200.109 107.568C200.461 108.208 200.637 108.949 200.637 109.792C200.637 109.845 200.632 109.904 200.621 109.968C200.621 110.021 200.621 110.08 200.621 110.144H193.309V109.296H200.013L199.565 109.632C199.565 109.024 199.432 108.485 199.165 108.016C198.909 107.536 198.557 107.163 198.109 106.896C197.661 106.629 197.144 106.496 196.557 106.496C195.981 106.496 195.464 106.629 195.005 106.896C194.546 107.163 194.189 107.536 193.933 108.016C193.677 108.496 193.549 109.045 193.549 109.664V109.84C193.549 110.48 193.688 111.045 193.965 111.536C194.253 112.016 194.648 112.395 195.149 112.672C195.661 112.939 196.242 113.072 196.893 113.072C197.405 113.072 197.88 112.981 198.317 112.8C198.765 112.619 199.149 112.341 199.469 111.968L200.109 112.704C199.736 113.152 199.266 113.493 198.701 113.728C198.146 113.963 197.533 114.08 196.861 114.08ZM202.859 114V105.6H203.947V107.888L203.835 107.488C204.07 106.848 204.465 106.363 205.019 106.032C205.574 105.691 206.262 105.52 207.083 105.52V106.624C207.041 106.624 206.998 106.624 206.955 106.624C206.913 106.613 206.87 106.608 206.827 106.608C205.942 106.608 205.249 106.88 204.747 107.424C204.246 107.957 203.995 108.72 203.995 109.712V114H202.859ZM213.354 105.52C214.037 105.52 214.634 105.653 215.146 105.92C215.669 106.176 216.074 106.571 216.362 107.104C216.661 107.637 216.81 108.309 216.81 109.12V114H215.674V109.232C215.674 108.347 215.45 107.68 215.002 107.232C214.565 106.773 213.946 106.544 213.146 106.544C212.549 106.544 212.026 106.667 211.578 106.912C211.141 107.147 210.8 107.493 210.554 107.952C210.32 108.4 210.202 108.944 210.202 109.584V114H209.066V105.6H210.154V107.904L209.978 107.472C210.245 106.864 210.672 106.389 211.258 106.048C211.845 105.696 212.544 105.52 213.354 105.52ZM225.053 114V112.144L225.005 111.84V108.736C225.005 108.021 224.802 107.472 224.397 107.088C224.002 106.704 223.41 106.512 222.621 106.512C222.077 106.512 221.559 106.603 221.069 106.784C220.578 106.965 220.162 107.205 219.821 107.504L219.309 106.656C219.735 106.293 220.247 106.016 220.845 105.824C221.442 105.621 222.071 105.52 222.733 105.52C223.821 105.52 224.658 105.792 225.245 106.336C225.842 106.869 226.141 107.685 226.141 108.784V114H225.053ZM222.157 114.08C221.527 114.08 220.978 113.979 220.509 113.776C220.05 113.563 219.698 113.275 219.453 112.912C219.207 112.539 219.085 112.112 219.085 111.632C219.085 111.195 219.186 110.8 219.389 110.448C219.602 110.085 219.943 109.797 220.413 109.584C220.893 109.36 221.533 109.248 222.333 109.248H225.229V110.096H222.365C221.554 110.096 220.989 110.24 220.669 110.528C220.359 110.816 220.205 111.173 220.205 111.6C220.205 112.08 220.391 112.464 220.765 112.752C221.138 113.04 221.661 113.184 222.333 113.184C222.973 113.184 223.522 113.04 223.981 112.752C224.45 112.453 224.791 112.027 225.005 111.472L225.261 112.256C225.047 112.811 224.674 113.253 224.141 113.584C223.618 113.915 222.957 114.08 222.157 114.08ZM229.136 114V102.128H230.272V114H229.136ZM241.777 114.08C241.041 114.08 240.379 113.915 239.793 113.584C239.206 113.243 238.742 112.752 238.401 112.112C238.059 111.472 237.889 110.699 237.889 109.792C237.889 108.875 238.059 108.101 238.401 107.472C238.753 106.832 239.222 106.347 239.809 106.016C240.395 105.685 241.051 105.52 241.777 105.52C242.577 105.52 243.291 105.701 243.921 106.064C244.561 106.416 245.062 106.912 245.425 107.552C245.787 108.192 245.969 108.939 245.969 109.792C245.969 110.635 245.787 111.381 245.425 112.032C245.062 112.672 244.561 113.173 243.921 113.536C243.291 113.899 242.577 114.08 241.777 114.08ZM237.441 114V102.128H238.577V108.08L238.417 109.776L238.529 111.472V114H237.441ZM241.697 113.072C242.294 113.072 242.827 112.939 243.297 112.672C243.766 112.395 244.139 112.011 244.417 111.52C244.694 111.019 244.833 110.443 244.833 109.792C244.833 109.131 244.694 108.555 244.417 108.064C244.139 107.573 243.766 107.195 243.297 106.928C242.827 106.651 242.294 106.512 241.697 106.512C241.099 106.512 240.561 106.651 240.081 106.928C239.611 107.195 239.238 107.573 238.961 108.064C238.694 108.555 238.561 109.131 238.561 109.792C238.561 110.443 238.694 111.019 238.961 111.52C239.238 112.011 239.611 112.395 240.081 112.672C240.561 112.939 241.099 113.072 241.697 113.072ZM248.194 114V105.6H249.282V107.888L249.17 107.488C249.405 106.848 249.8 106.363 250.354 106.032C250.909 105.691 251.597 105.52 252.418 105.52V106.624C252.376 106.624 252.333 106.624 252.29 106.624C252.248 106.613 252.205 106.608 252.162 106.608C251.277 106.608 250.584 106.88 250.082 107.424C249.581 107.957 249.33 108.72 249.33 109.712V114H248.194ZM259.04 114V112.144L258.992 111.84V108.736C258.992 108.021 258.79 107.472 258.384 107.088C257.99 106.704 257.398 106.512 256.608 106.512C256.064 106.512 255.547 106.603 255.056 106.784C254.566 106.965 254.15 107.205 253.808 107.504L253.296 106.656C253.723 106.293 254.235 106.016 254.832 105.824C255.43 105.621 256.059 105.52 256.72 105.52C257.808 105.52 258.646 105.792 259.232 106.336C259.83 106.869 260.128 107.685 260.128 108.784V114H259.04ZM256.144 114.08C255.515 114.08 254.966 113.979 254.496 113.776C254.038 113.563 253.686 113.275 253.44 112.912C253.195 112.539 253.072 112.112 253.072 111.632C253.072 111.195 253.174 110.8 253.376 110.448C253.59 110.085 253.931 109.797 254.4 109.584C254.88 109.36 255.52 109.248 256.32 109.248H259.216V110.096H256.352C255.542 110.096 254.976 110.24 254.656 110.528C254.347 110.816 254.192 111.173 254.192 111.6C254.192 112.08 254.379 112.464 254.752 112.752C255.126 113.04 255.648 113.184 256.32 113.184C256.96 113.184 257.51 113.04 257.968 112.752C258.438 112.453 258.779 112.027 258.992 111.472L259.248 112.256C259.035 112.811 258.662 113.253 258.128 113.584C257.606 113.915 256.944 114.08 256.144 114.08ZM267.412 105.52C268.094 105.52 268.692 105.653 269.204 105.92C269.726 106.176 270.132 106.571 270.42 107.104C270.718 107.637 270.868 108.309 270.868 109.12V114H269.732V109.232C269.732 108.347 269.508 107.68 269.06 107.232C268.622 106.773 268.004 106.544 267.204 106.544C266.606 106.544 266.084 106.667 265.636 106.912C265.198 107.147 264.857 107.493 264.612 107.952C264.377 108.4 264.26 108.944 264.26 109.584V114H263.124V105.6H264.212V107.904L264.036 107.472C264.302 106.864 264.729 106.389 265.316 106.048C265.902 105.696 266.601 105.52 267.412 105.52ZM277.19 114.08C276.39 114.08 275.67 113.899 275.03 113.536C274.401 113.173 273.905 112.672 273.542 112.032C273.18 111.381 272.998 110.635 272.998 109.792C272.998 108.939 273.18 108.192 273.542 107.552C273.905 106.912 274.401 106.416 275.03 106.064C275.67 105.701 276.39 105.52 277.19 105.52C277.926 105.52 278.582 105.685 279.158 106.016C279.745 106.347 280.209 106.832 280.55 107.472C280.902 108.101 281.078 108.875 281.078 109.792C281.078 110.699 280.908 111.472 280.566 112.112C280.225 112.752 279.761 113.243 279.174 113.584C278.598 113.915 277.937 114.08 277.19 114.08ZM277.27 113.072C277.868 113.072 278.401 112.939 278.87 112.672C279.35 112.395 279.724 112.011 279.99 111.52C280.268 111.019 280.406 110.443 280.406 109.792C280.406 109.131 280.268 108.555 279.99 108.064C279.724 107.573 279.35 107.195 278.87 106.928C278.401 106.651 277.868 106.512 277.27 106.512C276.684 106.512 276.156 106.651 275.686 106.928C275.217 107.195 274.844 107.573 274.566 108.064C274.289 108.555 274.15 109.131 274.15 109.792C274.15 110.443 274.289 111.019 274.566 111.52C274.844 112.011 275.217 112.395 275.686 112.672C276.156 112.939 276.684 113.072 277.27 113.072ZM280.438 114V111.472L280.55 109.776L280.39 108.08V102.128H281.526V114H280.438ZM65.1173 137.08C64.2427 137.08 63.4747 136.899 62.8133 136.536C62.152 136.163 61.6347 135.656 61.2613 135.016C60.888 134.365 60.7013 133.624 60.7013 132.792C60.7013 131.96 60.8773 131.224 61.2293 130.584C61.592 129.944 62.0827 129.443 62.7013 129.08C63.3307 128.707 64.0347 128.52 64.8133 128.52C65.6027 128.52 66.3013 128.701 66.9093 129.064C67.528 129.416 68.0133 129.917 68.3653 130.568C68.7173 131.208 68.8933 131.949 68.8933 132.792C68.8933 132.845 68.888 132.904 68.8773 132.968C68.8773 133.021 68.8773 133.08 68.8773 133.144H61.5653V132.296H68.2693L67.8213 132.632C67.8213 132.024 67.688 131.485 67.4213 131.016C67.1653 130.536 66.8133 130.163 66.3653 129.896C65.9173 129.629 65.4 129.496 64.8133 129.496C64.2373 129.496 63.72 129.629 63.2613 129.896C62.8027 130.163 62.4453 130.536 62.1893 131.016C61.9333 131.496 61.8053 132.045 61.8053 132.664V132.84C61.8053 133.48 61.944 134.045 62.2213 134.536C62.5093 135.016 62.904 135.395 63.4053 135.672C63.9173 135.939 64.4987 136.072 65.1493 136.072C65.6613 136.072 66.136 135.981 66.5733 135.8C67.0213 135.619 67.4053 135.341 67.7253 134.968L68.3653 135.704C67.992 136.152 67.5227 136.493 66.9573 136.728C66.4027 136.963 65.7893 137.08 65.1173 137.08ZM75.4036 128.52C76.0862 128.52 76.6836 128.653 77.1956 128.92C77.7182 129.176 78.1236 129.571 78.4116 130.104C78.7102 130.637 78.8596 131.309 78.8596 132.12V137H77.7236V132.232C77.7236 131.347 77.4996 130.68 77.0516 130.232C76.6142 129.773 75.9956 129.544 75.1956 129.544C74.5982 129.544 74.0756 129.667 73.6276 129.912C73.1902 130.147 72.8489 130.493 72.6036 130.952C72.3689 131.4 72.2516 131.944 72.2516 132.584V137H71.1156V128.6H72.2036V130.904L72.0276 130.472C72.2942 129.864 72.7209 129.389 73.3076 129.048C73.8942 128.696 74.5929 128.52 75.4036 128.52ZM85.4221 140.184C84.6541 140.184 83.9181 140.072 83.2141 139.848C82.5101 139.624 81.9394 139.304 81.5021 138.888L82.0781 138.024C82.4727 138.376 82.9581 138.653 83.5341 138.856C84.1207 139.069 84.7394 139.176 85.3901 139.176C86.4567 139.176 87.2407 138.925 87.7421 138.424C88.2434 137.933 88.4941 137.165 88.4941 136.12V134.024L88.6541 132.584L88.5421 131.144V128.6H89.6301V135.976C89.6301 137.427 89.2727 138.488 88.5581 139.16C87.8541 139.843 86.8087 140.184 85.4221 140.184ZM85.2141 136.68C84.4141 136.68 83.6941 136.509 83.0541 136.168C82.4141 135.816 81.9074 135.331 81.5341 134.712C81.1714 134.093 80.9901 133.384 80.9901 132.584C80.9901 131.784 81.1714 131.08 81.5341 130.472C81.9074 129.853 82.4141 129.373 83.0541 129.032C83.6941 128.691 84.4141 128.52 85.2141 128.52C85.9607 128.52 86.6327 128.675 87.2301 128.984C87.8274 129.293 88.3021 129.752 88.6541 130.36C89.0061 130.968 89.1821 131.709 89.1821 132.584C89.1821 133.459 89.0061 134.2 88.6541 134.808C88.3021 135.416 87.8274 135.88 87.2301 136.2C86.6327 136.52 85.9607 136.68 85.2141 136.68ZM85.3261 135.672C85.9447 135.672 86.4941 135.544 86.9741 135.288C87.4541 135.021 87.8327 134.659 88.1101 134.2C88.3874 133.731 88.5261 133.192 88.5261 132.584C88.5261 131.976 88.3874 131.443 88.1101 130.984C87.8327 130.525 87.4541 130.168 86.9741 129.912C86.4941 129.645 85.9447 129.512 85.3261 129.512C84.7181 129.512 84.1687 129.645 83.6781 129.912C83.1981 130.168 82.8194 130.525 82.5421 130.984C82.2754 131.443 82.1421 131.976 82.1421 132.584C82.1421 133.192 82.2754 133.731 82.5421 134.2C82.8194 134.659 83.1981 135.021 83.6781 135.288C84.1687 135.544 84.7181 135.672 85.3261 135.672ZM97.9652 137V135.144L97.9172 134.84V131.736C97.9172 131.021 97.7145 130.472 97.3092 130.088C96.9145 129.704 96.3225 129.512 95.5332 129.512C94.9892 129.512 94.4719 129.603 93.9812 129.784C93.4905 129.965 93.0745 130.205 92.7332 130.504L92.2212 129.656C92.6479 129.293 93.1599 129.016 93.7572 128.824C94.3545 128.621 94.9839 128.52 95.6452 128.52C96.7332 128.52 97.5705 128.792 98.1572 129.336C98.7545 129.869 99.0532 130.685 99.0532 131.784V137H97.9652ZM95.0692 137.08C94.4399 137.08 93.8905 136.979 93.4212 136.776C92.9625 136.563 92.6105 136.275 92.3652 135.912C92.1199 135.539 91.9972 135.112 91.9972 134.632C91.9972 134.195 92.0985 133.8 92.3012 133.448C92.5145 133.085 92.8559 132.797 93.3252 132.584C93.8052 132.36 94.4452 132.248 95.2452 132.248H98.1412V133.096H95.2772C94.4665 133.096 93.9012 133.24 93.5812 133.528C93.2719 133.816 93.1172 134.173 93.1172 134.6C93.1172 135.08 93.3039 135.464 93.6772 135.752C94.0505 136.04 94.5732 136.184 95.2452 136.184C95.8852 136.184 96.4345 136.04 96.8932 135.752C97.3625 135.453 97.7039 135.027 97.9172 134.472L98.1732 135.256C97.9599 135.811 97.5865 136.253 97.0532 136.584C96.5305 136.915 95.8692 137.08 95.0692 137.08ZM105.633 140.184C104.865 140.184 104.129 140.072 103.425 139.848C102.721 139.624 102.15 139.304 101.713 138.888L102.289 138.024C102.683 138.376 103.169 138.653 103.745 138.856C104.331 139.069 104.95 139.176 105.601 139.176C106.667 139.176 107.451 138.925 107.953 138.424C108.454 137.933 108.705 137.165 108.705 136.12V134.024L108.865 132.584L108.753 131.144V128.6H109.841V135.976C109.841 137.427 109.483 138.488 108.769 139.16C108.065 139.843 107.019 140.184 105.633 140.184ZM105.425 136.68C104.625 136.68 103.905 136.509 103.265 136.168C102.625 135.816 102.118 135.331 101.745 134.712C101.382 134.093 101.201 133.384 101.201 132.584C101.201 131.784 101.382 131.08 101.745 130.472C102.118 129.853 102.625 129.373 103.265 129.032C103.905 128.691 104.625 128.52 105.425 128.52C106.171 128.52 106.843 128.675 107.441 128.984C108.038 129.293 108.513 129.752 108.865 130.36C109.217 130.968 109.393 131.709 109.393 132.584C109.393 133.459 109.217 134.2 108.865 134.808C108.513 135.416 108.038 135.88 107.441 136.2C106.843 136.52 106.171 136.68 105.425 136.68ZM105.537 135.672C106.155 135.672 106.705 135.544 107.185 135.288C107.665 135.021 108.043 134.659 108.321 134.2C108.598 133.731 108.737 133.192 108.737 132.584C108.737 131.976 108.598 131.443 108.321 130.984C108.043 130.525 107.665 130.168 107.185 129.912C106.705 129.645 106.155 129.512 105.537 129.512C104.929 129.512 104.379 129.645 103.889 129.912C103.409 130.168 103.03 130.525 102.753 130.984C102.486 131.443 102.353 131.976 102.353 132.584C102.353 133.192 102.486 133.731 102.753 134.2C103.03 134.659 103.409 135.021 103.889 135.288C104.379 135.544 104.929 135.672 105.537 135.672ZM116.48 137.08C115.605 137.08 114.837 136.899 114.176 136.536C113.514 136.163 112.997 135.656 112.624 135.016C112.25 134.365 112.064 133.624 112.064 132.792C112.064 131.96 112.24 131.224 112.592 130.584C112.954 129.944 113.445 129.443 114.064 129.08C114.693 128.707 115.397 128.52 116.176 128.52C116.965 128.52 117.664 128.701 118.272 129.064C118.89 129.416 119.376 129.917 119.728 130.568C120.08 131.208 120.256 131.949 120.256 132.792C120.256 132.845 120.25 132.904 120.24 132.968C120.24 133.021 120.24 133.08 120.24 133.144H112.928V132.296H119.632L119.184 132.632C119.184 132.024 119.05 131.485 118.784 131.016C118.528 130.536 118.176 130.163 117.728 129.896C117.28 129.629 116.762 129.496 116.176 129.496C115.6 129.496 115.082 129.629 114.624 129.896C114.165 130.163 113.808 130.536 113.552 131.016C113.296 131.496 113.168 132.045 113.168 132.664V132.84C113.168 133.48 113.306 134.045 113.584 134.536C113.872 135.016 114.266 135.395 114.768 135.672C115.28 135.939 115.861 136.072 116.512 136.072C117.024 136.072 117.498 135.981 117.936 135.8C118.384 135.619 118.768 135.341 119.088 134.968L119.728 135.704C119.354 136.152 118.885 136.493 118.32 136.728C117.765 136.963 117.152 137.08 116.48 137.08ZM132.974 128.52C133.657 128.52 134.249 128.653 134.75 128.92C135.262 129.176 135.657 129.571 135.934 130.104C136.222 130.637 136.366 131.309 136.366 132.12V137H135.23V132.232C135.23 131.347 135.017 130.68 134.59 130.232C134.174 129.773 133.582 129.544 132.814 129.544C132.238 129.544 131.737 129.667 131.31 129.912C130.894 130.147 130.569 130.493 130.334 130.952C130.11 131.4 129.998 131.944 129.998 132.584V137H128.862V132.232C128.862 131.347 128.649 130.68 128.222 130.232C127.795 129.773 127.198 129.544 126.43 129.544C125.865 129.544 125.369 129.667 124.942 129.912C124.515 130.147 124.185 130.493 123.95 130.952C123.726 131.4 123.614 131.944 123.614 132.584V137H122.478V128.6H123.566V130.872L123.39 130.472C123.646 129.864 124.057 129.389 124.622 129.048C125.198 128.696 125.875 128.52 126.654 128.52C127.475 128.52 128.174 128.728 128.75 129.144C129.326 129.549 129.699 130.163 129.87 130.984L129.422 130.808C129.667 130.125 130.099 129.576 130.718 129.16C131.347 128.733 132.099 128.52 132.974 128.52ZM142.925 137.08C142.05 137.08 141.282 136.899 140.621 136.536C139.959 136.163 139.442 135.656 139.069 135.016C138.695 134.365 138.509 133.624 138.509 132.792C138.509 131.96 138.685 131.224 139.037 130.584C139.399 129.944 139.89 129.443 140.509 129.08C141.138 128.707 141.842 128.52 142.621 128.52C143.41 128.52 144.109 128.701 144.717 129.064C145.335 129.416 145.821 129.917 146.173 130.568C146.525 131.208 146.701 131.949 146.701 132.792C146.701 132.845 146.695 132.904 146.685 132.968C146.685 133.021 146.685 133.08 146.685 133.144H139.373V132.296H146.077L145.629 132.632C145.629 132.024 145.495 131.485 145.229 131.016C144.973 130.536 144.621 130.163 144.173 129.896C143.725 129.629 143.207 129.496 142.621 129.496C142.045 129.496 141.527 129.629 141.069 129.896C140.61 130.163 140.253 130.536 139.997 131.016C139.741 131.496 139.613 132.045 139.613 132.664V132.84C139.613 133.48 139.751 134.045 140.029 134.536C140.317 135.016 140.711 135.395 141.213 135.672C141.725 135.939 142.306 136.072 142.957 136.072C143.469 136.072 143.943 135.981 144.381 135.8C144.829 135.619 145.213 135.341 145.533 134.968L146.173 135.704C145.799 136.152 145.33 136.493 144.765 136.728C144.21 136.963 143.597 137.08 142.925 137.08ZM153.211 128.52C153.894 128.52 154.491 128.653 155.003 128.92C155.526 129.176 155.931 129.571 156.219 130.104C156.518 130.637 156.667 131.309 156.667 132.12V137H155.531V132.232C155.531 131.347 155.307 130.68 154.859 130.232C154.422 129.773 153.803 129.544 153.003 129.544C152.406 129.544 151.883 129.667 151.435 129.912C150.998 130.147 150.656 130.493 150.411 130.952C150.176 131.4 150.059 131.944 150.059 132.584V137H148.923V128.6H150.011V130.904L149.835 130.472C150.102 129.864 150.528 129.389 151.115 129.048C151.702 128.696 152.4 128.52 153.211 128.52ZM162.302 137.08C161.512 137.08 160.904 136.867 160.478 136.44C160.051 136.013 159.838 135.411 159.838 134.632V126.744H160.974V134.568C160.974 135.059 161.096 135.437 161.342 135.704C161.598 135.971 161.96 136.104 162.43 136.104C162.931 136.104 163.347 135.96 163.678 135.672L164.078 136.488C163.854 136.691 163.582 136.84 163.262 136.936C162.952 137.032 162.632 137.08 162.302 137.08ZM158.334 129.544V128.6H163.534V129.544H158.334ZM166.324 137.08C166.089 137.08 165.886 136.995 165.716 136.824C165.556 136.653 165.476 136.445 165.476 136.2C165.476 135.944 165.556 135.736 165.716 135.576C165.886 135.416 166.089 135.336 166.324 135.336C166.558 135.336 166.756 135.416 166.916 135.576C167.086 135.736 167.172 135.944 167.172 136.2C167.172 136.445 167.086 136.653 166.916 136.824C166.756 136.995 166.558 137.08 166.324 137.08ZM173.85 137V125.8H178.042C178.991 125.8 179.807 125.955 180.49 126.264C181.173 126.563 181.695 127 182.058 127.576C182.431 128.141 182.618 128.829 182.618 129.64C182.618 130.429 182.431 131.112 182.058 131.688C181.695 132.253 181.173 132.691 180.49 133C179.807 133.299 178.991 133.448 178.042 133.448H174.506L175.034 132.904V137H173.85ZM181.498 137L178.618 132.936H179.898L182.794 137H181.498ZM175.034 133L174.506 132.44H178.01C179.13 132.44 179.978 132.195 180.554 131.704C181.141 131.213 181.434 130.525 181.434 129.64C181.434 128.744 181.141 128.051 180.554 127.56C179.978 127.069 179.13 126.824 178.01 126.824H174.506L175.034 126.264V133ZM188.506 137.08C187.696 137.08 186.965 136.899 186.314 136.536C185.674 136.163 185.168 135.656 184.794 135.016C184.421 134.365 184.234 133.624 184.234 132.792C184.234 131.949 184.421 131.208 184.794 130.568C185.168 129.928 185.674 129.427 186.314 129.064C186.954 128.701 187.685 128.52 188.506 128.52C189.338 128.52 190.074 128.701 190.714 129.064C191.365 129.427 191.872 129.928 192.234 130.568C192.608 131.208 192.794 131.949 192.794 132.792C192.794 133.624 192.608 134.365 192.234 135.016C191.872 135.656 191.365 136.163 190.714 136.536C190.064 136.899 189.328 137.08 188.506 137.08ZM188.506 136.072C189.114 136.072 189.653 135.939 190.122 135.672C190.592 135.395 190.96 135.011 191.226 134.52C191.504 134.019 191.642 133.443 191.642 132.792C191.642 132.131 191.504 131.555 191.226 131.064C190.96 130.573 190.592 130.195 190.122 129.928C189.653 129.651 189.12 129.512 188.522 129.512C187.925 129.512 187.392 129.651 186.922 129.928C186.453 130.195 186.08 130.573 185.802 131.064C185.525 131.555 185.386 132.131 185.386 132.792C185.386 133.443 185.525 134.019 185.802 134.52C186.08 135.011 186.453 135.395 186.922 135.672C187.392 135.939 187.92 136.072 188.506 136.072ZM195.024 137V125.128H196.16V137H195.024ZM199.231 137V125.128H200.367V137H199.231ZM210.959 137.08C210.148 137.08 209.418 136.899 208.767 136.536C208.127 136.163 207.62 135.656 207.247 135.016C206.874 134.365 206.687 133.624 206.687 132.792C206.687 131.949 206.874 131.208 207.247 130.568C207.62 129.928 208.127 129.427 208.767 129.064C209.407 128.701 210.138 128.52 210.959 128.52C211.791 128.52 212.527 128.701 213.167 129.064C213.818 129.427 214.324 129.928 214.687 130.568C215.06 131.208 215.247 131.949 215.247 132.792C215.247 133.624 215.06 134.365 214.687 135.016C214.324 135.656 213.818 136.163 213.167 136.536C212.516 136.899 211.78 137.08 210.959 137.08ZM210.959 136.072C211.567 136.072 212.106 135.939 212.575 135.672C213.044 135.395 213.412 135.011 213.679 134.52C213.956 134.019 214.095 133.443 214.095 132.792C214.095 132.131 213.956 131.555 213.679 131.064C213.412 130.573 213.044 130.195 212.575 129.928C212.106 129.651 211.572 129.512 210.975 129.512C210.378 129.512 209.844 129.651 209.375 129.928C208.906 130.195 208.532 130.573 208.255 131.064C207.978 131.555 207.839 132.131 207.839 132.792C207.839 133.443 207.978 134.019 208.255 134.52C208.532 135.011 208.906 135.395 209.375 135.672C209.844 135.939 210.372 136.072 210.959 136.072ZM220.948 137.08C220.234 137.08 219.61 136.947 219.076 136.68C218.543 136.413 218.127 136.013 217.828 135.48C217.54 134.947 217.396 134.28 217.396 133.48V128.6H218.532V133.352C218.532 134.248 218.751 134.925 219.188 135.384C219.636 135.832 220.26 136.056 221.06 136.056C221.647 136.056 222.154 135.939 222.58 135.704C223.018 135.459 223.348 135.107 223.572 134.648C223.807 134.189 223.924 133.64 223.924 133V128.6H225.06V137H223.972V134.696L224.148 135.112C223.882 135.731 223.466 136.216 222.9 136.568C222.346 136.909 221.695 137.08 220.948 137.08ZM230.792 137.08C230.003 137.08 229.395 136.867 228.968 136.44C228.542 136.013 228.328 135.411 228.328 134.632V126.744H229.464V134.568C229.464 135.059 229.587 135.437 229.832 135.704C230.088 135.971 230.451 136.104 230.92 136.104C231.422 136.104 231.838 135.96 232.168 135.672L232.568 136.488C232.344 136.691 232.072 136.84 231.752 136.936C231.443 137.032 231.123 137.08 230.792 137.08ZM226.824 129.544V128.6H232.024V129.544H226.824ZM242.132 137.08C241.3 137.08 240.553 136.899 239.892 136.536C239.241 136.163 238.729 135.656 238.356 135.016C237.982 134.365 237.796 133.624 237.796 132.792C237.796 131.949 237.982 131.208 238.356 130.568C238.729 129.928 239.241 129.427 239.892 129.064C240.553 128.701 241.3 128.52 242.132 128.52C242.846 128.52 243.492 128.659 244.068 128.936C244.644 129.213 245.097 129.629 245.428 130.184L244.58 130.76C244.292 130.333 243.934 130.019 243.508 129.816C243.081 129.613 242.617 129.512 242.116 129.512C241.518 129.512 240.98 129.651 240.5 129.928C240.02 130.195 239.641 130.573 239.364 131.064C239.086 131.555 238.948 132.131 238.948 132.792C238.948 133.453 239.086 134.029 239.364 134.52C239.641 135.011 240.02 135.395 240.5 135.672C240.98 135.939 241.518 136.072 242.116 136.072C242.617 136.072 243.081 135.971 243.508 135.768C243.934 135.565 244.292 135.256 244.58 134.84L245.428 135.416C245.097 135.96 244.644 136.376 244.068 136.664C243.492 136.941 242.846 137.08 242.132 137.08ZM250.853 137.08C250.042 137.08 249.311 136.899 248.661 136.536C248.021 136.163 247.514 135.656 247.141 135.016C246.767 134.365 246.581 133.624 246.581 132.792C246.581 131.949 246.767 131.208 247.141 130.568C247.514 129.928 248.021 129.427 248.661 129.064C249.301 128.701 250.031 128.52 250.853 128.52C251.685 128.52 252.421 128.701 253.061 129.064C253.711 129.427 254.218 129.928 254.581 130.568C254.954 131.208 255.141 131.949 255.141 132.792C255.141 133.624 254.954 134.365 254.581 135.016C254.218 135.656 253.711 136.163 253.061 136.536C252.41 136.899 251.674 137.08 250.853 137.08ZM250.853 136.072C251.461 136.072 251.999 135.939 252.469 135.672C252.938 135.395 253.306 135.011 253.573 134.52C253.85 134.019 253.989 133.443 253.989 132.792C253.989 132.131 253.85 131.555 253.573 131.064C253.306 130.573 252.938 130.195 252.469 129.928C251.999 129.651 251.466 129.512 250.869 129.512C250.271 129.512 249.738 129.651 249.269 129.928C248.799 130.195 248.426 130.573 248.149 131.064C247.871 131.555 247.733 132.131 247.733 132.792C247.733 133.443 247.871 134.019 248.149 134.52C248.426 135.011 248.799 135.395 249.269 135.672C249.738 135.939 250.266 136.072 250.853 136.072ZM261.658 128.52C262.341 128.52 262.938 128.653 263.45 128.92C263.973 129.176 264.378 129.571 264.666 130.104C264.965 130.637 265.114 131.309 265.114 132.12V137H263.978V132.232C263.978 131.347 263.754 130.68 263.306 130.232C262.869 129.773 262.25 129.544 261.45 129.544C260.853 129.544 260.33 129.667 259.882 129.912C259.445 130.147 259.103 130.493 258.858 130.952C258.623 131.4 258.506 131.944 258.506 132.584V137H257.37V128.6H258.458V130.904L258.282 130.472C258.549 129.864 258.975 129.389 259.562 129.048C260.149 128.696 260.847 128.52 261.658 128.52ZM270.348 137.08C269.655 137.08 268.999 136.984 268.38 136.792C267.762 136.589 267.276 136.339 266.924 136.04L267.436 135.144C267.778 135.4 268.215 135.624 268.748 135.816C269.282 135.997 269.842 136.088 270.428 136.088C271.228 136.088 271.804 135.965 272.156 135.72C272.508 135.464 272.684 135.128 272.684 134.712C272.684 134.403 272.583 134.163 272.38 133.992C272.188 133.811 271.932 133.677 271.612 133.592C271.292 133.496 270.935 133.416 270.54 133.352C270.146 133.288 269.751 133.213 269.356 133.128C268.972 133.043 268.62 132.92 268.3 132.76C267.98 132.589 267.719 132.36 267.516 132.072C267.324 131.784 267.228 131.4 267.228 130.92C267.228 130.461 267.356 130.051 267.612 129.688C267.868 129.325 268.242 129.043 268.732 128.84C269.234 128.627 269.842 128.52 270.556 128.52C271.1 128.52 271.644 128.595 272.188 128.744C272.732 128.883 273.18 129.069 273.532 129.304L273.036 130.216C272.663 129.96 272.263 129.779 271.836 129.672C271.41 129.555 270.983 129.496 270.556 129.496C269.799 129.496 269.239 129.629 268.876 129.896C268.524 130.152 268.348 130.483 268.348 130.888C268.348 131.208 268.444 131.459 268.636 131.64C268.839 131.821 269.1 131.965 269.42 132.072C269.751 132.168 270.108 132.248 270.492 132.312C270.887 132.376 271.276 132.456 271.66 132.552C272.055 132.637 272.412 132.76 272.732 132.92C273.063 133.069 273.324 133.288 273.516 133.576C273.719 133.853 273.82 134.221 273.82 134.68C273.82 135.171 273.682 135.597 273.404 135.96C273.138 136.312 272.743 136.589 272.22 136.792C271.708 136.984 271.084 137.08 270.348 137.08ZM275.815 137V128.6H276.951V137H275.815ZM276.391 126.744C276.156 126.744 275.959 126.664 275.799 126.504C275.639 126.344 275.559 126.152 275.559 125.928C275.559 125.704 275.639 125.517 275.799 125.368C275.959 125.208 276.156 125.128 276.391 125.128C276.626 125.128 276.823 125.203 276.983 125.352C277.143 125.501 277.223 125.688 277.223 125.912C277.223 126.147 277.143 126.344 276.983 126.504C276.834 126.664 276.636 126.744 276.391 126.744ZM282.278 137.08C281.584 137.08 280.928 136.984 280.31 136.792C279.691 136.589 279.206 136.339 278.854 136.04L279.366 135.144C279.707 135.4 280.144 135.624 280.678 135.816C281.211 135.997 281.771 136.088 282.358 136.088C283.158 136.088 283.734 135.965 284.086 135.72C284.438 135.464 284.614 135.128 284.614 134.712C284.614 134.403 284.512 134.163 284.31 133.992C284.118 133.811 283.862 133.677 283.542 133.592C283.222 133.496 282.864 133.416 282.47 133.352C282.075 133.288 281.68 133.213 281.286 133.128C280.902 133.043 280.55 132.92 280.23 132.76C279.91 132.589 279.648 132.36 279.446 132.072C279.254 131.784 279.158 131.4 279.158 130.92C279.158 130.461 279.286 130.051 279.542 129.688C279.798 129.325 280.171 129.043 280.662 128.84C281.163 128.627 281.771 128.52 282.486 128.52C283.03 128.52 283.574 128.595 284.118 128.744C284.662 128.883 285.11 129.069 285.462 129.304L284.966 130.216C284.592 129.96 284.192 129.779 283.766 129.672C283.339 129.555 282.912 129.496 282.486 129.496C281.728 129.496 281.168 129.629 280.806 129.896C280.454 130.152 280.278 130.483 280.278 130.888C280.278 131.208 280.374 131.459 280.566 131.64C280.768 131.821 281.03 131.965 281.35 132.072C281.68 132.168 282.038 132.248 282.422 132.312C282.816 132.376 283.206 132.456 283.59 132.552C283.984 132.637 284.342 132.76 284.662 132.92C284.992 133.069 285.254 133.288 285.446 133.576C285.648 133.853 285.75 134.221 285.75 134.68C285.75 135.171 285.611 135.597 285.334 135.96C285.067 136.312 284.672 136.589 284.15 136.792C283.638 136.984 283.014 137.08 282.278 137.08ZM290.4 137.08C289.611 137.08 289.003 136.867 288.576 136.44C288.15 136.013 287.936 135.411 287.936 134.632V126.744H289.072V134.568C289.072 135.059 289.195 135.437 289.44 135.704C289.696 135.971 290.059 136.104 290.528 136.104C291.03 136.104 291.446 135.96 291.776 135.672L292.176 136.488C291.952 136.691 291.68 136.84 291.36 136.936C291.051 137.032 290.731 137.08 290.4 137.08ZM286.432 129.544V128.6H291.632V129.544H286.432ZM297.425 137.08C296.551 137.08 295.783 136.899 295.121 136.536C294.46 136.163 293.943 135.656 293.569 135.016C293.196 134.365 293.009 133.624 293.009 132.792C293.009 131.96 293.185 131.224 293.537 130.584C293.9 129.944 294.391 129.443 295.009 129.08C295.639 128.707 296.343 128.52 297.121 128.52C297.911 128.52 298.609 128.701 299.217 129.064C299.836 129.416 300.321 129.917 300.673 130.568C301.025 131.208 301.201 131.949 301.201 132.792C301.201 132.845 301.196 132.904 301.185 132.968C301.185 133.021 301.185 133.08 301.185 133.144H293.873V132.296H300.577L300.129 132.632C300.129 132.024 299.996 131.485 299.729 131.016C299.473 130.536 299.121 130.163 298.673 129.896C298.225 129.629 297.708 129.496 297.121 129.496C296.545 129.496 296.028 129.629 295.569 129.896C295.111 130.163 294.753 130.536 294.497 131.016C294.241 131.496 294.113 132.045 294.113 132.664V132.84C294.113 133.48 294.252 134.045 294.529 134.536C294.817 135.016 295.212 135.395 295.713 135.672C296.225 135.939 296.807 136.072 297.457 136.072C297.969 136.072 298.444 135.981 298.881 135.8C299.329 135.619 299.713 135.341 300.033 134.968L300.673 135.704C300.3 136.152 299.831 136.493 299.265 136.728C298.711 136.963 298.097 137.08 297.425 137.08ZM307.712 128.52C308.394 128.52 308.992 128.653 309.504 128.92C310.026 129.176 310.432 129.571 310.72 130.104C311.018 130.637 311.168 131.309 311.168 132.12V137H310.032V132.232C310.032 131.347 309.808 130.68 309.36 130.232C308.922 129.773 308.304 129.544 307.504 129.544C306.906 129.544 306.384 129.667 305.936 129.912C305.498 130.147 305.157 130.493 304.912 130.952C304.677 131.4 304.56 131.944 304.56 132.584V137H303.424V128.6H304.512V130.904L304.336 130.472C304.602 129.864 305.029 129.389 305.616 129.048C306.202 128.696 306.901 128.52 307.712 128.52ZM317.634 137.08C316.802 137.08 316.056 136.899 315.394 136.536C314.744 136.163 314.232 135.656 313.858 135.016C313.485 134.365 313.298 133.624 313.298 132.792C313.298 131.949 313.485 131.208 313.858 130.568C314.232 129.928 314.744 129.427 315.394 129.064C316.056 128.701 316.802 128.52 317.634 128.52C318.349 128.52 318.994 128.659 319.57 128.936C320.146 129.213 320.6 129.629 320.93 130.184L320.082 130.76C319.794 130.333 319.437 130.019 319.01 129.816C318.584 129.613 318.12 129.512 317.618 129.512C317.021 129.512 316.482 129.651 316.002 129.928C315.522 130.195 315.144 130.573 314.866 131.064C314.589 131.555 314.45 132.131 314.45 132.792C314.45 133.453 314.589 134.029 314.866 134.52C315.144 135.011 315.522 135.395 316.002 135.672C316.482 135.939 317.021 136.072 317.618 136.072C318.12 136.072 318.584 135.971 319.01 135.768C319.437 135.565 319.794 135.256 320.082 134.84L320.93 135.416C320.6 135.96 320.146 136.376 319.57 136.664C318.994 136.941 318.349 137.08 317.634 137.08ZM323.011 140.184C322.616 140.184 322.237 140.12 321.875 139.992C321.523 139.864 321.219 139.672 320.963 139.416L321.491 138.568C321.704 138.771 321.933 138.925 322.179 139.032C322.435 139.149 322.717 139.208 323.027 139.208C323.4 139.208 323.72 139.101 323.987 138.888C324.264 138.685 324.525 138.323 324.771 137.8L325.315 136.568L325.443 136.392L328.899 128.6H330.019L325.811 138.008C325.576 138.552 325.315 138.984 325.027 139.304C324.749 139.624 324.445 139.848 324.115 139.976C323.784 140.115 323.416 140.184 323.011 140.184ZM325.251 137.24L321.379 128.6H322.563L325.987 136.312L325.251 137.24ZM83.7853 161.08C82.996 161.08 82.388 160.867 81.9613 160.44C81.5346 160.013 81.3213 159.411 81.3213 158.632V150.744H82.4573V158.568C82.4573 159.059 82.58 159.437 82.8253 159.704C83.0813 159.971 83.444 160.104 83.9133 160.104C84.4146 160.104 84.8306 159.96 85.1613 159.672L85.5613 160.488C85.3373 160.691 85.0653 160.84 84.7453 160.936C84.436 161.032 84.116 161.08 83.7853 161.08ZM79.8173 153.544V152.6H85.0173V153.544H79.8173ZM90.6664 161.08C89.8558 161.08 89.1251 160.899 88.4744 160.536C87.8344 160.163 87.3278 159.656 86.9544 159.016C86.5811 158.365 86.3944 157.624 86.3944 156.792C86.3944 155.949 86.5811 155.208 86.9544 154.568C87.3278 153.928 87.8344 153.427 88.4744 153.064C89.1144 152.701 89.8451 152.52 90.6664 152.52C91.4984 152.52 92.2344 152.701 92.8744 153.064C93.5251 153.427 94.0318 153.928 94.3944 154.568C94.7678 155.208 94.9544 155.949 94.9544 156.792C94.9544 157.624 94.7678 158.365 94.3944 159.016C94.0318 159.656 93.5251 160.163 92.8744 160.536C92.2238 160.899 91.4878 161.08 90.6664 161.08ZM90.6664 160.072C91.2744 160.072 91.8131 159.939 92.2824 159.672C92.7518 159.395 93.1198 159.011 93.3864 158.52C93.6638 158.019 93.8024 157.443 93.8024 156.792C93.8024 156.131 93.6638 155.555 93.3864 155.064C93.1198 154.573 92.7518 154.195 92.2824 153.928C91.8131 153.651 91.2798 153.512 90.6824 153.512C90.0851 153.512 89.5518 153.651 89.0824 153.928C88.6131 154.195 88.2398 154.573 87.9624 155.064C87.6851 155.555 87.5464 156.131 87.5464 156.792C87.5464 157.443 87.6851 158.019 87.9624 158.52C88.2398 159.011 88.6131 159.395 89.0824 159.672C89.5518 159.939 90.0798 160.072 90.6664 160.072ZM100.608 161.08C99.797 161.08 99.0664 160.899 98.4157 160.536C97.7757 160.163 97.269 159.656 96.8957 159.016C96.5224 158.365 96.3357 157.624 96.3357 156.792C96.3357 155.949 96.5224 155.208 96.8957 154.568C97.269 153.928 97.7757 153.427 98.4157 153.064C99.0557 152.701 99.7864 152.52 100.608 152.52C101.44 152.52 102.176 152.701 102.816 153.064C103.466 153.427 103.973 153.928 104.336 154.568C104.709 155.208 104.896 155.949 104.896 156.792C104.896 157.624 104.709 158.365 104.336 159.016C103.973 159.656 103.466 160.163 102.816 160.536C102.165 160.899 101.429 161.08 100.608 161.08ZM100.608 160.072C101.216 160.072 101.754 159.939 102.224 159.672C102.693 159.395 103.061 159.011 103.328 158.52C103.605 158.019 103.744 157.443 103.744 156.792C103.744 156.131 103.605 155.555 103.328 155.064C103.061 154.573 102.693 154.195 102.224 153.928C101.754 153.651 101.221 153.512 100.624 153.512C100.026 153.512 99.493 153.651 99.0237 153.928C98.5544 154.195 98.181 154.573 97.9037 155.064C97.6264 155.555 97.4877 156.131 97.4877 156.792C97.4877 157.443 97.6264 158.019 97.9037 158.52C98.181 159.011 98.5544 159.395 99.0237 159.672C99.493 159.939 100.021 160.072 100.608 160.072ZM107.125 161V149.128H108.261V161H107.125ZM113.588 161.08C112.894 161.08 112.238 160.984 111.62 160.792C111.001 160.589 110.516 160.339 110.164 160.04L110.676 159.144C111.017 159.4 111.454 159.624 111.988 159.816C112.521 159.997 113.081 160.088 113.668 160.088C114.468 160.088 115.044 159.965 115.396 159.72C115.748 159.464 115.924 159.128 115.924 158.712C115.924 158.403 115.822 158.163 115.62 157.992C115.428 157.811 115.172 157.677 114.852 157.592C114.532 157.496 114.174 157.416 113.78 157.352C113.385 157.288 112.99 157.213 112.596 157.128C112.212 157.043 111.86 156.92 111.54 156.76C111.22 156.589 110.958 156.36 110.756 156.072C110.564 155.784 110.468 155.4 110.468 154.92C110.468 154.461 110.596 154.051 110.852 153.688C111.108 153.325 111.481 153.043 111.972 152.84C112.473 152.627 113.081 152.52 113.796 152.52C114.34 152.52 114.884 152.595 115.428 152.744C115.972 152.883 116.42 153.069 116.772 153.304L116.276 154.216C115.902 153.96 115.502 153.779 115.076 153.672C114.649 153.555 114.222 153.496 113.796 153.496C113.038 153.496 112.478 153.629 112.116 153.896C111.764 154.152 111.588 154.483 111.588 154.888C111.588 155.208 111.684 155.459 111.876 155.64C112.078 155.821 112.34 155.965 112.66 156.072C112.99 156.168 113.348 156.248 113.732 156.312C114.126 156.376 114.516 156.456 114.9 156.552C115.294 156.637 115.652 156.76 115.972 156.92C116.302 157.069 116.564 157.288 116.756 157.576C116.958 157.853 117.06 158.221 117.06 158.68C117.06 159.171 116.921 159.597 116.644 159.96C116.377 160.312 115.982 160.589 115.46 160.792C114.948 160.984 114.324 161.08 113.588 161.08ZM118.366 163.336L119.07 160.376L119.198 161.064C118.953 161.064 118.745 160.984 118.574 160.824C118.414 160.664 118.334 160.456 118.334 160.2C118.334 159.944 118.414 159.736 118.574 159.576C118.745 159.416 118.948 159.336 119.182 159.336C119.428 159.336 119.625 159.421 119.774 159.592C119.934 159.763 120.014 159.965 120.014 160.2C120.014 160.285 120.009 160.371 119.998 160.456C119.988 160.541 119.966 160.637 119.934 160.744C119.902 160.851 119.86 160.979 119.806 161.128L119.134 163.336H118.366ZM129.108 161.08C128.319 161.08 127.711 160.867 127.284 160.44C126.858 160.013 126.644 159.411 126.644 158.632V150.744H127.78V158.568C127.78 159.059 127.903 159.437 128.148 159.704C128.404 159.971 128.767 160.104 129.236 160.104C129.738 160.104 130.154 159.96 130.484 159.672L130.884 160.488C130.66 160.691 130.388 160.84 130.068 160.936C129.759 161.032 129.439 161.08 129.108 161.08ZM125.14 153.544V152.6H130.34V153.544H125.14ZM132.862 161V152.6H133.95V154.888L133.838 154.488C134.073 153.848 134.468 153.363 135.022 153.032C135.577 152.691 136.265 152.52 137.086 152.52V153.624C137.044 153.624 137.001 153.624 136.958 153.624C136.916 153.613 136.873 153.608 136.83 153.608C135.945 153.608 135.252 153.88 134.75 154.424C134.249 154.957 133.998 155.72 133.998 156.712V161H132.862ZM143.708 161V159.144L143.66 158.84V155.736C143.66 155.021 143.458 154.472 143.052 154.088C142.658 153.704 142.066 153.512 141.276 153.512C140.732 153.512 140.215 153.603 139.724 153.784C139.234 153.965 138.818 154.205 138.476 154.504L137.964 153.656C138.391 153.293 138.903 153.016 139.5 152.824C140.098 152.621 140.727 152.52 141.388 152.52C142.476 152.52 143.314 152.792 143.9 153.336C144.498 153.869 144.796 154.685 144.796 155.784V161H143.708ZM140.812 161.08C140.183 161.08 139.634 160.979 139.164 160.776C138.706 160.563 138.354 160.275 138.108 159.912C137.863 159.539 137.74 159.112 137.74 158.632C137.74 158.195 137.842 157.8 138.044 157.448C138.258 157.085 138.599 156.797 139.068 156.584C139.548 156.36 140.188 156.248 140.988 156.248H143.884V157.096H141.02C140.21 157.096 139.644 157.24 139.324 157.528C139.015 157.816 138.86 158.173 138.86 158.6C138.86 159.08 139.047 159.464 139.42 159.752C139.794 160.04 140.316 160.184 140.988 160.184C141.628 160.184 142.178 160.04 142.636 159.752C143.106 159.453 143.447 159.027 143.66 158.472L143.916 159.256C143.703 159.811 143.33 160.253 142.796 160.584C142.274 160.915 141.612 161.08 140.812 161.08ZM147.792 161V152.6H148.928V161H147.792ZM148.368 150.744C148.133 150.744 147.936 150.664 147.776 150.504C147.616 150.344 147.536 150.152 147.536 149.928C147.536 149.704 147.616 149.517 147.776 149.368C147.936 149.208 148.133 149.128 148.368 149.128C148.602 149.128 148.8 149.203 148.96 149.352C149.12 149.501 149.2 149.688 149.2 149.912C149.2 150.147 149.12 150.344 148.96 150.504C148.81 150.664 148.613 150.744 148.368 150.744ZM156.287 152.52C156.969 152.52 157.567 152.653 158.079 152.92C158.601 153.176 159.007 153.571 159.295 154.104C159.593 154.637 159.743 155.309 159.743 156.12V161H158.607V156.232C158.607 155.347 158.383 154.68 157.935 154.232C157.497 153.773 156.879 153.544 156.079 153.544C155.481 153.544 154.959 153.667 154.511 153.912C154.073 154.147 153.732 154.493 153.487 154.952C153.252 155.4 153.135 155.944 153.135 156.584V161H151.999V152.6H153.087V154.904L152.911 154.472C153.177 153.864 153.604 153.389 154.191 153.048C154.777 152.696 155.476 152.52 156.287 152.52ZM162.721 161V152.6H163.857V161H162.721ZM163.297 150.744C163.063 150.744 162.865 150.664 162.705 150.504C162.545 150.344 162.465 150.152 162.465 149.928C162.465 149.704 162.545 149.517 162.705 149.368C162.865 149.208 163.063 149.128 163.297 149.128C163.532 149.128 163.729 149.203 163.889 149.352C164.049 149.501 164.129 149.688 164.129 149.912C164.129 150.147 164.049 150.344 163.889 150.504C163.74 150.664 163.543 150.744 163.297 150.744ZM171.216 152.52C171.899 152.52 172.496 152.653 173.008 152.92C173.531 153.176 173.936 153.571 174.224 154.104C174.523 154.637 174.672 155.309 174.672 156.12V161H173.536V156.232C173.536 155.347 173.312 154.68 172.864 154.232C172.427 153.773 171.808 153.544 171.008 153.544C170.411 153.544 169.888 153.667 169.44 153.912C169.003 154.147 168.661 154.493 168.416 154.952C168.181 155.4 168.064 155.944 168.064 156.584V161H166.928V152.6H168.016V154.904L167.84 154.472C168.107 153.864 168.533 153.389 169.12 153.048C169.707 152.696 170.405 152.52 171.216 152.52ZM181.235 164.184C180.467 164.184 179.731 164.072 179.027 163.848C178.323 163.624 177.752 163.304 177.315 162.888L177.891 162.024C178.285 162.376 178.771 162.653 179.347 162.856C179.933 163.069 180.552 163.176 181.203 163.176C182.269 163.176 183.053 162.925 183.555 162.424C184.056 161.933 184.307 161.165 184.307 160.12V158.024L184.467 156.584L184.355 155.144V152.6H185.443V159.976C185.443 161.427 185.085 162.488 184.371 163.16C183.667 163.843 182.621 164.184 181.235 164.184ZM181.027 160.68C180.227 160.68 179.507 160.509 178.867 160.168C178.227 159.816 177.72 159.331 177.347 158.712C176.984 158.093 176.803 157.384 176.803 156.584C176.803 155.784 176.984 155.08 177.347 154.472C177.72 153.853 178.227 153.373 178.867 153.032C179.507 152.691 180.227 152.52 181.027 152.52C181.773 152.52 182.445 152.675 183.043 152.984C183.64 153.293 184.115 153.752 184.467 154.36C184.819 154.968 184.995 155.709 184.995 156.584C184.995 157.459 184.819 158.2 184.467 158.808C184.115 159.416 183.64 159.88 183.043 160.2C182.445 160.52 181.773 160.68 181.027 160.68ZM181.139 159.672C181.757 159.672 182.307 159.544 182.787 159.288C183.267 159.021 183.645 158.659 183.923 158.2C184.2 157.731 184.339 157.192 184.339 156.584C184.339 155.976 184.2 155.443 183.923 154.984C183.645 154.525 183.267 154.168 182.787 153.912C182.307 153.645 181.757 153.512 181.139 153.512C180.531 153.512 179.981 153.645 179.491 153.912C179.011 154.168 178.632 154.525 178.355 154.984C178.088 155.443 177.955 155.976 177.955 156.584C177.955 157.192 178.088 157.731 178.355 158.2C178.632 158.659 179.011 159.021 179.491 159.288C179.981 159.544 180.531 159.672 181.139 159.672ZM187.826 163.336L188.53 160.376L188.658 161.064C188.412 161.064 188.204 160.984 188.034 160.824C187.874 160.664 187.794 160.456 187.794 160.2C187.794 159.944 187.874 159.736 188.034 159.576C188.204 159.416 188.407 159.336 188.642 159.336C188.887 159.336 189.084 159.421 189.234 159.592C189.394 159.763 189.474 159.965 189.474 160.2C189.474 160.285 189.468 160.371 189.458 160.456C189.447 160.541 189.426 160.637 189.394 160.744C189.362 160.851 189.319 160.979 189.266 161.128L188.594 163.336H187.826ZM201.176 161V159.144L201.128 158.84V155.736C201.128 155.021 200.925 154.472 200.52 154.088C200.125 153.704 199.533 153.512 198.744 153.512C198.2 153.512 197.682 153.603 197.192 153.784C196.701 153.965 196.285 154.205 195.944 154.504L195.432 153.656C195.858 153.293 196.37 153.016 196.968 152.824C197.565 152.621 198.194 152.52 198.856 152.52C199.944 152.52 200.781 152.792 201.368 153.336C201.965 153.869 202.264 154.685 202.264 155.784V161H201.176ZM198.28 161.08C197.65 161.08 197.101 160.979 196.632 160.776C196.173 160.563 195.821 160.275 195.576 159.912C195.33 159.539 195.208 159.112 195.208 158.632C195.208 158.195 195.309 157.8 195.512 157.448C195.725 157.085 196.066 156.797 196.536 156.584C197.016 156.36 197.656 156.248 198.456 156.248H201.352V157.096H198.488C197.677 157.096 197.112 157.24 196.792 157.528C196.482 157.816 196.328 158.173 196.328 158.6C196.328 159.08 196.514 159.464 196.888 159.752C197.261 160.04 197.784 160.184 198.456 160.184C199.096 160.184 199.645 160.04 200.104 159.752C200.573 159.453 200.914 159.027 201.128 158.472L201.384 159.256C201.17 159.811 200.797 160.253 200.264 160.584C199.741 160.915 199.08 161.08 198.28 161.08ZM209.547 152.52C210.23 152.52 210.827 152.653 211.339 152.92C211.862 153.176 212.267 153.571 212.555 154.104C212.854 154.637 213.003 155.309 213.003 156.12V161H211.867V156.232C211.867 155.347 211.643 154.68 211.195 154.232C210.758 153.773 210.139 153.544 209.339 153.544C208.742 153.544 208.219 153.667 207.771 153.912C207.334 154.147 206.993 154.493 206.747 154.952C206.513 155.4 206.395 155.944 206.395 156.584V161H205.259V152.6H206.347V154.904L206.171 154.472C206.438 153.864 206.865 153.389 207.451 153.048C208.038 152.696 208.737 152.52 209.547 152.52ZM219.326 161.08C218.526 161.08 217.806 160.899 217.166 160.536C216.536 160.173 216.04 159.672 215.678 159.032C215.315 158.381 215.134 157.635 215.134 156.792C215.134 155.939 215.315 155.192 215.678 154.552C216.04 153.912 216.536 153.416 217.166 153.064C217.806 152.701 218.526 152.52 219.326 152.52C220.062 152.52 220.718 152.685 221.294 153.016C221.88 153.347 222.344 153.832 222.686 154.472C223.038 155.101 223.214 155.875 223.214 156.792C223.214 157.699 223.043 158.472 222.702 159.112C222.36 159.752 221.896 160.243 221.31 160.584C220.734 160.915 220.072 161.08 219.326 161.08ZM219.406 160.072C220.003 160.072 220.536 159.939 221.006 159.672C221.486 159.395 221.859 159.011 222.126 158.52C222.403 158.019 222.542 157.443 222.542 156.792C222.542 156.131 222.403 155.555 222.126 155.064C221.859 154.573 221.486 154.195 221.006 153.928C220.536 153.651 220.003 153.512 219.406 153.512C218.819 153.512 218.291 153.651 217.822 153.928C217.352 154.195 216.979 154.573 216.702 155.064C216.424 155.555 216.286 156.131 216.286 156.792C216.286 157.443 216.424 158.019 216.702 158.52C216.979 159.011 217.352 159.395 217.822 159.672C218.291 159.939 218.819 160.072 219.406 160.072ZM222.574 161V158.472L222.686 156.776L222.526 155.08V149.128H223.662V161H222.574ZM236.097 161V159.144L236.049 158.84V155.736C236.049 155.021 235.846 154.472 235.441 154.088C235.046 153.704 234.454 153.512 233.665 153.512C233.121 153.512 232.604 153.603 232.113 153.784C231.622 153.965 231.206 154.205 230.865 154.504L230.353 153.656C230.78 153.293 231.292 153.016 231.889 152.824C232.486 152.621 233.116 152.52 233.777 152.52C234.865 152.52 235.702 152.792 236.289 153.336C236.886 153.869 237.185 154.685 237.185 155.784V161H236.097ZM233.201 161.08C232.572 161.08 232.022 160.979 231.553 160.776C231.094 160.563 230.742 160.275 230.497 159.912C230.252 159.539 230.129 159.112 230.129 158.632C230.129 158.195 230.23 157.8 230.433 157.448C230.646 157.085 230.988 156.797 231.457 156.584C231.937 156.36 232.577 156.248 233.377 156.248H236.273V157.096H233.409C232.598 157.096 232.033 157.24 231.713 157.528C231.404 157.816 231.249 158.173 231.249 158.6C231.249 159.08 231.436 159.464 231.809 159.752C232.182 160.04 232.705 160.184 233.377 160.184C234.017 160.184 234.566 160.04 235.025 159.752C235.494 159.453 235.836 159.027 236.049 158.472L236.305 159.256C236.092 159.811 235.718 160.253 235.185 160.584C234.662 160.915 234.001 161.08 233.201 161.08ZM244.47 161V151.544C244.47 150.797 244.689 150.195 245.126 149.736C245.563 149.277 246.193 149.048 247.014 149.048C247.334 149.048 247.643 149.091 247.942 149.176C248.241 149.261 248.491 149.395 248.694 149.576L248.31 150.424C248.15 150.285 247.963 150.184 247.75 150.12C247.537 150.045 247.307 150.008 247.062 150.008C246.582 150.008 246.214 150.141 245.958 150.408C245.702 150.675 245.574 151.069 245.574 151.592V152.872L245.606 153.4V161H244.47ZM242.966 153.544V152.6H248.166V153.544H242.966ZM252.893 161.08C252.083 161.08 251.352 160.899 250.701 160.536C250.061 160.163 249.555 159.656 249.181 159.016C248.808 158.365 248.621 157.624 248.621 156.792C248.621 155.949 248.808 155.208 249.181 154.568C249.555 153.928 250.061 153.427 250.701 153.064C251.341 152.701 252.072 152.52 252.893 152.52C253.725 152.52 254.461 152.701 255.101 153.064C255.752 153.427 256.259 153.928 256.621 154.568C256.995 155.208 257.181 155.949 257.181 156.792C257.181 157.624 256.995 158.365 256.621 159.016C256.259 159.656 255.752 160.163 255.101 160.536C254.451 160.899 253.715 161.08 252.893 161.08ZM252.893 160.072C253.501 160.072 254.04 159.939 254.509 159.672C254.979 159.395 255.347 159.011 255.613 158.52C255.891 158.019 256.029 157.443 256.029 156.792C256.029 156.131 255.891 155.555 255.613 155.064C255.347 154.573 254.979 154.195 254.509 153.928C254.04 153.651 253.507 153.512 252.909 153.512C252.312 153.512 251.779 153.651 251.309 153.928C250.84 154.195 250.467 154.573 250.189 155.064C249.912 155.555 249.773 156.131 249.773 156.792C249.773 157.443 249.912 158.019 250.189 158.52C250.467 159.011 250.84 159.395 251.309 159.672C251.779 159.939 252.307 160.072 252.893 160.072ZM259.411 161V152.6H260.499V154.888L260.387 154.488C260.621 153.848 261.016 153.363 261.571 153.032C262.125 152.691 262.813 152.52 263.635 152.52V153.624C263.592 153.624 263.549 153.624 263.507 153.624C263.464 153.613 263.421 153.608 263.379 153.608C262.493 153.608 261.8 153.88 261.299 154.424C260.797 154.957 260.547 155.72 260.547 156.712V161H259.411ZM267.689 161L264.521 152.6H265.609L268.489 160.392H267.993L270.953 152.6H271.929L274.857 160.392H274.361L277.289 152.6H278.329L275.145 161H274.073L271.257 153.672H271.593L268.761 161H267.689ZM284.963 161V159.144L284.915 158.84V155.736C284.915 155.021 284.713 154.472 284.307 154.088C283.913 153.704 283.321 153.512 282.531 153.512C281.987 153.512 281.47 153.603 280.979 153.784C280.489 153.965 280.073 154.205 279.731 154.504L279.219 153.656C279.646 153.293 280.158 153.016 280.755 152.824C281.353 152.621 281.982 152.52 282.643 152.52C283.731 152.52 284.569 152.792 285.155 153.336C285.753 153.869 286.051 154.685 286.051 155.784V161H284.963ZM282.067 161.08C281.438 161.08 280.889 160.979 280.419 160.776C279.961 160.563 279.609 160.275 279.363 159.912C279.118 159.539 278.995 159.112 278.995 158.632C278.995 158.195 279.097 157.8 279.299 157.448C279.513 157.085 279.854 156.797 280.323 156.584C280.803 156.36 281.443 156.248 282.243 156.248H285.139V157.096H282.275C281.465 157.096 280.899 157.24 280.579 157.528C280.27 157.816 280.115 158.173 280.115 158.6C280.115 159.08 280.302 159.464 280.675 159.752C281.049 160.04 281.571 160.184 282.243 160.184C282.883 160.184 283.433 160.04 283.891 159.752C284.361 159.453 284.702 159.027 284.915 158.472L285.171 159.256C284.958 159.811 284.585 160.253 284.051 160.584C283.529 160.915 282.867 161.08 282.067 161.08ZM289.047 161V152.6H290.135V154.888L290.023 154.488C290.257 153.848 290.652 153.363 291.207 153.032C291.761 152.691 292.449 152.52 293.271 152.52V153.624C293.228 153.624 293.185 153.624 293.143 153.624C293.1 153.613 293.057 153.608 293.015 153.608C292.129 153.608 291.436 153.88 290.935 154.424C290.433 154.957 290.183 155.72 290.183 156.712V161H289.047ZM298.52 161.08C297.72 161.08 297 160.899 296.36 160.536C295.73 160.173 295.234 159.672 294.872 159.032C294.509 158.381 294.328 157.635 294.328 156.792C294.328 155.939 294.509 155.192 294.872 154.552C295.234 153.912 295.73 153.416 296.36 153.064C297 152.701 297.72 152.52 298.52 152.52C299.256 152.52 299.912 152.685 300.488 153.016C301.074 153.347 301.538 153.832 301.88 154.472C302.232 155.101 302.408 155.875 302.408 156.792C302.408 157.699 302.237 158.472 301.896 159.112C301.554 159.752 301.09 160.243 300.504 160.584C299.928 160.915 299.266 161.08 298.52 161.08ZM298.6 160.072C299.197 160.072 299.73 159.939 300.2 159.672C300.68 159.395 301.053 159.011 301.32 158.52C301.597 158.019 301.736 157.443 301.736 156.792C301.736 156.131 301.597 155.555 301.32 155.064C301.053 154.573 300.68 154.195 300.2 153.928C299.73 153.651 299.197 153.512 298.6 153.512C298.013 153.512 297.485 153.651 297.016 153.928C296.546 154.195 296.173 154.573 295.896 155.064C295.618 155.555 295.48 156.131 295.48 156.792C295.48 157.443 295.618 158.019 295.896 158.52C296.173 159.011 296.546 159.395 297.016 159.672C297.485 159.939 298.013 160.072 298.6 160.072ZM301.768 161V158.472L301.88 156.776L301.72 155.08V149.128H302.856V161H301.768ZM305.305 157.16V156.168H309.497V157.16H305.305ZM70.0081 185V173.128H71.1441V185H70.0081ZM77.6389 185.08C76.8283 185.08 76.0976 184.899 75.4469 184.536C74.8069 184.163 74.3003 183.656 73.9269 183.016C73.5536 182.365 73.3669 181.624 73.3669 180.792C73.3669 179.949 73.5536 179.208 73.9269 178.568C74.3003 177.928 74.8069 177.427 75.4469 177.064C76.0869 176.701 76.8176 176.52 77.6389 176.52C78.4709 176.52 79.2069 176.701 79.8469 177.064C80.4976 177.427 81.0043 177.928 81.3669 178.568C81.7403 179.208 81.9269 179.949 81.9269 180.792C81.9269 181.624 81.7403 182.365 81.3669 183.016C81.0043 183.656 80.4976 184.163 79.8469 184.536C79.1963 184.899 78.4603 185.08 77.6389 185.08ZM77.6389 184.072C78.2469 184.072 78.7856 183.939 79.2549 183.672C79.7243 183.395 80.0923 183.011 80.3589 182.52C80.6363 182.019 80.7749 181.443 80.7749 180.792C80.7749 180.131 80.6363 179.555 80.3589 179.064C80.0923 178.573 79.7243 178.195 79.2549 177.928C78.7856 177.651 78.2523 177.512 77.6549 177.512C77.0576 177.512 76.5243 177.651 76.0549 177.928C75.5856 178.195 75.2123 178.573 74.9349 179.064C74.6576 179.555 74.5189 180.131 74.5189 180.792C74.5189 181.443 74.6576 182.019 74.9349 182.52C75.2123 183.011 75.5856 183.395 76.0549 183.672C76.5243 183.939 77.0523 184.072 77.6389 184.072ZM87.5802 185.08C86.7695 185.08 86.0389 184.899 85.3882 184.536C84.7482 184.163 84.2415 183.656 83.8682 183.016C83.4949 182.365 83.3082 181.624 83.3082 180.792C83.3082 179.949 83.4949 179.208 83.8682 178.568C84.2415 177.928 84.7482 177.427 85.3882 177.064C86.0282 176.701 86.7589 176.52 87.5802 176.52C88.4122 176.52 89.1482 176.701 89.7882 177.064C90.4389 177.427 90.9455 177.928 91.3082 178.568C91.6815 179.208 91.8682 179.949 91.8682 180.792C91.8682 181.624 91.6815 182.365 91.3082 183.016C90.9455 183.656 90.4389 184.163 89.7882 184.536C89.1375 184.899 88.4015 185.08 87.5802 185.08ZM87.5802 184.072C88.1882 184.072 88.7269 183.939 89.1962 183.672C89.6655 183.395 90.0335 183.011 90.3002 182.52C90.5775 182.019 90.7162 181.443 90.7162 180.792C90.7162 180.131 90.5775 179.555 90.3002 179.064C90.0335 178.573 89.6655 178.195 89.1962 177.928C88.7269 177.651 88.1935 177.512 87.5962 177.512C86.9989 177.512 86.4655 177.651 85.9962 177.928C85.5269 178.195 85.1535 178.573 84.8762 179.064C84.5989 179.555 84.4602 180.131 84.4602 180.792C84.4602 181.443 84.5989 182.019 84.8762 182.52C85.1535 183.011 85.5269 183.395 85.9962 183.672C86.4655 183.939 86.9935 184.072 87.5802 184.072ZM94.9934 182.824L95.0254 181.368L100.257 176.6H101.649L97.9534 180.136L97.3134 180.68L94.9934 182.824ZM94.0974 185V173.128H95.2334V185H94.0974ZM100.609 185L97.1054 180.632L97.8414 179.752L102.001 185H100.609ZM103.617 185V176.6H104.753V185H103.617ZM104.193 174.744C103.958 174.744 103.761 174.664 103.601 174.504C103.441 174.344 103.361 174.152 103.361 173.928C103.361 173.704 103.441 173.517 103.601 173.368C103.761 173.208 103.958 173.128 104.193 173.128C104.427 173.128 104.625 173.203 104.785 173.352C104.945 173.501 105.025 173.688 105.025 173.912C105.025 174.147 104.945 174.344 104.785 174.504C104.635 174.664 104.438 174.744 104.193 174.744ZM112.112 176.52C112.794 176.52 113.392 176.653 113.904 176.92C114.426 177.176 114.832 177.571 115.12 178.104C115.418 178.637 115.568 179.309 115.568 180.12V185H114.432V180.232C114.432 179.347 114.208 178.68 113.76 178.232C113.322 177.773 112.704 177.544 111.904 177.544C111.306 177.544 110.784 177.667 110.336 177.912C109.898 178.147 109.557 178.493 109.312 178.952C109.077 179.4 108.96 179.944 108.96 180.584V185H107.824V176.6H108.912V178.904L108.736 178.472C109.002 177.864 109.429 177.389 110.016 177.048C110.602 176.696 111.301 176.52 112.112 176.52ZM122.13 188.184C121.362 188.184 120.626 188.072 119.922 187.848C119.218 187.624 118.648 187.304 118.21 186.888L118.786 186.024C119.181 186.376 119.666 186.653 120.242 186.856C120.829 187.069 121.448 187.176 122.098 187.176C123.165 187.176 123.949 186.925 124.45 186.424C124.952 185.933 125.202 185.165 125.202 184.12V182.024L125.362 180.584L125.25 179.144V176.6H126.338V183.976C126.338 185.427 125.981 186.488 125.266 187.16C124.562 187.843 123.517 188.184 122.13 188.184ZM121.922 184.68C121.122 184.68 120.402 184.509 119.762 184.168C119.122 183.816 118.616 183.331 118.242 182.712C117.88 182.093 117.698 181.384 117.698 180.584C117.698 179.784 117.88 179.08 118.242 178.472C118.616 177.853 119.122 177.373 119.762 177.032C120.402 176.691 121.122 176.52 121.922 176.52C122.669 176.52 123.341 176.675 123.938 176.984C124.536 177.293 125.01 177.752 125.362 178.36C125.714 178.968 125.89 179.709 125.89 180.584C125.89 181.459 125.714 182.2 125.362 182.808C125.01 183.416 124.536 183.88 123.938 184.2C123.341 184.52 122.669 184.68 121.922 184.68ZM122.034 183.672C122.653 183.672 123.202 183.544 123.682 183.288C124.162 183.021 124.541 182.659 124.818 182.2C125.096 181.731 125.234 181.192 125.234 180.584C125.234 179.976 125.096 179.443 124.818 178.984C124.541 178.525 124.162 178.168 123.682 177.912C123.202 177.645 122.653 177.512 122.034 177.512C121.426 177.512 120.877 177.645 120.386 177.912C119.906 178.168 119.528 178.525 119.25 178.984C118.984 179.443 118.85 179.976 118.85 180.584C118.85 181.192 118.984 181.731 119.25 182.2C119.528 182.659 119.906 183.021 120.386 183.288C120.877 183.544 121.426 183.672 122.034 183.672ZM137.843 185.08C137.107 185.08 136.445 184.915 135.859 184.584C135.272 184.243 134.808 183.752 134.467 183.112C134.125 182.472 133.955 181.699 133.955 180.792C133.955 179.875 134.125 179.101 134.467 178.472C134.819 177.832 135.288 177.347 135.875 177.016C136.461 176.685 137.117 176.52 137.843 176.52C138.643 176.52 139.357 176.701 139.987 177.064C140.627 177.416 141.128 177.912 141.491 178.552C141.853 179.192 142.035 179.939 142.035 180.792C142.035 181.635 141.853 182.381 141.491 183.032C141.128 183.672 140.627 184.173 139.987 184.536C139.357 184.899 138.643 185.08 137.843 185.08ZM133.507 185V173.128H134.643V179.08L134.483 180.776L134.595 182.472V185H133.507ZM137.763 184.072C138.36 184.072 138.893 183.939 139.363 183.672C139.832 183.395 140.205 183.011 140.483 182.52C140.76 182.019 140.899 181.443 140.899 180.792C140.899 180.131 140.76 179.555 140.483 179.064C140.205 178.573 139.832 178.195 139.363 177.928C138.893 177.651 138.36 177.512 137.763 177.512C137.165 177.512 136.627 177.651 136.147 177.928C135.677 178.195 135.304 178.573 135.027 179.064C134.76 179.555 134.627 180.131 134.627 180.792C134.627 181.443 134.76 182.019 135.027 182.52C135.304 183.011 135.677 183.395 136.147 183.672C136.627 183.939 137.165 184.072 137.763 184.072ZM144.261 185V176.6H145.349V178.888L145.237 178.488C145.471 177.848 145.866 177.363 146.421 177.032C146.975 176.691 147.663 176.52 148.485 176.52V177.624C148.442 177.624 148.399 177.624 148.357 177.624C148.314 177.613 148.271 177.608 148.229 177.608C147.343 177.608 146.65 177.88 146.149 178.424C145.647 178.957 145.397 179.72 145.397 180.712V185H144.261ZM155.106 185V183.144L155.058 182.84V179.736C155.058 179.021 154.856 178.472 154.45 178.088C154.056 177.704 153.464 177.512 152.674 177.512C152.13 177.512 151.613 177.603 151.122 177.784C150.632 177.965 150.216 178.205 149.874 178.504L149.362 177.656C149.789 177.293 150.301 177.016 150.898 176.824C151.496 176.621 152.125 176.52 152.786 176.52C153.874 176.52 154.712 176.792 155.298 177.336C155.896 177.869 156.194 178.685 156.194 179.784V185H155.106ZM152.21 185.08C151.581 185.08 151.032 184.979 150.562 184.776C150.104 184.563 149.752 184.275 149.506 183.912C149.261 183.539 149.138 183.112 149.138 182.632C149.138 182.195 149.24 181.8 149.442 181.448C149.656 181.085 149.997 180.797 150.466 180.584C150.946 180.36 151.586 180.248 152.386 180.248H155.282V181.096H152.418C151.608 181.096 151.042 181.24 150.722 181.528C150.413 181.816 150.258 182.173 150.258 182.6C150.258 183.08 150.445 183.464 150.818 183.752C151.192 184.04 151.714 184.184 152.386 184.184C153.026 184.184 153.576 184.04 154.034 183.752C154.504 183.453 154.845 183.027 155.058 182.472L155.314 183.256C155.101 183.811 154.728 184.253 154.194 184.584C153.672 184.915 153.01 185.08 152.21 185.08ZM163.478 176.52C164.161 176.52 164.758 176.653 165.27 176.92C165.793 177.176 166.198 177.571 166.486 178.104C166.785 178.637 166.934 179.309 166.934 180.12V185H165.798V180.232C165.798 179.347 165.574 178.68 165.126 178.232C164.689 177.773 164.07 177.544 163.27 177.544C162.673 177.544 162.15 177.667 161.702 177.912C161.265 178.147 160.923 178.493 160.678 178.952C160.443 179.4 160.326 179.944 160.326 180.584V185H159.19V176.6H160.278V178.904L160.102 178.472C160.369 177.864 160.795 177.389 161.382 177.048C161.969 176.696 162.667 176.52 163.478 176.52ZM173.256 185.08C172.456 185.08 171.736 184.899 171.096 184.536C170.467 184.173 169.971 183.672 169.608 183.032C169.246 182.381 169.064 181.635 169.064 180.792C169.064 179.939 169.246 179.192 169.608 178.552C169.971 177.912 170.467 177.416 171.096 177.064C171.736 176.701 172.456 176.52 173.256 176.52C173.992 176.52 174.648 176.685 175.224 177.016C175.811 177.347 176.275 177.832 176.616 178.472C176.968 179.101 177.144 179.875 177.144 180.792C177.144 181.699 176.974 182.472 176.632 183.112C176.291 183.752 175.827 184.243 175.24 184.584C174.664 184.915 174.003 185.08 173.256 185.08ZM173.336 184.072C173.934 184.072 174.467 183.939 174.936 183.672C175.416 183.395 175.79 183.011 176.056 182.52C176.334 182.019 176.472 181.443 176.472 180.792C176.472 180.131 176.334 179.555 176.056 179.064C175.79 178.573 175.416 178.195 174.936 177.928C174.467 177.651 173.934 177.512 173.336 177.512C172.75 177.512 172.222 177.651 171.752 177.928C171.283 178.195 170.91 178.573 170.632 179.064C170.355 179.555 170.216 180.131 170.216 180.792C170.216 181.443 170.355 182.019 170.632 182.52C170.91 183.011 171.283 183.395 171.752 183.672C172.222 183.939 172.75 184.072 173.336 184.072ZM176.504 185V182.472L176.616 180.776L176.456 179.08V173.128H177.592V185H176.504ZM188.348 188.184C187.58 188.184 186.844 188.072 186.14 187.848C185.436 187.624 184.865 187.304 184.428 186.888L185.004 186.024C185.398 186.376 185.884 186.653 186.46 186.856C187.046 187.069 187.665 187.176 188.316 187.176C189.382 187.176 190.166 186.925 190.668 186.424C191.169 185.933 191.42 185.165 191.42 184.12V182.024L191.58 180.584L191.468 179.144V176.6H192.556V183.976C192.556 185.427 192.198 186.488 191.484 187.16C190.78 187.843 189.734 188.184 188.348 188.184ZM188.14 184.68C187.34 184.68 186.62 184.509 185.98 184.168C185.34 183.816 184.833 183.331 184.46 182.712C184.097 182.093 183.916 181.384 183.916 180.584C183.916 179.784 184.097 179.08 184.46 178.472C184.833 177.853 185.34 177.373 185.98 177.032C186.62 176.691 187.34 176.52 188.14 176.52C188.886 176.52 189.558 176.675 190.156 176.984C190.753 177.293 191.228 177.752 191.58 178.36C191.932 178.968 192.108 179.709 192.108 180.584C192.108 181.459 191.932 182.2 191.58 182.808C191.228 183.416 190.753 183.88 190.156 184.2C189.558 184.52 188.886 184.68 188.14 184.68ZM188.252 183.672C188.87 183.672 189.42 183.544 189.9 183.288C190.38 183.021 190.758 182.659 191.036 182.2C191.313 181.731 191.452 181.192 191.452 180.584C191.452 179.976 191.313 179.443 191.036 178.984C190.758 178.525 190.38 178.168 189.9 177.912C189.42 177.645 188.87 177.512 188.252 177.512C187.644 177.512 187.094 177.645 186.604 177.912C186.124 178.168 185.745 178.525 185.468 178.984C185.201 179.443 185.068 179.976 185.068 180.584C185.068 181.192 185.201 181.731 185.468 182.2C185.745 182.659 186.124 183.021 186.604 183.288C187.094 183.544 187.644 183.672 188.252 183.672ZM195.627 185V176.6H196.715V178.888L196.603 178.488C196.837 177.848 197.232 177.363 197.787 177.032C198.341 176.691 199.029 176.52 199.851 176.52V177.624C199.808 177.624 199.765 177.624 199.723 177.624C199.68 177.613 199.637 177.608 199.595 177.608C198.709 177.608 198.016 177.88 197.515 178.424C197.013 178.957 196.763 179.72 196.763 180.712V185H195.627ZM205.18 185.08C204.369 185.08 203.638 184.899 202.988 184.536C202.348 184.163 201.841 183.656 201.468 183.016C201.094 182.365 200.908 181.624 200.908 180.792C200.908 179.949 201.094 179.208 201.468 178.568C201.841 177.928 202.348 177.427 202.988 177.064C203.628 176.701 204.358 176.52 205.18 176.52C206.012 176.52 206.748 176.701 207.388 177.064C208.038 177.427 208.545 177.928 208.908 178.568C209.281 179.208 209.468 179.949 209.468 180.792C209.468 181.624 209.281 182.365 208.908 183.016C208.545 183.656 208.038 184.163 207.388 184.536C206.737 184.899 206.001 185.08 205.18 185.08ZM205.18 184.072C205.788 184.072 206.326 183.939 206.796 183.672C207.265 183.395 207.633 183.011 207.9 182.52C208.177 182.019 208.316 181.443 208.316 180.792C208.316 180.131 208.177 179.555 207.9 179.064C207.633 178.573 207.265 178.195 206.796 177.928C206.326 177.651 205.793 177.512 205.196 177.512C204.598 177.512 204.065 177.651 203.596 177.928C203.126 178.195 202.753 178.573 202.476 179.064C202.198 179.555 202.06 180.131 202.06 180.792C202.06 181.443 202.198 182.019 202.476 182.52C202.753 183.011 203.126 183.395 203.596 183.672C204.065 183.939 204.593 184.072 205.18 184.072ZM213.174 185L210.006 176.6H211.094L213.974 184.392H213.478L216.438 176.6H217.414L220.342 184.392H219.846L222.774 176.6H223.814L220.63 185H219.558L216.742 177.672H217.078L214.246 185H213.174ZM228.325 185.08C227.536 185.08 226.928 184.867 226.501 184.44C226.075 184.013 225.861 183.411 225.861 182.632V174.744H226.997V182.568C226.997 183.059 227.12 183.437 227.365 183.704C227.621 183.971 227.984 184.104 228.453 184.104C228.955 184.104 229.371 183.96 229.701 183.672L230.101 184.488C229.877 184.691 229.605 184.84 229.285 184.936C228.976 185.032 228.656 185.08 228.325 185.08ZM224.357 177.544V176.6H229.557V177.544H224.357ZM236.367 176.52C237.05 176.52 237.647 176.653 238.159 176.92C238.682 177.176 239.087 177.571 239.375 178.104C239.674 178.637 239.823 179.309 239.823 180.12V185H238.687V180.232C238.687 179.347 238.463 178.68 238.015 178.232C237.578 177.773 236.959 177.544 236.159 177.544C235.562 177.544 235.039 177.667 234.591 177.912C234.154 178.147 233.813 178.493 233.567 178.952C233.333 179.4 233.215 179.944 233.215 180.584V185H232.079V173.128H233.215V178.904L232.991 178.472C233.258 177.864 233.685 177.389 234.271 177.048C234.858 176.696 235.557 176.52 236.367 176.52ZM246.899 185V176.6H247.987V178.888L247.875 178.488C248.11 177.848 248.505 177.363 249.059 177.032C249.614 176.691 250.302 176.52 251.123 176.52V177.624C251.081 177.624 251.038 177.624 250.995 177.624C250.953 177.613 250.91 177.608 250.867 177.608C249.982 177.608 249.289 177.88 248.787 178.424C248.286 178.957 248.035 179.72 248.035 180.712V185H246.899ZM256.452 185.08C255.641 185.08 254.911 184.899 254.26 184.536C253.62 184.163 253.113 183.656 252.74 183.016C252.367 182.365 252.18 181.624 252.18 180.792C252.18 179.949 252.367 179.208 252.74 178.568C253.113 177.928 253.62 177.427 254.26 177.064C254.9 176.701 255.631 176.52 256.452 176.52C257.284 176.52 258.02 176.701 258.66 177.064C259.311 177.427 259.817 177.928 260.18 178.568C260.553 179.208 260.74 179.949 260.74 180.792C260.74 181.624 260.553 182.365 260.18 183.016C259.817 183.656 259.311 184.163 258.66 184.536C258.009 184.899 257.273 185.08 256.452 185.08ZM256.452 184.072C257.06 184.072 257.599 183.939 258.068 183.672C258.537 183.395 258.905 183.011 259.172 182.52C259.449 182.019 259.588 181.443 259.588 180.792C259.588 180.131 259.449 179.555 259.172 179.064C258.905 178.573 258.537 178.195 258.068 177.928C257.599 177.651 257.065 177.512 256.468 177.512C255.871 177.512 255.337 177.651 254.868 177.928C254.399 178.195 254.025 178.573 253.748 179.064C253.471 179.555 253.332 180.131 253.332 180.792C253.332 181.443 253.471 182.019 253.748 182.52C254.025 183.011 254.399 183.395 254.868 183.672C255.337 183.939 255.865 184.072 256.452 184.072ZM268.186 185V183.144L268.138 182.84V179.736C268.138 179.021 267.936 178.472 267.53 178.088C267.136 177.704 266.544 177.512 265.754 177.512C265.21 177.512 264.693 177.603 264.202 177.784C263.712 177.965 263.296 178.205 262.954 178.504L262.442 177.656C262.869 177.293 263.381 177.016 263.978 176.824C264.576 176.621 265.205 176.52 265.866 176.52C266.954 176.52 267.792 176.792 268.378 177.336C268.976 177.869 269.274 178.685 269.274 179.784V185H268.186ZM265.29 185.08C264.661 185.08 264.112 184.979 263.642 184.776C263.184 184.563 262.832 184.275 262.586 183.912C262.341 183.539 262.218 183.112 262.218 182.632C262.218 182.195 262.32 181.8 262.522 181.448C262.736 181.085 263.077 180.797 263.546 180.584C264.026 180.36 264.666 180.248 265.466 180.248H268.362V181.096H265.498C264.688 181.096 264.122 181.24 263.802 181.528C263.493 181.816 263.338 182.173 263.338 182.6C263.338 183.08 263.525 183.464 263.898 183.752C264.272 184.04 264.794 184.184 265.466 184.184C266.106 184.184 266.656 184.04 267.114 183.752C267.584 183.453 267.925 183.027 268.138 182.472L268.394 183.256C268.181 183.811 267.808 184.253 267.274 184.584C266.752 184.915 266.09 185.08 265.29 185.08ZM275.614 185.08C274.814 185.08 274.094 184.899 273.454 184.536C272.825 184.173 272.329 183.672 271.966 183.032C271.603 182.381 271.422 181.635 271.422 180.792C271.422 179.939 271.603 179.192 271.966 178.552C272.329 177.912 272.825 177.416 273.454 177.064C274.094 176.701 274.814 176.52 275.614 176.52C276.35 176.52 277.006 176.685 277.582 177.016C278.169 177.347 278.633 177.832 278.974 178.472C279.326 179.101 279.502 179.875 279.502 180.792C279.502 181.699 279.331 182.472 278.99 183.112C278.649 183.752 278.185 184.243 277.598 184.584C277.022 184.915 276.361 185.08 275.614 185.08ZM275.694 184.072C276.291 184.072 276.825 183.939 277.294 183.672C277.774 183.395 278.147 183.011 278.414 182.52C278.691 182.019 278.83 181.443 278.83 180.792C278.83 180.131 278.691 179.555 278.414 179.064C278.147 178.573 277.774 178.195 277.294 177.928C276.825 177.651 276.291 177.512 275.694 177.512C275.107 177.512 274.579 177.651 274.11 177.928C273.641 178.195 273.267 178.573 272.99 179.064C272.713 179.555 272.574 180.131 272.574 180.792C272.574 181.443 272.713 182.019 272.99 182.52C273.267 183.011 273.641 183.395 274.11 183.672C274.579 183.939 275.107 184.072 275.694 184.072ZM278.862 185V182.472L278.974 180.776L278.814 179.08V173.128H279.95V185H278.862ZM293.52 176.52C294.202 176.52 294.794 176.653 295.296 176.92C295.808 177.176 296.202 177.571 296.48 178.104C296.768 178.637 296.912 179.309 296.912 180.12V185H295.776V180.232C295.776 179.347 295.562 178.68 295.136 178.232C294.72 177.773 294.128 177.544 293.36 177.544C292.784 177.544 292.282 177.667 291.856 177.912C291.44 178.147 291.114 178.493 290.88 178.952C290.656 179.4 290.544 179.944 290.544 180.584V185H289.408V180.232C289.408 179.347 289.194 178.68 288.768 178.232C288.341 177.773 287.744 177.544 286.976 177.544C286.41 177.544 285.914 177.667 285.488 177.912C285.061 178.147 284.73 178.493 284.496 178.952C284.272 179.4 284.16 179.944 284.16 180.584V185H283.024V176.6H284.112V178.872L283.936 178.472C284.192 177.864 284.602 177.389 285.168 177.048C285.744 176.696 286.421 176.52 287.2 176.52C288.021 176.52 288.72 176.728 289.296 177.144C289.872 177.549 290.245 178.163 290.416 178.984L289.968 178.808C290.213 178.125 290.645 177.576 291.264 177.16C291.893 176.733 292.645 176.52 293.52 176.52ZM305.166 185V183.144L305.118 182.84V179.736C305.118 179.021 304.916 178.472 304.51 178.088C304.116 177.704 303.524 177.512 302.734 177.512C302.19 177.512 301.673 177.603 301.182 177.784C300.692 177.965 300.276 178.205 299.934 178.504L299.422 177.656C299.849 177.293 300.361 177.016 300.958 176.824C301.556 176.621 302.185 176.52 302.846 176.52C303.934 176.52 304.772 176.792 305.358 177.336C305.956 177.869 306.254 178.685 306.254 179.784V185H305.166ZM302.27 185.08C301.641 185.08 301.092 184.979 300.622 184.776C300.164 184.563 299.812 184.275 299.566 183.912C299.321 183.539 299.198 183.112 299.198 182.632C299.198 182.195 299.3 181.8 299.502 181.448C299.716 181.085 300.057 180.797 300.526 180.584C301.006 180.36 301.646 180.248 302.446 180.248H305.342V181.096H302.478C301.668 181.096 301.102 181.24 300.782 181.528C300.473 181.816 300.318 182.173 300.318 182.6C300.318 183.08 300.505 183.464 300.878 183.752C301.252 184.04 301.774 184.184 302.446 184.184C303.086 184.184 303.636 184.04 304.094 183.752C304.564 183.453 304.905 183.027 305.118 182.472L305.374 183.256C305.161 183.811 304.788 184.253 304.254 184.584C303.732 184.915 303.07 185.08 302.27 185.08ZM313.586 185.08C312.861 185.08 312.205 184.915 311.618 184.584C311.031 184.243 310.562 183.757 310.21 183.128C309.869 182.488 309.698 181.709 309.698 180.792C309.698 179.875 309.869 179.101 310.21 178.472C310.551 177.832 311.015 177.347 311.602 177.016C312.189 176.685 312.85 176.52 313.586 176.52C314.386 176.52 315.101 176.701 315.73 177.064C316.37 177.416 316.871 177.917 317.234 178.568C317.597 179.208 317.778 179.949 317.778 180.792C317.778 181.645 317.597 182.392 317.234 183.032C316.871 183.672 316.37 184.173 315.73 184.536C315.101 184.899 314.386 185.08 313.586 185.08ZM309.25 188.104V176.6H310.338V179.128L310.226 180.808L310.386 182.504V188.104H309.25ZM313.506 184.072C314.103 184.072 314.637 183.939 315.106 183.672C315.575 183.395 315.949 183.011 316.226 182.52C316.503 182.019 316.642 181.443 316.642 180.792C316.642 180.141 316.503 179.571 316.226 179.08C315.949 178.589 315.575 178.205 315.106 177.928C314.637 177.651 314.103 177.512 313.506 177.512C312.909 177.512 312.37 177.651 311.89 177.928C311.421 178.205 311.047 178.589 310.77 179.08C310.503 179.571 310.37 180.141 310.37 180.792C310.37 181.443 310.503 182.019 310.77 182.52C311.047 183.011 311.421 183.395 311.89 183.672C312.37 183.939 312.909 184.072 313.506 184.072ZM319.881 185.08C319.647 185.08 319.444 184.995 319.273 184.824C319.113 184.653 319.033 184.445 319.033 184.2C319.033 183.944 319.113 183.736 319.273 183.576C319.444 183.416 319.647 183.336 319.881 183.336C320.116 183.336 320.313 183.416 320.473 183.576C320.644 183.736 320.729 183.944 320.729 184.2C320.729 184.445 320.644 184.653 320.473 184.824C320.313 184.995 320.116 185.08 319.881 185.08Z" fill="black"/>
</svg>
