<?xml version="1.0" encoding="UTF-8"?>
<svg width="200" height="40" viewBox="0 0 200 40" fill="none" xmlns="http://www.w3.org/2000/svg">
<mask id="path-1-inside-1_2076_498" fill="white">
<path d="M0 0H200V40H0V0Z"/>
</mask>
<path d="M0 0H200V40H0V0Z" fill="white"/>
<path d="M200 0H199.25V40H200H200.75V0H200Z" fill="#DADAE0" mask="url(#path-1-inside-1_2076_498)"/>
<path fill-rule="evenodd" clip-rule="evenodd" d="M34.8449 5.9671H63.7662C63.8019 5.97898 63.8256 5.99087 63.8613 5.99087C64.5386 6.01463 65.204 6.13345 65.8456 6.33545C68.1151 7.0365 69.743 8.46237 70.6935 10.6487C71.0857 11.5399 71.2758 12.4786 71.3233 13.441C71.3589 14.154 71.3233 14.855 71.1807 15.5561C70.8718 17.0651 70.1707 18.3484 69.0538 19.4178C69.03 19.4415 69.0063 19.4653 68.9944 19.4891C69.0063 19.5009 69.0063 19.5009 69.0063 19.5128C69.0419 19.5366 69.0776 19.5604 69.1132 19.5841C70.3846 20.5228 71.2758 21.7348 71.7748 23.2201C71.9768 23.838 72.1194 24.4677 72.1432 25.1212C72.1432 25.1569 72.155 25.1806 72.1669 25.2163V26.452C72.155 26.4877 72.1432 26.5352 72.1432 26.5709C72.1432 26.6422 72.1432 26.7135 72.1313 26.7847C72.0719 27.3432 71.9649 27.8779 71.7986 28.4126C71.1807 30.3969 69.9806 31.9298 68.1626 32.9635C66.8675 33.7002 65.4535 34.0329 63.9682 34.0329C54.308 34.0329 44.6596 34.0329 34.9994 34.0329H34.8568V26.654H39.5027V28.0086C39.5027 28.4601 39.5027 28.9117 39.5027 29.3632C39.7047 29.387 50.7433 29.3751 50.8384 29.3513V22.0913H46.0736V24.3014C45.9191 24.337 41.5227 24.3251 41.4276 24.3014V15.1996H46.0736V17.4097C46.2281 17.4334 50.7433 17.4334 50.8265 17.4097V10.6368H39.4908V13.0251H34.833V6.14534C34.8568 6.08592 34.8449 6.02651 34.8449 5.9671ZM56.2329 29.3751H63.6117C64.0038 29.3751 64.396 29.3394 64.7762 29.2325C65.9763 28.8998 66.7962 28.175 67.1764 26.9867C67.4497 26.1431 67.4378 25.2876 67.1645 24.444C66.8675 23.5409 66.2852 22.8755 65.4178 22.4596C64.8831 22.2101 64.3128 22.0913 63.7187 22.0913C63.2196 22.0913 62.7206 22.0913 62.2215 22.0913H56.221L56.2329 29.3751ZM56.2448 10.6249V17.4334H63.0889C63.4692 17.4334 63.8494 17.3859 64.2177 17.279C65.2753 16.9582 66.0001 16.2927 66.3565 15.2471C66.5823 14.5817 66.6061 13.8925 66.4635 13.2153C66.2139 12.0627 65.5367 11.2666 64.4197 10.8626C63.9444 10.6843 63.4454 10.6368 62.9463 10.6368C60.76 10.6368 58.5737 10.6368 56.3992 10.6368H56.2448V10.6249Z" fill="black"/>
<path fill-rule="evenodd" clip-rule="evenodd" d="M91.3313 19.6571C92.2995 18.7662 92.8778 17.5089 92.8778 16.0431C92.8778 13.0309 90.6791 10.8323 87.64 10.8323H82.167V29.1576H88.03C91.1464 29.1576 93.4224 26.9052 93.4224 23.7921C93.4257 22.0406 92.6391 20.5749 91.3313 19.6571ZM85.0985 13.663H87.5325C88.9713 13.663 89.9429 14.6312 89.9429 16.0465C89.9429 17.4618 88.9747 18.43 87.5325 18.43H85.0985V13.663ZM87.9258 26.3337H85.0985V21.254H87.9258C89.4453 21.254 90.4909 22.276 90.4909 23.7921C90.4909 25.3083 89.4453 26.3337 87.9258 26.3337ZM103.975 24.135C103.975 25.6277 102.903 26.7001 101.41 26.7001C99.9174 26.7001 98.845 25.6277 98.845 24.135V10.8357H95.9135V23.9266C95.9135 27.1741 98.2163 29.5308 101.41 29.5308C104.604 29.5308 106.907 27.1741 106.907 23.9266V10.8357H103.975V24.135ZM115.55 10.4692C112.356 10.4692 110.053 12.8259 110.053 16.0734V23.9266C110.053 27.1741 112.356 29.5308 115.55 29.5308C118.744 29.5308 121.046 27.1741 121.046 23.9266V18.5847H115.55V21.412H118.115V24.135C118.115 25.6277 117.043 26.7001 115.55 26.7001C114.057 26.7001 112.985 25.6277 112.985 24.135V15.8616C112.985 14.369 114.057 13.2965 115.55 13.2965C117.043 13.2965 118.115 14.369 118.115 15.8616V16.3323H121.046V16.07C121.05 12.8259 118.747 10.4692 115.55 10.4692ZM127.353 10.8357L123.138 29.161H126.042L126.879 25.4966H131.855L132.692 29.161H135.596L131.381 10.8357H127.353ZM127.538 22.6693L129.37 14.6312L131.203 22.6693H127.538ZM136.097 13.663H140.128L140.155 29.161H143.036L143.063 13.663H147.094V10.8357H136.097V13.663ZM148.617 13.663H152.648L152.674 29.161H155.556L155.582 13.663H159.613V10.8357H148.617V13.663ZM162.235 10.8357H165.167V29.161H162.235V10.8357Z" fill="black"/>
</svg>
