<svg width="48" height="48" viewBox="0 0 48 48" fill="none" xmlns="http://www.w3.org/2000/svg">
<rect width="48" height="48" rx="4" fill="#ECEEF9"/>
<path d="M22.5422 15.4133L17.3738 12.8583C14.5855 11.4933 12.2988 12.8816 12.2988 15.9383V33.2516C12.2988 34.5816 13.4072 35.6666 14.7605 35.6666H23.4172C24.0588 35.6666 24.5838 35.1416 24.5838 34.5V18.645C24.5838 17.42 23.6622 15.9616 22.5422 15.4133ZM20.4655 26.0416H16.4172C15.9388 26.0416 15.5422 25.645 15.5422 25.1666C15.5422 24.6883 15.9388 24.2916 16.4172 24.2916H20.4655C20.9438 24.2916 21.3405 24.6883 21.3405 25.1666C21.3405 25.645 20.9555 26.0416 20.4655 26.0416ZM20.4655 21.375H16.4172C15.9388 21.375 15.5422 20.9783 15.5422 20.5C15.5422 20.0216 15.9388 19.625 16.4172 19.625H20.4655C20.9438 19.625 21.3405 20.0216 21.3405 20.5C21.3405 20.9783 20.9555 21.375 20.4655 21.375Z" fill="#292D32"/>
<path d="M35.6663 31V32.7033C35.6663 34.3133 34.3597 35.62 32.7497 35.62H27.4647C26.8347 35.62 26.333 35.1183 26.333 34.4883V31C27.4997 31 28.6663 31 29.8447 31C31.023 31 31.6413 31 32.7497 31C33.8347 31 34.4997 31 35.6663 31Z" fill="#292D32"/>
</svg>
