<svg width="44" height="44" viewBox="0 0 44 44" fill="none" xmlns="http://www.w3.org/2000/svg">
<rect width="44" height="44" rx="4" fill="#F3F4FD"/>
<path d="M30.97 26H28.03C26.76 26 26 26.76 26 28.03V30.97C26 32.24 26.76 33 28.03 33H30.97C32.24 33 33 32.24 33 30.97V28.03C33 26.76 32.24 26 30.97 26ZM31.63 28.45L29.26 31.22C29.16 31.33 29.03 31.4 28.88 31.4C28.88 31.4 28.87 31.4 28.86 31.4C28.73 31.4 28.59 31.35 28.5 31.25L27.4 30.17C27.2 29.97 27.2 29.64 27.4 29.43C27.6 29.23 27.93 29.23 28.14 29.43L28.83 30.12L30.84 27.78C31.02 27.56 31.35 27.53 31.57 27.72C31.79 27.91 31.81 28.24 31.63 28.45Z" fill="#418FDE"/>
<path d="M30.97 26H28.03C26.76 26 26 26.76 26 28.03V30.97C26 32.24 26.76 33 28.03 33H30.97C32.24 33 33 32.24 33 30.97V28.03C33 26.76 32.24 26 30.97 26ZM31.63 28.45L29.26 31.22C29.16 31.33 29.03 31.4 28.88 31.4C28.88 31.4 28.87 31.4 28.86 31.4C28.73 31.4 28.59 31.35 28.5 31.25L27.4 30.17C27.2 29.97 27.2 29.64 27.4 29.43C27.6 29.23 27.93 29.23 28.14 29.43L28.83 30.12L30.84 27.78C31.02 27.56 31.35 27.53 31.57 27.72C31.79 27.91 31.81 28.24 31.63 28.45Z" fill="#418FDE"/>
<path d="M31.97 17.21C31.69 14.48 29.52 12.31 26.79 12.03C26.59 12.01 26.39 12 26.19 12H17.81C17.61 12 17.41 12.01 17.21 12.03C14.48 12.31 12.31 14.48 12.03 17.21C12.01 17.41 12 17.61 12 17.81V26.19C12 26.39 12.01 26.59 12.03 26.79C12.31 29.52 14.48 31.69 17.21 31.97C17.41 31.99 17.61 32 17.81 32H24C24.55 32 25 31.55 25 31V28.03C25 26.36 26.36 25 28.03 25H31C31.55 25 32 24.55 32 24V17.81C32 17.61 31.99 17.41 31.97 17.21ZM17.75 23.5C17.75 23.91 17.41 24.25 17 24.25C16.59 24.25 16.25 23.91 16.25 23.5V20.5C16.25 20.09 16.59 19.75 17 19.75C17.41 19.75 17.75 20.09 17.75 20.5V23.5ZM22.75 23.5C22.75 23.91 22.41 24.25 22 24.25C21.59 24.25 21.25 23.91 21.25 23.5V20.5C21.25 20.09 21.59 19.75 22 19.75C22.41 19.75 22.75 20.09 22.75 20.5V23.5Z" fill="#418FDE"/>
</svg>
