<svg width="65" height="74" viewBox="0 0 65 74" fill="none" xmlns="http://www.w3.org/2000/svg">
<mask id="path-1-inside-1_2076_682" fill="white">
<path d="M30.344 1.17973C31.0491 -0.388515 33.2736 -0.394329 33.9875 1.16996L64.6086 68.2647C65.3567 69.9039 63.7257 71.6191 62.051 70.9541L34.8108 60.1377L32.6633 18.4737L30.1985 59.8711L2.75412 70.9317C1.08345 71.6049 -0.55638 69.8997 0.181857 68.2569L30.344 1.17973Z"/>
</mask>
<path d="M30.344 1.17973C31.0491 -0.388515 33.2736 -0.394329 33.9875 1.16996L64.6086 68.2647C65.3567 69.9039 63.7257 71.6191 62.051 70.9541L34.8108 60.1377L32.6633 18.4737L30.1985 59.8711L2.75412 70.9317C1.08345 71.6049 -0.55638 69.8997 0.181857 68.2569L30.344 1.17973Z" fill="#418FDE"/>
<path d="M30.344 1.17973L29.4319 0.769616V0.769618L30.344 1.17973ZM33.9875 1.16996L33.0778 1.58514L33.0778 1.58515L33.9875 1.16996ZM64.6086 68.2647L65.5183 67.8495V67.8495L64.6086 68.2647ZM62.051 70.9541L61.6819 71.8835L61.682 71.8836L62.051 70.9541ZM34.8108 60.1377L33.8121 60.1892L33.8451 60.8303L34.4417 61.0671L34.8108 60.1377ZM32.6633 18.4737L33.662 18.4222L31.6651 18.4142L32.6633 18.4737ZM30.1985 59.8711L30.5723 60.7986L31.1591 60.5621L31.1967 59.9306L30.1985 59.8711ZM2.75412 70.9317L3.1279 71.8592L3.12792 71.8592L2.75412 70.9317ZM0.181857 68.2569L-0.73018 67.8468L-0.730277 67.847L0.181857 68.2569ZM30.344 1.17973L31.256 1.58984C31.6084 0.806096 32.7207 0.802619 33.0778 1.58514L33.9875 1.16996L34.8973 0.754778C33.8266 -1.59128 30.4899 -1.58313 29.4319 0.769616L30.344 1.17973ZM33.9875 1.16996L33.0778 1.58515L63.6989 68.6799L64.6086 68.2647L65.5183 67.8495L34.8973 0.754771L33.9875 1.16996ZM64.6086 68.2647L63.6989 68.6799C64.073 69.4996 63.2572 70.3571 62.42 70.0247L62.051 70.9541L61.682 71.8836C64.1941 72.881 66.6404 70.3082 65.5183 67.8495L64.6086 68.2647ZM62.051 70.9541L62.42 70.0247L35.1798 59.2083L34.8108 60.1377L34.4417 61.0671L61.6819 71.8835L62.051 70.9541ZM34.8108 60.1377L35.8094 60.0863L33.662 18.4222L32.6633 18.4737L31.6646 18.5251L33.8121 60.1892L34.8108 60.1377ZM32.6633 18.4737L31.6651 18.4142L29.2002 59.8117L30.1985 59.8711L31.1967 59.9306L33.6615 18.5331L32.6633 18.4737ZM30.1985 59.8711L29.8247 58.9436L2.38032 70.0042L2.75412 70.9317L3.12792 71.8592L30.5723 60.7986L30.1985 59.8711ZM2.75412 70.9317L2.38035 70.0042C1.54471 70.3409 0.725017 69.4878 1.09399 68.6668L0.181857 68.2569L-0.730277 67.847C-1.83778 70.3115 0.622183 72.869 3.1279 71.8592L2.75412 70.9317ZM0.181857 68.2569L1.09389 68.667L31.256 1.58984L30.344 1.17973L29.4319 0.769618L-0.73018 67.8468L0.181857 68.2569Z" fill="#418FDE" mask="url(#path-1-inside-1_2076_682)"/>
<circle cx="31.6277" cy="41.4633" r="30.5984" stroke="#418FDE" stroke-width="2"/>
</svg>
