<svg width="44" height="44" viewBox="0 0 44 44" fill="none" xmlns="http://www.w3.org/2000/svg">
<rect width="44" height="44" rx="4" fill="#ECEEF9"/>
<path d="M22.7002 26.88H23.4002C24.5502 26.88 25.4902 25.94 25.4902 24.79V24.09H22.7002V26.88Z" fill="#418FDE"/>
<path d="M18.5098 24.79C18.5098 25.94 19.4498 26.88 20.5998 26.88H21.2998V24.09H18.5098V24.79Z" fill="#418FDE"/>
<path d="M18.5098 22V22.7H21.2998V19.91H20.5998C19.4498 19.91 18.5098 20.85 18.5098 22Z" fill="#418FDE"/>
<path d="M30.03 16.8201L24.28 12.7901C22.71 11.6901 20.31 11.7501 18.8 12.9201L13.79 16.8301C12.78 17.6101 12 19.2101 12 20.4701V27.3701C12 29.9201 14.07 32.0001 16.61 32.0001H27.38C29.92 32.0001 31.99 29.9301 31.99 27.3801V20.6001C32 19.2501 31.13 17.5901 30.03 16.8201ZM26.88 24.7901C26.88 26.7101 25.31 28.2801 23.39 28.2801H20.6C18.68 28.2801 17.11 26.7201 17.11 24.7901V22.0001C17.11 20.0801 18.68 18.5101 20.6 18.5101H23.39C25.31 18.5101 26.88 20.0701 26.88 22.0001V24.7901Z" fill="#418FDE"/>
<path d="M23.4002 19.91H22.7002V22.7H25.4902V22C25.4902 20.85 24.5502 19.91 23.4002 19.91Z" fill="#418FDE"/>
</svg>
