<svg width="48" height="48" viewBox="0 0 48 48" fill="none" xmlns="http://www.w3.org/2000/svg">
<rect width="48" height="48" rx="4" fill="#ECEEF9"/>
<path d="M35.6663 34.7916H12.333C11.8547 34.7916 11.458 35.1883 11.458 35.6666C11.458 36.145 11.8547 36.5416 12.333 36.5416H35.6663C36.1447 36.5416 36.5413 36.145 36.5413 35.6666C36.5413 35.1883 36.1447 34.7916 35.6663 34.7916Z" fill="#292D32"/>
<path d="M29.8333 12.3334H18.1667C14.6667 12.3334 13.5 14.4217 13.5 17V35.6667H34.5V17C34.5 14.4217 33.3333 12.3334 29.8333 12.3334ZM21.6667 30.125H18.1667C17.6883 30.125 17.2917 29.7284 17.2917 29.25C17.2917 28.7717 17.6883 28.375 18.1667 28.375H21.6667C22.145 28.375 22.5417 28.7717 22.5417 29.25C22.5417 29.7284 22.145 30.125 21.6667 30.125ZM21.6667 24.875H18.1667C17.6883 24.875 17.2917 24.4784 17.2917 24C17.2917 23.5217 17.6883 23.125 18.1667 23.125H21.6667C22.145 23.125 22.5417 23.5217 22.5417 24C22.5417 24.4784 22.145 24.875 21.6667 24.875ZM21.6667 19.625H18.1667C17.6883 19.625 17.2917 19.2284 17.2917 18.75C17.2917 18.2717 17.6883 17.875 18.1667 17.875H21.6667C22.145 17.875 22.5417 18.2717 22.5417 18.75C22.5417 19.2284 22.145 19.625 21.6667 19.625ZM29.8333 30.125H26.3333C25.855 30.125 25.4583 29.7284 25.4583 29.25C25.4583 28.7717 25.855 28.375 26.3333 28.375H29.8333C30.3117 28.375 30.7083 28.7717 30.7083 29.25C30.7083 29.7284 30.3117 30.125 29.8333 30.125ZM29.8333 24.875H26.3333C25.855 24.875 25.4583 24.4784 25.4583 24C25.4583 23.5217 25.855 23.125 26.3333 23.125H29.8333C30.3117 23.125 30.7083 23.5217 30.7083 24C30.7083 24.4784 30.3117 24.875 29.8333 24.875ZM29.8333 19.625H26.3333C25.855 19.625 25.4583 19.2284 25.4583 18.75C25.4583 18.2717 25.855 17.875 26.3333 17.875H29.8333C30.3117 17.875 30.7083 18.2717 30.7083 18.75C30.7083 19.2284 30.3117 19.625 29.8333 19.625Z" fill="#292D32"/>
</svg>
