<svg width="42" height="44" viewBox="0 0 42 44" fill="none" xmlns="http://www.w3.org/2000/svg">
<rect width="42" height="44" rx="4" fill="#C2C6F7" fill-opacity="0.2"/>
<path d="M27.0204 22.33L25.8004 21.11C25.5104 20.86 25.3404 20.49 25.3304 20.08C25.3104 19.63 25.4904 19.18 25.8204 18.85L27.0204 17.65C28.0604 16.61 28.4504 15.61 28.1204 14.82C27.8004 14.04 26.8104 13.61 25.3504 13.61H14.9004V12.75C14.9004 12.34 14.5604 12 14.1504 12C13.7404 12 13.4004 12.34 13.4004 12.75V31.25C13.4004 31.66 13.7404 32 14.1504 32C14.5604 32 14.9004 31.66 14.9004 31.25V26.37H25.3504C26.7904 26.37 27.7604 25.93 28.0904 25.14C28.4204 24.35 28.0404 23.36 27.0204 22.33Z" fill="#418FDE"/>
</svg>
