<?xml version="1.0" encoding="UTF-8"?>
<svg width="200" height="40" viewBox="0 0 200 40" fill="none" xmlns="http://www.w3.org/2000/svg">
<mask id="path-1-inside-1_2076_507" fill="white">
<path d="M0 0H200V40H0V0Z"/>
</mask>
<path d="M0 0H200V40H0V0Z" fill="white"/>
<path d="M200 0H199.25V40H200H200.75V0H200Z" fill="#DADAE0" mask="url(#path-1-inside-1_2076_507)"/>
<path d="M148 6.74545L145.169 8.24607L142.019 14.6463H140.426L139.984 15.5322H141.559C141.01 16.6532 140.621 17.4487 140.32 18.0453C137.259 22.1133 135.153 23.8851 133.631 23.6139C132.587 23.415 132.145 22.0048 132.463 20.3234C133.596 20.1426 136.427 19.329 137.807 17.521C139.594 15.1887 137.453 13.2723 134.463 15.0079C132.799 15.9842 131.295 17.6656 130.623 20.0341C130.481 20.5222 130.393 20.9923 130.357 21.4082C129.897 21.9686 129.101 22.8907 128.198 23.415C127.03 24.102 126.287 23.6501 126.783 22.2941C127.42 20.5403 129.331 18.2261 129.756 16.2193C130.163 14.357 128.57 13.3988 126.588 14.9718C125.774 15.6226 124.925 16.7074 124.093 17.8103C124.022 17.9007 123.951 17.8464 124.004 17.756C124.73 16.4181 125.668 14.6282 125.668 14.6282H121.969L121.527 15.5322H123.084L121.846 18.0453C118.784 22.1133 116.625 23.867 115.103 23.5958C114.059 23.3969 113.617 21.9867 113.935 20.3053C115.068 20.1245 117.899 19.3109 119.28 17.5029C121.155 15.0622 118.82 13.3084 115.935 14.9898C114.272 15.9661 112.768 17.6476 112.095 20.016C110.856 24.2467 113.67 25.9823 117.138 23.7405C118.43 22.9088 119.74 21.4986 120.678 20.2691C120.748 20.1787 120.819 20.2149 120.766 20.3234L118.82 24.319H120.855C120.855 24.319 123.916 17.8645 126.8 15.4961C127.473 14.9356 128.623 14.7186 127.915 16.382C127.119 18.2623 125.933 19.5279 125.137 21.6974C124.394 23.7585 125.544 25.1688 127.632 24.2828C128.694 23.8309 129.685 22.8365 130.322 22.0771C130.41 24.771 132.817 25.6027 135.648 23.7585C136.869 22.963 138.887 20.5584 139.134 20.2511C139.205 20.1607 139.276 20.2149 139.223 20.3234C139.152 20.4499 139.064 20.6488 138.957 20.8477C137.471 23.9212 139.276 25.7473 142.054 23.6862C143.735 22.4025 145.045 20.3234 145.045 20.3234V19.6363C145.045 19.6363 143.258 22.3302 141.523 23.3608C139.948 24.3009 139.931 23.0353 140.515 21.7878C141.205 20.3053 141.205 20.3053 143.576 15.5684H146.213L146.655 14.6644H144.036L148 6.74545ZM135.047 15.5684C136.215 14.5017 137.276 14.791 136.763 16.2373C135.79 18.8227 132.64 19.6725 132.64 19.6725C132.64 19.6725 133.118 17.3402 135.047 15.5684ZM116.519 15.5684C117.687 14.5017 118.749 14.791 118.236 16.2373C117.262 18.8227 114.112 19.6725 114.112 19.6725C114.112 19.6725 114.59 17.3221 116.519 15.5684ZM128.641 8.26415C127.243 6.09457 125.208 5.31714 123.261 5.31714C118.536 5.13634 114.342 9.05966 109.264 15.5503C109.264 15.5503 108.644 16.3639 107.512 17.8645C107.193 17.1956 106.946 16.6713 106.822 16.4181C106.592 15.9481 106.822 15.5684 107.37 15.5684H107.76L108.202 14.6644H103.813L103.371 15.5684H104.026C104.486 15.5684 104.734 15.5684 105.017 16.1831C105.265 16.7074 105.848 17.9549 106.45 19.2386C105.884 19.9799 105.247 20.8296 104.521 21.7698C99.8319 27.8807 95.2487 32.5815 90.9663 32.6176C89.3913 32.6357 87.7102 31.9848 86.3653 30.5927C86.2415 30.4661 86.1353 30.5385 86.2415 30.7554C86.5954 31.4967 88.6304 33.6482 91.621 33.6482C95.8857 33.6482 100.557 29.7068 105.388 23.3608C106.079 22.4568 106.716 21.6613 107.264 20.9562C107.636 21.7517 107.937 22.3664 108.025 22.5833C108.255 23.0534 108.025 23.4331 107.476 23.4331H107.087L106.645 24.3371H111.016L111.458 23.4331H110.803C110.343 23.4331 110.095 23.4331 109.812 22.8184C109.671 22.511 108.981 21.0466 108.291 19.5821C109.547 17.9368 110.149 17.1594 110.149 17.1594C114.997 10.7772 119.439 5.94993 124.164 6.23921C125.579 6.23921 127.349 7.12512 128.411 8.40879C128.694 8.73422 128.853 8.60766 128.641 8.26415ZM102.309 12.6756C102.787 13.0191 103.513 12.8022 103.92 12.1694C104.344 11.5366 104.291 10.7592 103.813 10.4156C103.336 10.0721 102.61 10.2891 102.185 10.9219C101.778 11.5366 101.832 12.3321 102.309 12.6756ZM82.313 11.3377C81.3043 10.9761 78.5615 12.1332 77.4289 16.4724C77.0219 16.5809 75.5355 16.8521 74.9515 16.9063C78.2783 10.7411 79.871 8.19183 84.2595 6.27537L84.1357 5.8957C80.1895 6.90816 77.4289 8.24607 74.6684 12.8383C74.0136 13.9231 72.7041 16.2012 72.2264 17.1052C70.9877 17.2317 68.9703 17.3764 67.13 17.6656C62.1751 18.4431 60.6356 21.2274 60.6356 23.2161C60.6356 25.7111 62.0689 27.3745 62.0689 27.3745H62.6352C60.6179 23.1077 63.5377 19.9799 67.3069 18.9493C68.2448 18.6058 69.6782 18.3708 71.6778 18.0453C68.8111 23.2704 64.5641 30.9543 61.7858 34.0098C57.468 38.8009 53.5041 34.4075 54.6898 31.1532C56.0347 27.4468 60.6356 28.6401 60.6356 28.6401L61.1311 28.2604C56.831 26.7959 52 28.0073 52 32.4188C52 35.0222 54.3182 36.7398 56.5832 36.9568C61.2195 37.4088 64.7587 34.3171 68.9172 27.6095C71.5539 23.3608 72.9165 20.8296 74.5091 17.7199C75.4647 17.5933 76.4557 17.3944 77.2166 17.2136C76.7919 19.329 76.845 20.8477 76.845 20.8477L77.5528 20.5765C77.5528 20.5765 77.5705 18.6239 77.9775 17.0509C82.3661 15.6226 83.4986 11.7716 82.313 11.3377ZM78.2253 16.2373C78.7561 14.1762 80.2249 12.5129 80.9858 12.8383C81.7467 13.1819 80.4018 15.4961 78.2253 16.2373ZM64.1924 15.0983C68.8288 15.0983 69.5543 10.488 68.5987 7.37824C67.8024 8.08335 66.6168 8.80654 65.5373 9.25854C66.7937 10.5241 67.2007 13.3084 65.148 14.1039C61.5558 15.4961 58.0166 8.60766 64.3517 5.91377C65.4665 5.4437 67.537 4.81091 74.3676 4.95555C84.1534 5.1725 90.6831 5.85954 94.417 5.75106C96.8236 5.58834 98.487 5.06402 99.7434 3.79844C98.2393 4.14196 96.9829 4.26851 94.063 4.12388C78.7738 3.36452 66.7583 1.57462 62.0689 5.15442C57.6273 8.53535 59.503 15.0983 64.1924 15.0983ZM94.5939 23.7405C95.9742 22.8365 97.1775 21.4082 97.7615 20.6669C97.8323 20.5946 97.8853 20.6126 97.85 20.7211C96.3104 24.1744 98.2747 25.5665 100.734 23.867C102.681 22.4206 103.937 20.2691 103.937 20.2691V19.5821C103.937 19.5821 102.115 22.3302 100.434 23.3608C99.301 24.0478 98.8232 23.7405 99.1241 22.2941C99.2656 21.589 99.7611 20.5222 100.257 19.5821C102.451 15.4961 102.893 14.6825 102.893 14.6825H99.2125L98.7701 15.5865H100.327L98.7701 18.7866C96.0981 22.2037 94.0453 23.9393 92.5412 23.6501C91.4971 23.4512 90.984 22.041 91.4618 19.9799C92.1519 19.9075 95.3371 19.3651 96.7174 17.5572C98.5047 15.2249 96.3635 13.3084 93.3729 15.0441C91.7095 16.0204 90.5416 17.4125 89.7099 19.4555C89.0728 19.3832 88.6481 19.0939 88.6304 18.3527C88.5773 16.7436 89.8514 14.3932 89.8514 14.3932C89.8514 14.3932 89.6922 14.357 88.9312 14.4113C88.2942 14.4655 88.1703 14.5378 87.7633 14.8994C86.8785 15.6769 85.6752 16.9063 83.9764 19.4375C83.9056 19.5459 83.8171 19.4917 83.8879 19.3651C84.6842 17.8826 86.4007 14.6825 86.4007 14.6825H82.8616L82.4192 15.5865H83.9764L80.1364 23.4331H79.1631L78.7207 24.3371H82.5077L82.9854 23.4331H81.9945C84.2241 19.2567 86.0822 17.286 87.2324 16.0565C87.1794 16.2373 85.6575 20.3776 89.5152 20.0341C88.2765 24.4094 91.1963 25.9823 94.5939 23.7405ZM93.9215 15.5684C95.0894 14.4836 96.1512 14.791 95.638 16.2373C94.6647 18.8227 91.6033 19.329 91.6033 19.329C91.6033 19.329 92.1696 17.1775 93.9215 15.5684Z" fill="black"/>
</svg>
