<?xml version="1.0" encoding="UTF-8"?>
<svg width="200" height="40" viewBox="0 0 200 40" fill="none" xmlns="http://www.w3.org/2000/svg">
<mask id="path-1-inside-1_2076_509" fill="white">
<path d="M0 0H200V40H0V0Z"/>
</mask>
<path d="M0 0H200V40H0V0Z" fill="white"/>
<path d="M200 0H199.25V40H200H200.75V0H200Z" fill="#DADAE0" mask="url(#path-1-inside-1_2076_509)"/>
<path fill-rule="evenodd" clip-rule="evenodd" d="M132.185 31.7489L131.696 35.4553L146.127 31.9937L148 24.8771C147.308 24.2888 146.752 23.557 146.371 22.7324C145.991 21.9077 145.794 21.0101 145.795 20.1018C145.794 19.2087 145.984 18.3257 146.353 17.5122C146.721 16.6987 147.26 15.9734 147.932 15.3851L146.004 8.00679L131.614 4.54468L132.144 8.29158H67.8553L68.3854 4.54468L53.9945 8.00627L52.0672 15.3846C52.7394 15.9728 53.2779 16.698 53.6465 17.5116C54.0151 18.3251 54.2054 19.2082 54.2044 20.1013C54.2044 22.0133 53.349 23.7251 52 24.8765L53.8724 31.9932L68.3043 35.4548L67.8148 31.7484L132.185 31.7489Z" fill="black"/>
<path fill-rule="evenodd" clip-rule="evenodd" d="M133.286 30.7714L132.838 34.1925L145.231 31.2599L146.882 25.1706C145.555 23.8171 144.813 21.9967 144.816 20.1014C144.816 18.1915 145.554 16.4545 146.761 15.1583L145.149 8.73853L132.756 5.76544L133.286 9.26809H66.7136L67.2437 5.76544L54.8505 8.73905L53.2393 15.1589C54.4915 16.4999 55.187 18.267 55.1846 20.1019C55.1868 21.9971 54.4448 23.8175 53.1182 25.1711L54.7694 31.2605L67.1626 34.193L66.7141 30.772L133.286 30.7714Z" fill="white"/>
<path fill-rule="evenodd" clip-rule="evenodd" d="M144.823 30.0387L146.099 25.3446C144.823 23.8962 144.121 22.0318 144.123 20.1019C144.123 18.1248 144.846 16.3165 146.041 14.9259L144.74 10.0019H55.2581L53.9584 14.9259C55.1984 16.365 55.8792 18.2022 55.8765 20.1019C55.8765 22.1103 55.1304 23.9452 53.9004 25.3446L55.1771 30.0387H144.823ZM144.451 30.8202H134.055L133.73 33.4264L144.451 30.8202ZM144.696 9.21986H134.015L133.648 6.57312L144.696 9.21986Z" fill="black"/>
<path fill-rule="evenodd" clip-rule="evenodd" d="M83.7871 15.6505C84.2334 15.6506 84.6615 15.4735 84.9772 15.1581C85.2929 14.8427 85.4704 14.4148 85.4707 13.9685C85.4706 13.7475 85.4269 13.5287 85.3422 13.3247C85.2575 13.1206 85.1335 12.9352 84.9772 12.779C84.8208 12.6229 84.6353 12.499 84.4311 12.4146C84.2269 12.3302 84.0081 12.2868 83.7871 12.2869C83.5661 12.2868 83.3473 12.3302 83.1431 12.4146C82.9389 12.499 82.7534 12.6229 82.5971 12.779C82.4407 12.9352 82.3167 13.1206 82.232 13.3247C82.1473 13.5287 82.1037 13.7475 82.1035 13.9685C82.1038 14.4148 82.2813 14.8427 82.597 15.1581C82.9127 15.4735 83.3408 15.6506 83.7871 15.6505Z" fill="white"/>
<path fill-rule="evenodd" clip-rule="evenodd" d="M55.5485 30.8202H65.944L66.2704 33.4264L55.5485 30.8202ZM55.3037 9.21986H65.9846L66.3515 6.57312L55.3037 9.21986Z" fill="black"/>
<path fill-rule="evenodd" clip-rule="evenodd" d="M65.8309 23.9688C65.8309 24.3763 65.6272 25.3127 64.486 25.4349L64.6081 26.5345H70.3567L70.4378 25.3943C69.8267 25.3533 69.2555 25.0685 69.1745 24.0094V15.3754C69.1745 14.6832 69.1129 13.7462 70.3362 13.7462L70.173 12.606H64.8118L64.6486 13.7462C65.2603 13.7462 65.8309 13.7462 65.8309 15.4565V18.1037H62.3252V15.4565C62.3252 13.7462 62.8552 13.7462 63.4669 13.7462L63.3448 12.606H57.9225L57.7998 13.7462C59.1253 13.7462 58.9821 14.6832 58.9821 15.3754V24.0089C58.9005 25.068 58.3299 25.3528 57.7183 25.3938L57.7998 26.534H63.548L63.6701 25.4343C62.5284 25.3122 62.3247 24.3757 62.3247 23.9683V19.9366H65.8304V23.9688H65.8309ZM85.5403 23.7523C85.5403 24.1597 85.6014 25.3204 86.7431 25.4426L86.621 26.5422H81.2598L81.1782 25.402C81.7898 25.361 82.2789 25.0757 82.3604 24.0171V19.13C82.3604 18.4373 82.2383 17.5824 81.3414 17.5008L81.464 16.3606H85.5403V23.7523ZM74.0231 16.3196C77.7325 15.2199 79.6485 17.9488 80.0565 18.7226C80.4639 19.4964 80.9945 20.3512 79.119 21.2066C77.2435 22.0615 75.4095 22.7137 74.0841 23.0796C74.3289 23.8739 75.1237 25.3194 76.8361 24.9936C78.5479 24.6677 79.0779 23.8529 79.4043 23.5686C79.8933 23.1612 80.2197 23.2833 80.4639 23.6091C80.7082 23.935 80.8344 24.3799 80.2602 24.912C79.6896 25.4415 78.4257 26.826 76.2244 26.826C74.0231 26.826 71.6585 25.4821 70.9248 23.3238C70.191 21.1661 70.5989 17.4603 74.0231 16.3196Z" fill="white"/>
<path fill-rule="evenodd" clip-rule="evenodd" d="M74.8179 17.8394C75.7354 17.493 76.8361 17.6357 77.3251 19.1017C77.8141 20.5677 76.8561 20.6903 76.5303 20.8119C76.2039 20.9341 75.5148 21.2337 75.0627 21.3415C74.2068 21.5447 73.7378 21.4836 73.7378 20.344C73.7378 19.2038 74.1863 18.1857 74.8179 17.8394Z" fill="black"/>
<path fill-rule="evenodd" clip-rule="evenodd" d="M116.256 17.7763C116.129 17.3956 115.869 17.1329 115.353 17.0857L115.475 15.9455H119.878L120.041 17.0857C119.715 17.2078 119.185 17.371 118.533 18.0632C118.574 18.1037 116.861 19.6919 116.861 19.6919L119.562 24.6554C119.802 25.0315 120.183 25.3728 120.755 25.4343L120.632 26.534H117.31L114.782 21.8506C114.741 21.8101 113.885 22.665 113.885 22.665V23.7446C113.885 24.152 113.946 25.3127 115.088 25.4349L114.966 26.5345H109.605L109.523 25.3943C110.134 25.3533 110.624 25.0685 110.706 24.0094V15.3754C110.706 14.6832 110.584 13.8278 109.687 13.7462L109.809 12.606H113.886V20.1409L116.256 17.7763ZM92.0022 16.3601H88.0885L87.9664 17.5003C88.8634 17.5819 88.9855 18.4373 88.9855 19.1295V24.0166C88.9039 25.0751 88.4149 25.3599 87.8032 25.401L87.8848 26.5417H93.0828L93.205 25.4415C92.0638 25.3194 92.0022 24.1587 92.0022 23.7513V19.6175C92.0432 19.0884 92.5122 18.1925 93.4903 18.1925C94.4688 18.1925 94.5299 19.2106 94.5299 19.8212V24.5456C94.5299 25.3194 94.8968 26.6633 96.7317 26.6633C98.5662 26.6633 98.6883 25.849 98.8515 25.6452C99.0147 25.442 99.0552 25.1162 98.8925 24.953C98.7299 24.7898 98.4595 24.6636 98.2809 24.8714C98.0977 25.0854 97.7831 25.1608 97.6697 25.1162C97.466 25.0346 97.466 24.6682 97.466 24.3829V18.8036C97.466 17.8261 97.2623 17.0523 96.3654 16.4412C95.4684 15.8305 94.2861 16.0343 93.7566 16.238C93.2265 16.4412 92.6559 16.8081 92.289 17.0934L92.0022 16.3601ZM124.186 16.3196C127.896 15.2199 129.813 17.9488 130.221 18.7226C130.628 19.4964 131.158 20.3512 129.283 21.2066C127.408 22.0615 125.573 22.7137 124.248 23.0796C124.493 23.8739 125.288 25.3194 127 24.9936C128.712 24.6677 129.242 23.8529 129.569 23.5686C130.058 23.1612 130.384 23.2833 130.628 23.6091C130.872 23.935 130.998 24.3799 130.425 24.912C129.853 25.4415 128.59 26.826 126.389 26.826C124.187 26.826 121.823 25.4821 121.089 23.3238C120.355 21.1661 120.763 17.4603 124.186 16.3196ZM102.516 16.3196C106.225 15.2199 108.141 17.9488 108.549 18.7226C108.957 19.4964 109.486 20.3512 107.611 21.2066C105.736 22.0615 103.902 22.7137 102.577 23.0796C102.822 23.8739 103.616 25.3194 105.328 24.9936C107.041 24.6677 107.571 23.8529 107.896 23.5686C108.385 23.1612 108.711 23.2833 108.957 23.6091C109.201 23.935 109.327 24.3799 108.752 24.912C108.182 25.4415 106.918 26.826 104.717 26.826C102.516 26.826 100.151 25.4821 99.417 23.3238C98.6837 21.1661 99.0911 17.4603 102.516 16.3196Z" fill="white"/>
<path fill-rule="evenodd" clip-rule="evenodd" d="M124.981 17.8394C125.899 17.493 127 17.6357 127.489 19.1017C127.978 20.5677 127.02 20.6903 126.694 20.8119C126.367 20.9341 125.679 21.2337 125.226 21.3415C124.37 21.5447 123.902 21.4836 123.902 20.344C123.902 19.2038 124.35 18.1857 124.981 17.8394ZM103.311 17.8394C104.228 17.493 105.328 17.6357 105.817 19.1017C106.306 20.5677 105.349 20.6903 105.022 20.8119C104.697 20.9341 104.007 21.2337 103.555 21.3415C102.698 21.5447 102.23 21.4836 102.23 20.344C102.23 19.2038 102.678 18.1857 103.311 17.8394Z" fill="black"/>
<path fill-rule="evenodd" clip-rule="evenodd" d="M135.476 16.3601H131.562L131.44 17.5003C132.337 17.5819 132.459 18.4373 132.459 19.1295V24.0166C132.378 25.0752 131.889 25.36 131.277 25.401L131.358 26.5417H136.556L136.678 25.4416C135.536 25.3195 135.475 24.1587 135.475 23.7513V19.6175C135.516 19.0885 135.985 18.1925 136.963 18.1925C137.941 18.1925 138.002 19.2106 138.002 19.8212V24.5456C138.002 25.3194 138.369 26.6633 140.204 26.6633C142.038 26.6633 142.16 25.849 142.324 25.6453C142.487 25.4421 142.527 25.1162 142.365 24.9531C142.202 24.7904 141.932 24.6637 141.754 24.8715C141.571 25.0855 141.256 25.1609 141.142 25.1162C140.939 25.0347 140.939 24.6683 140.939 24.383V18.8037C140.939 17.8262 140.735 17.0524 139.838 16.4412C138.94 15.8301 137.758 16.0343 137.228 16.238C136.699 16.4412 136.127 16.8081 135.761 17.0934L135.476 16.3601ZM141.172 15.7074C140.448 15.7074 139.805 15.2082 139.805 14.3497C139.805 13.4912 140.448 12.9919 141.172 12.9919C141.89 12.9919 142.533 13.4912 142.533 14.3497C142.533 15.2082 141.89 15.7074 141.172 15.7074Z" fill="white"/>
<path fill-rule="evenodd" clip-rule="evenodd" d="M141.171 13.2037C140.578 13.2037 140.099 13.662 140.099 14.349C140.099 15.0366 140.578 15.499 141.171 15.4949V15.499C141.748 15.499 142.238 15.0366 142.238 14.349C142.238 13.662 141.748 13.2037 141.171 13.2037Z" fill="black"/>
<path fill-rule="evenodd" clip-rule="evenodd" d="M141.8 15.0789H141.429L141.092 14.4646H140.944V15.0789H140.632V13.6169H141.178C141.555 13.6169 141.778 13.7247 141.778 14.0588C141.778 14.3281 141.62 14.4251 141.425 14.4395L141.8 15.0789Z" fill="white"/>
<path fill-rule="evenodd" clip-rule="evenodd" d="M141.221 14.2157H140.945V13.8636H141.163C141.282 13.8636 141.444 13.8744 141.444 14.0253C141.444 14.1869 141.361 14.2157 141.221 14.2157Z" fill="black"/>
</svg>
