<?xml version="1.0" encoding="UTF-8"?>
<svg width="706" height="438" viewBox="0 0 706 438" fill="none" xmlns="http://www.w3.org/2000/svg">
<path d="M150 438H236.5L543.5 0H511L150 438Z" fill="url(#paint0_linear_34_157)"/>
<path d="M317.5 232.5L306 247.435L0.50003 247.435L8.8092 233.936L317.5 232.5Z" fill="url(#paint1_linear_34_157)"/>
<path d="M243.5 323.5L226 345L-10.5 345L-13.691 319.5L243.5 323.5Z" fill="url(#paint2_linear_34_157)"/>
<g filter="url(#filter0_d_34_157)">
<path d="M168.2 338L175.56 326.8H176.728L179.608 338H178.424L175.8 327.456H176.28L169.48 338H168.2ZM170.808 335.008L171.352 334.048H177.864L178.04 335.008H170.808ZM184.157 341.184C183.378 341.184 182.669 341.072 182.029 340.848C181.389 340.635 180.85 340.325 180.413 339.92L181.085 339.056C181.426 339.397 181.869 339.669 182.413 339.872C182.967 340.075 183.575 340.176 184.237 340.176C185.303 340.176 186.13 339.931 186.717 339.44C187.303 338.949 187.693 338.192 187.885 337.168L188.333 334.96L188.765 333.584L188.941 332.144L189.437 329.6H190.525L189.053 336.976C188.765 338.459 188.221 339.531 187.421 340.192C186.621 340.853 185.533 341.184 184.157 341.184ZM184.717 337.68C183.981 337.68 183.33 337.541 182.765 337.264C182.21 336.987 181.778 336.597 181.469 336.096C181.159 335.584 181.005 334.981 181.005 334.288C181.005 333.605 181.122 332.976 181.357 332.4C181.591 331.824 181.922 331.323 182.349 330.896C182.775 330.459 183.282 330.123 183.869 329.888C184.455 329.643 185.101 329.52 185.805 329.52C186.477 329.52 187.074 329.637 187.597 329.872C188.119 330.107 188.53 330.459 188.829 330.928C189.138 331.397 189.293 331.995 189.293 332.72C189.303 333.637 189.122 334.475 188.749 335.232C188.375 335.979 187.847 336.576 187.165 337.024C186.482 337.461 185.666 337.68 184.717 337.68ZM184.941 336.672C185.645 336.672 186.269 336.512 186.813 336.192C187.367 335.872 187.805 335.435 188.125 334.88C188.445 334.315 188.605 333.675 188.605 332.96C188.605 332.192 188.359 331.595 187.869 331.168C187.378 330.731 186.695 330.512 185.821 330.512C185.117 330.512 184.487 330.672 183.933 330.992C183.378 331.312 182.941 331.755 182.621 332.32C182.311 332.875 182.157 333.509 182.157 334.224C182.157 334.992 182.402 335.595 182.893 336.032C183.383 336.459 184.066 336.672 184.941 336.672ZM191.916 338L193.58 329.6H194.716L193.052 338H191.916ZM194.636 327.744C194.412 327.744 194.225 327.669 194.076 327.52C193.937 327.371 193.868 327.195 193.868 326.992C193.868 326.757 193.948 326.555 194.108 326.384C194.278 326.213 194.492 326.128 194.748 326.128C194.972 326.128 195.158 326.197 195.308 326.336C195.457 326.475 195.532 326.651 195.532 326.864C195.532 327.12 195.446 327.333 195.276 327.504C195.105 327.664 194.892 327.744 194.636 327.744ZM196.123 338L198.491 326.128H199.627L197.259 338H196.123ZM200.329 338L201.993 329.6H203.129L201.465 338H200.329ZM203.049 327.744C202.825 327.744 202.639 327.669 202.489 327.52C202.351 327.371 202.281 327.195 202.281 326.992C202.281 326.757 202.361 326.555 202.521 326.384C202.692 326.213 202.905 326.128 203.161 326.128C203.385 326.128 203.572 326.197 203.721 326.336C203.871 326.475 203.945 326.651 203.945 326.864C203.945 327.12 203.86 327.333 203.689 327.504C203.519 327.664 203.305 327.744 203.049 327.744ZM207.208 338.08C206.728 338.08 206.318 337.979 205.976 337.776C205.635 337.563 205.395 337.264 205.256 336.88C205.128 336.496 205.118 336.037 205.224 335.504L206.76 327.744H207.896L206.36 335.456C206.254 335.979 206.291 336.384 206.472 336.672C206.664 336.96 207.011 337.104 207.512 337.104C207.747 337.104 207.976 337.072 208.2 337.008C208.424 336.933 208.627 336.821 208.808 336.672L209.08 337.536C208.814 337.739 208.515 337.883 208.184 337.968C207.854 338.043 207.528 338.08 207.208 338.08ZM204.712 330.544L204.888 329.6H210.088L209.896 330.544H204.712ZM210.358 341.184C209.963 341.184 209.585 341.115 209.222 340.976C208.859 340.848 208.571 340.667 208.358 340.432L208.966 339.6C209.147 339.792 209.361 339.941 209.606 340.048C209.851 340.155 210.129 340.208 210.438 340.208C210.801 340.208 211.131 340.107 211.43 339.904C211.739 339.712 212.059 339.36 212.39 338.848L213.238 337.552L213.382 337.392L218.374 329.6H219.542L213.398 339.088C213.046 339.621 212.715 340.037 212.406 340.336C212.097 340.645 211.777 340.864 211.446 340.992C211.126 341.12 210.763 341.184 210.358 341.184ZM213.046 338.24L210.886 329.6H212.038L213.926 337.312L213.046 338.24Z" fill="#418FDE"/>
</g>
<path d="M332.5 302L345.894 284L687 284L683 302L332.5 302Z" fill="url(#paint3_linear_34_157)"/>
<g filter="url(#filter1_d_34_157)">
<path d="M357.2 291.224H363.12L362.912 292.248H356.976L357.2 291.224ZM356.16 297H354.992L357.232 285.8H364.912L364.704 286.824H358.192L356.16 297ZM368.25 297.08C367.471 297.08 366.794 296.936 366.218 296.648C365.652 296.349 365.21 295.933 364.89 295.4C364.58 294.867 364.426 294.237 364.426 293.512C364.426 292.552 364.634 291.699 365.05 290.952C365.466 290.195 366.042 289.603 366.778 289.176C367.514 288.739 368.351 288.52 369.29 288.52C370.068 288.52 370.74 288.664 371.306 288.952C371.882 289.24 372.324 289.651 372.634 290.184C372.954 290.717 373.114 291.347 373.114 292.072C373.114 293.032 372.906 293.891 372.49 294.648C372.074 295.395 371.498 295.987 370.762 296.424C370.036 296.861 369.199 297.08 368.25 297.08ZM368.33 296.072C369.034 296.072 369.658 295.907 370.202 295.576C370.756 295.235 371.188 294.765 371.498 294.168C371.818 293.571 371.978 292.893 371.978 292.136C371.978 291.304 371.732 290.659 371.242 290.2C370.762 289.741 370.084 289.512 369.21 289.512C368.516 289.512 367.892 289.683 367.338 290.024C366.783 290.365 366.346 290.835 366.026 291.432C365.716 292.019 365.562 292.696 365.562 293.464C365.562 294.285 365.802 294.925 366.282 295.384C366.772 295.843 367.455 296.072 368.33 296.072ZM374.447 297L376.111 288.6H377.199L376.719 291.08L376.591 290.648C376.964 289.912 377.455 289.373 378.063 289.032C378.682 288.691 379.45 288.52 380.367 288.52L380.159 289.624C380.106 289.624 380.052 289.624 379.999 289.624C379.956 289.613 379.903 289.608 379.839 289.608C378.943 289.608 378.202 289.869 377.615 290.392C377.039 290.904 376.644 291.683 376.431 292.728L375.583 297H374.447ZM384.416 297.08C383.616 297.08 382.917 296.936 382.32 296.648C381.733 296.349 381.28 295.933 380.96 295.4C380.65 294.867 380.496 294.232 380.496 293.496C380.496 292.536 380.698 291.683 381.104 290.936C381.509 290.189 382.064 289.603 382.768 289.176C383.472 288.739 384.266 288.52 385.152 288.52C385.898 288.52 386.544 288.664 387.088 288.952C387.632 289.229 388.053 289.635 388.352 290.168C388.661 290.701 388.816 291.341 388.816 292.088C388.816 292.259 388.805 292.435 388.784 292.616C388.762 292.787 388.736 292.952 388.704 293.112H381.328L381.472 292.264H388.176L387.712 292.584C387.818 291.912 387.77 291.347 387.568 290.888C387.365 290.429 387.05 290.083 386.624 289.848C386.208 289.603 385.706 289.48 385.12 289.48C384.437 289.48 383.829 289.651 383.296 289.992C382.762 290.323 382.346 290.787 382.048 291.384C381.749 291.971 381.6 292.659 381.6 293.448C381.6 294.291 381.84 294.941 382.32 295.4C382.81 295.848 383.541 296.072 384.512 296.072C385.077 296.072 385.6 295.981 386.08 295.8C386.56 295.608 386.954 295.347 387.264 295.016L387.776 295.832C387.381 296.227 386.885 296.536 386.288 296.76C385.701 296.973 385.077 297.08 384.416 297.08ZM392.59 297.08C391.907 297.08 391.262 296.984 390.654 296.792C390.046 296.6 389.577 296.355 389.246 296.056L389.79 295.16C390.11 295.448 390.531 295.677 391.054 295.848C391.577 296.008 392.126 296.088 392.702 296.088C393.502 296.088 394.115 295.955 394.542 295.688C394.979 295.421 395.198 295.053 395.198 294.584C395.198 294.264 395.081 294.024 394.846 293.864C394.622 293.693 394.329 293.565 393.966 293.48C393.603 293.384 393.219 293.293 392.814 293.208C392.409 293.123 392.025 293.016 391.662 292.888C391.299 292.749 391.001 292.541 390.766 292.264C390.542 291.987 390.43 291.613 390.43 291.144C390.43 290.611 390.579 290.147 390.878 289.752C391.187 289.357 391.614 289.053 392.158 288.84C392.702 288.627 393.342 288.52 394.078 288.52C394.611 288.52 395.139 288.589 395.662 288.728C396.185 288.867 396.606 289.059 396.926 289.304L396.446 290.216C396.115 289.96 395.731 289.779 395.294 289.672C394.857 289.555 394.419 289.496 393.982 289.496C393.203 289.496 392.601 289.64 392.174 289.928C391.758 290.205 391.55 290.573 391.55 291.032C391.55 291.352 391.662 291.597 391.886 291.768C392.121 291.939 392.419 292.072 392.782 292.168C393.145 292.264 393.529 292.355 393.934 292.44C394.35 292.515 394.734 292.621 395.086 292.76C395.449 292.899 395.742 293.101 395.966 293.368C396.201 293.624 396.318 293.987 396.318 294.456C396.318 295.011 396.163 295.485 395.854 295.88C395.545 296.264 395.107 296.563 394.542 296.776C393.987 296.979 393.337 297.08 392.59 297.08ZM397.864 297L399.528 288.6H400.664L399 297H397.864ZM400.584 286.744C400.36 286.744 400.174 286.669 400.024 286.52C399.886 286.371 399.816 286.195 399.816 285.992C399.816 285.757 399.896 285.555 400.056 285.384C400.227 285.213 400.44 285.128 400.696 285.128C400.92 285.128 401.107 285.197 401.256 285.336C401.406 285.475 401.48 285.651 401.48 285.864C401.48 286.12 401.395 286.333 401.224 286.504C401.054 286.664 400.84 286.744 400.584 286.744ZM405.175 300.184C404.397 300.184 403.687 300.072 403.047 299.848C402.407 299.635 401.869 299.325 401.431 298.92L402.103 298.056C402.445 298.397 402.887 298.669 403.431 298.872C403.986 299.075 404.594 299.176 405.255 299.176C406.322 299.176 407.149 298.931 407.735 298.44C408.322 297.949 408.711 297.192 408.903 296.168L409.351 293.96L409.783 292.584L409.959 291.144L410.455 288.6H411.543L410.071 295.976C409.783 297.459 409.239 298.531 408.439 299.192C407.639 299.853 406.551 300.184 405.175 300.184ZM405.735 296.68C404.999 296.68 404.349 296.541 403.783 296.264C403.229 295.987 402.797 295.597 402.487 295.096C402.178 294.584 402.023 293.981 402.023 293.288C402.023 292.605 402.141 291.976 402.375 291.4C402.61 290.824 402.941 290.323 403.367 289.896C403.794 289.459 404.301 289.123 404.887 288.888C405.474 288.643 406.119 288.52 406.823 288.52C407.495 288.52 408.093 288.637 408.615 288.872C409.138 289.107 409.549 289.459 409.847 289.928C410.157 290.397 410.311 290.995 410.311 291.72C410.322 292.637 410.141 293.475 409.767 294.232C409.394 294.979 408.866 295.576 408.183 296.024C407.501 296.461 406.685 296.68 405.735 296.68ZM405.959 295.672C406.663 295.672 407.287 295.512 407.831 295.192C408.386 294.872 408.823 294.435 409.143 293.88C409.463 293.315 409.623 292.675 409.623 291.96C409.623 291.192 409.378 290.595 408.887 290.168C408.397 289.731 407.714 289.512 406.839 289.512C406.135 289.512 405.506 289.672 404.951 289.992C404.397 290.312 403.959 290.755 403.639 291.32C403.33 291.875 403.175 292.509 403.175 293.224C403.175 293.992 403.421 294.595 403.911 295.032C404.402 295.459 405.085 295.672 405.959 295.672ZM418.71 288.52C419.468 288.52 420.086 288.669 420.566 288.968C421.057 289.256 421.393 289.677 421.574 290.232C421.766 290.787 421.782 291.448 421.622 292.216L420.662 297H419.526L420.486 292.2C420.657 291.368 420.566 290.717 420.214 290.248C419.873 289.779 419.265 289.544 418.39 289.544C417.494 289.544 416.748 289.789 416.15 290.28C415.564 290.771 415.169 291.507 414.966 292.488L414.07 297H412.934L415.302 285.128H416.438L415.254 291.016L414.966 290.6C415.372 289.875 415.894 289.347 416.534 289.016C417.185 288.685 417.91 288.52 418.71 288.52ZM426.329 297.08C425.849 297.08 425.438 296.979 425.097 296.776C424.756 296.563 424.516 296.264 424.377 295.88C424.249 295.496 424.238 295.037 424.345 294.504L425.881 286.744H427.017L425.481 294.456C425.374 294.979 425.412 295.384 425.593 295.672C425.785 295.96 426.132 296.104 426.633 296.104C426.868 296.104 427.097 296.072 427.321 296.008C427.545 295.933 427.748 295.821 427.929 295.672L428.201 296.536C427.934 296.739 427.636 296.883 427.305 296.968C426.974 297.043 426.649 297.08 426.329 297.08ZM423.833 289.544L424.009 288.6H429.209L429.017 289.544H423.833Z" fill="#418FDE"/>
</g>
<g filter="url(#filter2_d_34_157)">
<path d="M251.256 246.096C250.147 246.096 249.203 245.904 248.424 245.52C247.645 245.125 247.048 244.581 246.632 243.888C246.227 243.184 246.024 242.368 246.024 241.44C246.024 240.523 246.179 239.659 246.488 238.848C246.808 238.037 247.261 237.323 247.848 236.704C248.445 236.075 249.16 235.584 249.992 235.232C250.835 234.88 251.784 234.704 252.84 234.704C253.736 234.704 254.531 234.843 255.224 235.12C255.917 235.397 256.451 235.803 256.824 236.336L255.992 237.072C255.64 236.635 255.197 236.309 254.664 236.096C254.131 235.872 253.491 235.76 252.744 235.76C251.901 235.76 251.133 235.909 250.44 236.208C249.757 236.496 249.176 236.901 248.696 237.424C248.216 237.947 247.843 238.549 247.576 239.232C247.32 239.904 247.192 240.624 247.192 241.392C247.192 242.107 247.347 242.741 247.656 243.296C247.976 243.84 248.445 244.267 249.064 244.576C249.683 244.885 250.44 245.04 251.336 245.04C252.072 245.04 252.739 244.928 253.336 244.704C253.933 244.48 254.456 244.149 254.904 243.712L255.592 244.496C255.101 245.019 254.477 245.419 253.72 245.696C252.963 245.963 252.141 246.096 251.256 246.096ZM257.162 246L259.53 234.128H260.666L258.298 246H257.162ZM264.953 246.08C264.238 246.08 263.604 245.936 263.049 245.648C262.494 245.36 262.062 244.949 261.753 244.416C261.444 243.883 261.289 243.248 261.289 242.512C261.289 241.797 261.406 241.136 261.641 240.528C261.876 239.92 262.206 239.392 262.633 238.944C263.06 238.485 263.561 238.133 264.137 237.888C264.724 237.643 265.358 237.52 266.041 237.52C266.777 237.52 267.401 237.653 267.913 237.92C268.425 238.176 268.82 238.555 269.097 239.056C269.374 239.547 269.513 240.144 269.513 240.848C269.513 241.861 269.326 242.763 268.953 243.552C268.58 244.341 268.052 244.96 267.369 245.408C266.686 245.856 265.881 246.08 264.953 246.08ZM265.193 245.072C265.897 245.072 266.521 244.907 267.065 244.576C267.62 244.235 268.052 243.765 268.361 243.168C268.681 242.571 268.841 241.893 268.841 241.136C268.841 240.304 268.596 239.659 268.105 239.2C267.625 238.741 266.948 238.512 266.073 238.512C265.38 238.512 264.756 238.683 264.201 239.024C263.646 239.365 263.209 239.835 262.889 240.432C262.58 241.019 262.425 241.696 262.425 242.464C262.425 243.285 262.665 243.925 263.145 244.384C263.636 244.843 264.318 245.072 265.193 245.072ZM267.961 246L268.441 243.584L268.921 241.888L269.081 240.128L269.593 237.6H270.729L269.049 246H267.961ZM272.123 246L273.787 237.6H274.875L274.395 240.08L274.267 239.648C274.64 238.912 275.131 238.373 275.739 238.032C276.357 237.691 277.125 237.52 278.043 237.52L277.835 238.624C277.781 238.624 277.728 238.624 277.675 238.624C277.632 238.613 277.579 238.608 277.515 238.608C276.619 238.608 275.877 238.869 275.291 239.392C274.715 239.904 274.32 240.683 274.107 241.728L273.259 246H272.123ZM278.329 246L279.993 237.6H281.129L279.465 246H278.329ZM281.049 235.744C280.825 235.744 280.639 235.669 280.489 235.52C280.351 235.371 280.281 235.195 280.281 234.992C280.281 234.757 280.361 234.555 280.521 234.384C280.692 234.213 280.905 234.128 281.161 234.128C281.385 234.128 281.572 234.197 281.721 234.336C281.871 234.475 281.945 234.651 281.945 234.864C281.945 235.12 281.86 235.333 281.689 235.504C281.519 235.664 281.305 235.744 281.049 235.744ZM285.208 246.08C284.728 246.08 284.318 245.979 283.976 245.776C283.635 245.563 283.395 245.264 283.256 244.88C283.128 244.496 283.118 244.037 283.224 243.504L284.76 235.744H285.896L284.36 243.456C284.254 243.979 284.291 244.384 284.472 244.672C284.664 244.96 285.011 245.104 285.512 245.104C285.747 245.104 285.976 245.072 286.2 245.008C286.424 244.933 286.627 244.821 286.808 244.672L287.08 245.536C286.814 245.739 286.515 245.883 286.184 245.968C285.854 246.043 285.528 246.08 285.208 246.08ZM282.712 238.544L282.888 237.6H288.088L287.896 238.544H282.712ZM288.358 249.184C287.963 249.184 287.585 249.115 287.222 248.976C286.859 248.848 286.571 248.667 286.358 248.432L286.966 247.6C287.147 247.792 287.361 247.941 287.606 248.048C287.851 248.155 288.129 248.208 288.438 248.208C288.801 248.208 289.131 248.107 289.43 247.904C289.739 247.712 290.059 247.36 290.39 246.848L291.238 245.552L291.382 245.392L296.374 237.6H297.542L291.398 247.088C291.046 247.621 290.715 248.037 290.406 248.336C290.097 248.645 289.777 248.864 289.446 248.992C289.126 249.12 288.763 249.184 288.358 249.184ZM291.046 246.24L288.886 237.6H290.038L291.926 245.312L291.046 246.24Z" fill="#418FDE"/>
</g>
<path d="M400.5 131.999L392.5 142.499L-0.500008 142.5L-0.5 131.999L400.5 131.999Z" fill="url(#paint4_linear_34_157)"/>
<path d="M458 123.565L466 112L706 113.035L704.5 122.535L458 123.565Z" fill="url(#paint5_linear_34_157)"/>
<path d="M292.868 141L294.828 131.2H298.342C299.453 131.2 300.311 131.443 300.918 131.928C301.534 132.413 301.842 133.095 301.842 133.972C301.842 134.812 301.655 135.526 301.282 136.114C300.918 136.693 300.395 137.136 299.714 137.444C299.033 137.752 298.225 137.906 297.292 137.906H294.058L294.618 137.416L293.89 141H292.868ZM294.59 137.5L294.226 136.996H297.306C298.417 136.996 299.275 136.749 299.882 136.254C300.498 135.759 300.806 135.031 300.806 134.07C300.806 133.426 300.587 132.936 300.148 132.6C299.709 132.264 299.079 132.096 298.258 132.096H295.234L295.78 131.578L294.59 137.5ZM305.575 141.07C304.95 141.07 304.394 140.944 303.909 140.692C303.424 140.44 303.046 140.081 302.775 139.614C302.504 139.147 302.369 138.592 302.369 137.948C302.369 137.323 302.472 136.744 302.677 136.212C302.882 135.68 303.172 135.218 303.545 134.826C303.918 134.425 304.357 134.117 304.861 133.902C305.374 133.687 305.93 133.58 306.527 133.58C307.171 133.58 307.717 133.697 308.165 133.93C308.613 134.154 308.958 134.485 309.201 134.924C309.444 135.353 309.565 135.876 309.565 136.492C309.565 137.379 309.402 138.167 309.075 138.858C308.748 139.549 308.286 140.09 307.689 140.482C307.092 140.874 306.387 141.07 305.575 141.07ZM305.785 140.188C306.401 140.188 306.947 140.043 307.423 139.754C307.908 139.455 308.286 139.045 308.557 138.522C308.837 137.999 308.977 137.407 308.977 136.744C308.977 136.016 308.762 135.451 308.333 135.05C307.913 134.649 307.32 134.448 306.555 134.448C305.948 134.448 305.402 134.597 304.917 134.896C304.432 135.195 304.049 135.605 303.769 136.128C303.498 136.641 303.363 137.234 303.363 137.906C303.363 138.625 303.573 139.185 303.993 139.586C304.422 139.987 305.02 140.188 305.785 140.188ZM308.207 141L308.627 138.886L309.047 137.402L309.187 135.862L309.635 133.65H310.629L309.159 141H308.207ZM311.837 141L313.293 133.65H314.245L313.825 135.82L313.713 135.442C314.04 134.798 314.469 134.327 315.001 134.028C315.543 133.729 316.215 133.58 317.017 133.58L316.835 134.546C316.789 134.546 316.742 134.546 316.695 134.546C316.658 134.537 316.611 134.532 316.555 134.532C315.771 134.532 315.123 134.761 314.609 135.218C314.105 135.666 313.76 136.347 313.573 137.262L312.831 141H311.837ZM319.91 141.07C319.49 141.07 319.13 140.981 318.832 140.804C318.533 140.617 318.323 140.356 318.202 140.02C318.09 139.684 318.08 139.283 318.174 138.816L319.518 132.026H320.512L319.168 138.774C319.074 139.231 319.107 139.586 319.266 139.838C319.434 140.09 319.737 140.216 320.176 140.216C320.381 140.216 320.582 140.188 320.778 140.132C320.974 140.067 321.151 139.969 321.31 139.838L321.548 140.594C321.314 140.771 321.053 140.897 320.764 140.972C320.474 141.037 320.19 141.07 319.91 141.07ZM317.726 134.476L317.88 133.65H322.43L322.262 134.476H317.726ZM328.223 133.58C328.886 133.58 329.427 133.711 329.847 133.972C330.276 134.224 330.57 134.593 330.729 135.078C330.897 135.563 330.911 136.142 330.771 136.814L329.931 141H328.937L329.777 136.8C329.926 136.072 329.847 135.503 329.539 135.092C329.24 134.681 328.708 134.476 327.943 134.476C327.159 134.476 326.506 134.691 325.983 135.12C325.47 135.549 325.124 136.193 324.947 137.052L324.163 141H323.169L324.625 133.65H325.577L325.157 135.764L324.947 135.4C325.302 134.765 325.759 134.303 326.319 134.014C326.888 133.725 327.523 133.58 328.223 133.58ZM335.9 141.07C335.2 141.07 334.589 140.944 334.066 140.692C333.553 140.431 333.156 140.067 332.876 139.6C332.605 139.133 332.47 138.578 332.47 137.934C332.47 137.094 332.647 136.347 333.002 135.694C333.357 135.041 333.842 134.527 334.458 134.154C335.074 133.771 335.769 133.58 336.544 133.58C337.197 133.58 337.762 133.706 338.238 133.958C338.714 134.201 339.083 134.555 339.344 135.022C339.615 135.489 339.75 136.049 339.75 136.702C339.75 136.851 339.741 137.005 339.722 137.164C339.703 137.313 339.68 137.458 339.652 137.598H333.198L333.324 136.856H339.19L338.784 137.136C338.877 136.548 338.835 136.053 338.658 135.652C338.481 135.251 338.205 134.947 337.832 134.742C337.468 134.527 337.029 134.42 336.516 134.42C335.919 134.42 335.387 134.569 334.92 134.868C334.453 135.157 334.089 135.563 333.828 136.086C333.567 136.599 333.436 137.201 333.436 137.892C333.436 138.629 333.646 139.199 334.066 139.6C334.495 139.992 335.135 140.188 335.984 140.188C336.479 140.188 336.936 140.109 337.356 139.95C337.776 139.782 338.121 139.553 338.392 139.264L338.84 139.978C338.495 140.323 338.061 140.594 337.538 140.79C337.025 140.977 336.479 141.07 335.9 141.07ZM340.899 141L342.355 133.65H343.307L342.887 135.82L342.775 135.442C343.102 134.798 343.531 134.327 344.063 134.028C344.605 133.729 345.277 133.58 346.079 133.58L345.897 134.546C345.851 134.546 345.804 134.546 345.757 134.546C345.72 134.537 345.673 134.532 345.617 134.532C344.833 134.532 344.185 134.761 343.671 135.218C343.167 135.666 342.822 136.347 342.635 137.262L341.893 141H340.899ZM348.543 141.07C347.946 141.07 347.381 140.986 346.849 140.818C346.317 140.65 345.906 140.435 345.617 140.174L346.093 139.39C346.373 139.642 346.742 139.843 347.199 139.992C347.656 140.132 348.137 140.202 348.641 140.202C349.341 140.202 349.878 140.085 350.251 139.852C350.634 139.619 350.825 139.297 350.825 138.886C350.825 138.606 350.722 138.396 350.517 138.256C350.321 138.107 350.064 137.995 349.747 137.92C349.43 137.836 349.094 137.757 348.739 137.682C348.384 137.607 348.048 137.514 347.731 137.402C347.414 137.281 347.152 137.099 346.947 136.856C346.751 136.613 346.653 136.287 346.653 135.876C346.653 135.409 346.784 135.003 347.045 134.658C347.316 134.313 347.689 134.047 348.165 133.86C348.641 133.673 349.201 133.58 349.845 133.58C350.312 133.58 350.774 133.641 351.231 133.762C351.688 133.883 352.057 134.051 352.337 134.266L351.917 135.064C351.628 134.84 351.292 134.681 350.909 134.588C350.526 134.485 350.144 134.434 349.761 134.434C349.08 134.434 348.552 134.56 348.179 134.812C347.815 135.055 347.633 135.377 347.633 135.778C347.633 136.058 347.731 136.273 347.927 136.422C348.132 136.571 348.394 136.688 348.711 136.772C349.028 136.856 349.364 136.935 349.719 137.01C350.083 137.075 350.419 137.169 350.727 137.29C351.044 137.411 351.301 137.589 351.497 137.822C351.702 138.046 351.805 138.363 351.805 138.774C351.805 139.259 351.67 139.675 351.399 140.02C351.128 140.356 350.746 140.617 350.251 140.804C349.766 140.981 349.196 141.07 348.543 141.07ZM358.201 133.58C358.864 133.58 359.405 133.711 359.825 133.972C360.254 134.224 360.548 134.593 360.707 135.078C360.875 135.563 360.889 136.142 360.749 136.814L359.909 141H358.915L359.755 136.8C359.904 136.072 359.825 135.503 359.517 135.092C359.218 134.681 358.686 134.476 357.921 134.476C357.137 134.476 356.484 134.691 355.961 135.12C355.448 135.549 355.102 136.193 354.925 137.052L354.141 141H353.147L355.219 130.612H356.213L355.177 135.764L354.925 135.4C355.28 134.765 355.737 134.303 356.297 134.014C356.866 133.725 357.501 133.58 358.201 133.58ZM362.518 141L363.974 133.65H364.968L363.512 141H362.518ZM364.898 132.026C364.702 132.026 364.539 131.961 364.408 131.83C364.287 131.699 364.226 131.545 364.226 131.368C364.226 131.163 364.296 130.985 364.436 130.836C364.585 130.687 364.772 130.612 364.996 130.612C365.192 130.612 365.355 130.673 365.486 130.794C365.617 130.915 365.682 131.069 365.682 131.256C365.682 131.48 365.607 131.667 365.458 131.816C365.309 131.956 365.122 132.026 364.898 132.026ZM370.276 141.07C369.641 141.07 369.095 140.958 368.638 140.734C368.19 140.501 367.844 140.169 367.602 139.74C367.368 139.301 367.247 138.774 367.238 138.158C367.238 137.253 367.401 136.459 367.728 135.778C368.054 135.087 368.516 134.551 369.114 134.168C369.711 133.776 370.416 133.58 371.228 133.58C371.862 133.58 372.418 133.706 372.894 133.958C373.379 134.201 373.757 134.555 374.028 135.022C374.308 135.489 374.448 136.044 374.448 136.688C374.448 137.323 374.345 137.906 374.14 138.438C373.934 138.97 373.64 139.432 373.258 139.824C372.884 140.216 372.446 140.524 371.942 140.748C371.438 140.963 370.882 141.07 370.276 141.07ZM365.642 143.716L367.644 133.65H368.596L368.176 135.764L367.77 137.234L367.616 138.774L366.636 143.716H365.642ZM370.262 140.188C370.878 140.188 371.424 140.043 371.9 139.754C372.376 139.455 372.749 139.045 373.02 138.522C373.3 137.999 373.44 137.407 373.44 136.744C373.44 136.016 373.23 135.451 372.81 135.05C372.39 134.649 371.792 134.448 371.018 134.448C370.411 134.448 369.865 134.597 369.38 134.896C368.904 135.195 368.526 135.605 368.246 136.128C367.975 136.641 367.84 137.234 367.84 137.906C367.84 138.625 368.05 139.185 368.47 139.586C368.89 139.987 369.487 140.188 370.262 140.188Z" fill="#B2BBD0"/>
<path d="M483.724 122.084C483.248 122.084 482.777 122.033 482.31 121.93C481.853 121.818 481.437 121.669 481.064 121.482C480.691 121.286 480.392 121.071 480.168 120.838L480.672 120.026C480.896 120.259 481.171 120.465 481.498 120.642C481.834 120.819 482.203 120.959 482.604 121.062C483.005 121.155 483.407 121.202 483.808 121.202C484.387 121.202 484.891 121.127 485.32 120.978C485.759 120.829 486.099 120.609 486.342 120.32C486.585 120.031 486.706 119.681 486.706 119.27C486.706 118.943 486.613 118.682 486.426 118.486C486.239 118.281 485.997 118.117 485.698 117.996C485.399 117.865 485.068 117.749 484.704 117.646C484.34 117.543 483.976 117.431 483.612 117.31C483.248 117.189 482.912 117.039 482.604 116.862C482.305 116.685 482.063 116.451 481.876 116.162C481.699 115.873 481.61 115.509 481.61 115.07C481.61 114.454 481.778 113.927 482.114 113.488C482.45 113.04 482.912 112.699 483.5 112.466C484.088 112.233 484.765 112.116 485.53 112.116C486.109 112.116 486.664 112.186 487.196 112.326C487.737 112.466 488.195 112.676 488.568 112.956L488.134 113.796C487.779 113.535 487.373 113.339 486.916 113.208C486.459 113.068 485.978 112.998 485.474 112.998C484.905 112.998 484.405 113.077 483.976 113.236C483.547 113.395 483.211 113.623 482.968 113.922C482.735 114.211 482.618 114.561 482.618 114.972C482.618 115.299 482.707 115.565 482.884 115.77C483.071 115.975 483.313 116.143 483.612 116.274C483.92 116.405 484.256 116.526 484.62 116.638C484.984 116.741 485.348 116.853 485.712 116.974C486.076 117.086 486.407 117.231 486.706 117.408C487.014 117.576 487.261 117.8 487.448 118.08C487.635 118.351 487.728 118.701 487.728 119.13C487.728 119.755 487.555 120.292 487.21 120.74C486.865 121.179 486.389 121.515 485.782 121.748C485.185 121.972 484.499 122.084 483.724 122.084ZM491.519 122.07C491.099 122.07 490.74 121.981 490.441 121.804C490.143 121.617 489.933 121.356 489.811 121.02C489.699 120.684 489.69 120.283 489.783 119.816L491.127 113.026H492.121L490.777 119.774C490.684 120.231 490.717 120.586 490.875 120.838C491.043 121.09 491.347 121.216 491.785 121.216C491.991 121.216 492.191 121.188 492.387 121.132C492.583 121.067 492.761 120.969 492.919 120.838L493.157 121.594C492.924 121.771 492.663 121.897 492.373 121.972C492.084 122.037 491.799 122.07 491.519 122.07ZM489.335 115.476L489.489 114.65H494.039L493.871 115.476H489.335ZM494.779 122L496.235 114.65H497.187L496.767 116.82L496.655 116.442C496.981 115.798 497.411 115.327 497.943 115.028C498.484 114.729 499.156 114.58 499.959 114.58L499.777 115.546C499.73 115.546 499.683 115.546 499.637 115.546C499.599 115.537 499.553 115.532 499.497 115.532C498.713 115.532 498.064 115.761 497.551 116.218C497.047 116.666 496.701 117.347 496.515 118.262L495.773 122H494.779ZM503.266 122.07C502.641 122.07 502.086 121.944 501.6 121.692C501.115 121.44 500.737 121.081 500.466 120.614C500.196 120.147 500.06 119.592 500.06 118.948C500.06 118.323 500.163 117.744 500.368 117.212C500.574 116.68 500.863 116.218 501.236 115.826C501.61 115.425 502.048 115.117 502.552 114.902C503.066 114.687 503.621 114.58 504.218 114.58C504.862 114.58 505.408 114.697 505.856 114.93C506.304 115.154 506.65 115.485 506.892 115.924C507.135 116.353 507.256 116.876 507.256 117.492C507.256 118.379 507.093 119.167 506.766 119.858C506.44 120.549 505.978 121.09 505.38 121.482C504.783 121.874 504.078 122.07 503.266 122.07ZM503.476 121.188C504.092 121.188 504.638 121.043 505.114 120.754C505.6 120.455 505.978 120.045 506.248 119.522C506.528 118.999 506.668 118.407 506.668 117.744C506.668 117.016 506.454 116.451 506.024 116.05C505.604 115.649 505.012 115.448 504.246 115.448C503.64 115.448 503.094 115.597 502.608 115.896C502.123 116.195 501.74 116.605 501.46 117.128C501.19 117.641 501.054 118.234 501.054 118.906C501.054 119.625 501.264 120.185 501.684 120.586C502.114 120.987 502.711 121.188 503.476 121.188ZM505.898 122L506.318 119.886L506.738 118.402L506.878 116.862L507.326 114.65H508.32L506.85 122H505.898ZM511.866 122.07C511.446 122.07 511.087 121.981 510.788 121.804C510.49 121.617 510.28 121.356 510.158 121.02C510.046 120.684 510.037 120.283 510.13 119.816L511.474 113.026H512.468L511.124 119.774C511.031 120.231 511.064 120.586 511.222 120.838C511.39 121.09 511.694 121.216 512.132 121.216C512.338 121.216 512.538 121.188 512.734 121.132C512.93 121.067 513.108 120.969 513.266 120.838L513.504 121.594C513.271 121.771 513.01 121.897 512.72 121.972C512.431 122.037 512.146 122.07 511.866 122.07ZM509.682 115.476L509.836 114.65H514.386L514.218 115.476H509.682ZM518.226 122.07C517.526 122.07 516.915 121.944 516.392 121.692C515.879 121.431 515.482 121.067 515.202 120.6C514.932 120.133 514.796 119.578 514.796 118.934C514.796 118.094 514.974 117.347 515.328 116.694C515.683 116.041 516.168 115.527 516.784 115.154C517.4 114.771 518.096 114.58 518.87 114.58C519.524 114.58 520.088 114.706 520.564 114.958C521.04 115.201 521.409 115.555 521.67 116.022C521.941 116.489 522.076 117.049 522.076 117.702C522.076 117.851 522.067 118.005 522.048 118.164C522.03 118.313 522.006 118.458 521.978 118.598H515.524L515.65 117.856H521.516L521.11 118.136C521.204 117.548 521.162 117.053 520.984 116.652C520.807 116.251 520.532 115.947 520.158 115.742C519.794 115.527 519.356 115.42 518.842 115.42C518.245 115.42 517.713 115.569 517.246 115.868C516.78 116.157 516.416 116.563 516.154 117.086C515.893 117.599 515.762 118.201 515.762 118.892C515.762 119.629 515.972 120.199 516.392 120.6C516.822 120.992 517.461 121.188 518.31 121.188C518.805 121.188 519.262 121.109 519.682 120.95C520.102 120.782 520.448 120.553 520.718 120.264L521.166 120.978C520.821 121.323 520.387 121.594 519.864 121.79C519.351 121.977 518.805 122.07 518.226 122.07ZM525.941 124.786C525.26 124.786 524.639 124.688 524.079 124.492C523.519 124.305 523.048 124.035 522.665 123.68L523.253 122.924C523.552 123.223 523.939 123.461 524.415 123.638C524.901 123.815 525.433 123.904 526.011 123.904C526.945 123.904 527.668 123.689 528.181 123.26C528.695 122.831 529.035 122.168 529.203 121.272L529.595 119.34L529.973 118.136L530.127 116.876L530.561 114.65H531.513L530.225 121.104C529.973 122.401 529.497 123.339 528.797 123.918C528.097 124.497 527.145 124.786 525.941 124.786ZM526.431 121.72C525.787 121.72 525.218 121.599 524.723 121.356C524.238 121.113 523.86 120.773 523.589 120.334C523.319 119.886 523.183 119.359 523.183 118.752C523.183 118.155 523.286 117.604 523.491 117.1C523.697 116.596 523.986 116.157 524.359 115.784C524.733 115.401 525.176 115.107 525.689 114.902C526.203 114.687 526.767 114.58 527.383 114.58C527.971 114.58 528.494 114.683 528.951 114.888C529.409 115.093 529.768 115.401 530.029 115.812C530.3 116.223 530.435 116.745 530.435 117.38C530.445 118.183 530.286 118.915 529.959 119.578C529.633 120.231 529.171 120.754 528.573 121.146C527.976 121.529 527.262 121.72 526.431 121.72ZM526.627 120.838C527.243 120.838 527.789 120.698 528.265 120.418C528.751 120.138 529.133 119.755 529.413 119.27C529.693 118.775 529.833 118.215 529.833 117.59C529.833 116.918 529.619 116.395 529.189 116.022C528.76 115.639 528.163 115.448 527.397 115.448C526.781 115.448 526.231 115.588 525.745 115.868C525.26 116.148 524.877 116.535 524.597 117.03C524.327 117.515 524.191 118.071 524.191 118.696C524.191 119.368 524.406 119.895 524.835 120.278C525.265 120.651 525.862 120.838 526.627 120.838ZM532.341 124.786C531.996 124.786 531.665 124.725 531.347 124.604C531.03 124.492 530.778 124.333 530.591 124.128L531.123 123.4C531.282 123.568 531.469 123.699 531.683 123.792C531.898 123.885 532.141 123.932 532.411 123.932C532.729 123.932 533.018 123.843 533.279 123.666C533.55 123.498 533.83 123.19 534.119 122.742L534.861 121.608L534.987 121.468L539.355 114.65H540.377L535.001 122.952C534.693 123.419 534.404 123.783 534.133 124.044C533.863 124.315 533.583 124.506 533.293 124.618C533.013 124.73 532.696 124.786 532.341 124.786ZM534.693 122.21L532.803 114.65H533.811L535.463 121.398L534.693 122.21Z" fill="#B2BBD0"/>
<path d="M379.931 187.812C381.325 186.806 383.255 187.913 383.091 189.625L380.19 219.929C380.018 221.722 377.748 222.392 376.63 220.979L369.453 211.905C369.55 211.861 369.635 211.785 369.69 211.678L378.615 194.197L367.782 210.623C367.748 210.675 367.725 210.731 367.712 210.787L356.205 209.16C354.421 208.908 353.853 206.611 355.314 205.558L379.931 187.812Z" fill="#C5CAD3"/>
<circle cx="372.679" cy="203.488" r="14.1382" transform="rotate(30 372.679 203.488)" stroke="#C5CAD3" stroke-width="2"/>
<defs>
<filter id="filter0_d_34_157" x="164.2" y="326.128" width="59.3418" height="23.056" filterUnits="userSpaceOnUse" color-interpolation-filters="sRGB">
<feFlood flood-opacity="0" result="BackgroundImageFix"/>
<feColorMatrix in="SourceAlpha" type="matrix" values="0 0 0 0 0 0 0 0 0 0 0 0 0 0 0 0 0 0 127 0" result="hardAlpha"/>
<feOffset dy="4"/>
<feGaussianBlur stdDeviation="2"/>
<feComposite in2="hardAlpha" operator="out"/>
<feColorMatrix type="matrix" values="0 0 0 0 0 0 0 0 0 0 0 0 0 0 0 0 0 0 0.25 0"/>
<feBlend mode="normal" in2="BackgroundImageFix" result="effect1_dropShadow_34_157"/>
<feBlend mode="normal" in="SourceGraphic" in2="effect1_dropShadow_34_157" result="shape"/>
</filter>
<filter id="filter1_d_34_157" x="351.992" y="285.128" width="80.2168" height="22.056" filterUnits="userSpaceOnUse" color-interpolation-filters="sRGB">
<feFlood flood-opacity="0" result="BackgroundImageFix"/>
<feColorMatrix in="SourceAlpha" type="matrix" values="0 0 0 0 0 0 0 0 0 0 0 0 0 0 0 0 0 0 127 0" result="hardAlpha"/>
<feOffset dy="4"/>
<feGaussianBlur stdDeviation="1.5"/>
<feComposite in2="hardAlpha" operator="out"/>
<feColorMatrix type="matrix" values="0 0 0 0 0 0 0 0 0 0 0 0 0 0 0 0 0 0 0.25 0"/>
<feBlend mode="normal" in2="BackgroundImageFix" result="effect1_dropShadow_34_157"/>
<feBlend mode="normal" in="SourceGraphic" in2="effect1_dropShadow_34_157" result="shape"/>
</filter>
<filter id="filter2_d_34_157" x="242.024" y="234.128" width="59.5181" height="23.056" filterUnits="userSpaceOnUse" color-interpolation-filters="sRGB">
<feFlood flood-opacity="0" result="BackgroundImageFix"/>
<feColorMatrix in="SourceAlpha" type="matrix" values="0 0 0 0 0 0 0 0 0 0 0 0 0 0 0 0 0 0 127 0" result="hardAlpha"/>
<feOffset dy="4"/>
<feGaussianBlur stdDeviation="2"/>
<feComposite in2="hardAlpha" operator="out"/>
<feColorMatrix type="matrix" values="0 0 0 0 0 0 0 0 0 0 0 0 0 0 0 0 0 0 0.25 0"/>
<feBlend mode="normal" in2="BackgroundImageFix" result="effect1_dropShadow_34_157"/>
<feBlend mode="normal" in="SourceGraphic" in2="effect1_dropShadow_34_157" result="shape"/>
</filter>
<linearGradient id="paint0_linear_34_157" x1="510" y1="8.94682e-06" x2="216" y2="425" gradientUnits="userSpaceOnUse">
<stop stop-color="#F7F8FA"/>
<stop offset="0.172567" stop-color="#E9EBF1" stop-opacity="0.2"/>
<stop offset="0.788651" stop-color="#E9EBF1"/>
<stop offset="1" stop-color="#F7F8FA" stop-opacity="0.65"/>
</linearGradient>
<linearGradient id="paint1_linear_34_157" x1="-16.3959" y1="230.199" x2="500.373" y2="226.958" gradientUnits="userSpaceOnUse">
<stop stop-color="#F7F8FA"/>
<stop offset="0.172567" stop-color="#E9EBF1" stop-opacity="0.2"/>
<stop offset="0.788651" stop-color="#E9EBF1"/>
<stop offset="1" stop-color="#F7F8FA" stop-opacity="0.65"/>
</linearGradient>
<linearGradient id="paint2_linear_34_157" x1="-63.0869" y1="317.199" x2="453.683" y2="313.958" gradientUnits="userSpaceOnUse">
<stop stop-color="#F7F8FA"/>
<stop offset="0.172567" stop-color="#E9EBF1" stop-opacity="0.2"/>
<stop offset="0.788651" stop-color="#E9EBF1"/>
<stop offset="1" stop-color="#F7F8FA" stop-opacity="0.65"/>
</linearGradient>
<linearGradient id="paint3_linear_34_157" x1="717.857" y1="315.292" x2="121.32" y2="297.401" gradientUnits="userSpaceOnUse">
<stop stop-color="#F7F8FA"/>
<stop offset="0.172567" stop-color="#E9EBF1" stop-opacity="0.2"/>
<stop offset="0.788651" stop-color="#E9EBF1"/>
<stop offset="1" stop-color="#F7F8FA" stop-opacity="0.65"/>
</linearGradient>
<linearGradient id="paint4_linear_34_157" x1="6.45638" y1="117.256" x2="603.192" y2="126.386" gradientUnits="userSpaceOnUse">
<stop stop-color="#F7F8FA"/>
<stop offset="0.172567" stop-color="#E9EBF1" stop-opacity="0.2"/>
<stop offset="0.788651" stop-color="#E9EBF1"/>
<stop offset="1" stop-color="#F7F8FA" stop-opacity="0.65"/>
</linearGradient>
<linearGradient id="paint5_linear_34_157" x1="703.253" y1="131.754" x2="332.056" y2="117.147" gradientUnits="userSpaceOnUse">
<stop stop-color="#F7F8FA"/>
<stop offset="0.172567" stop-color="#E9EBF1" stop-opacity="0.2"/>
<stop offset="0.788651" stop-color="#E9EBF1"/>
<stop offset="1" stop-color="#F7F8FA" stop-opacity="0.65"/>
</linearGradient>
</defs>
</svg>
