<svg width="243" height="396" viewBox="0 0 243 396" fill="none" xmlns="http://www.w3.org/2000/svg">
<path d="M219 2C225.506 2 231.721 20.872 233.778 25.7778C240.139 40.9457 241 58.7514 241 75C241 94.1592 241.425 113.205 233.556 131.222C224.047 152.992 212.651 173.384 197.222 191.556C188.478 201.854 176.825 214.118 163.778 218.778C157.369 221.067 151.745 221 145 221C140.689 221 135.114 215.492 141 212.222C144.057 210.524 151.24 209.539 153 213.5C154.831 217.619 159 220.194 159 225.5C159 229.93 160.356 236.9 157.556 240.5C153.681 245.482 148.092 250.039 143 254C131.502 262.943 117.327 269.898 104.556 276.944C91.4486 284.176 77.4194 289.46 64.6111 297.389C51.4209 305.554 43.3596 316.412 33.2222 327.778C23.3946 338.797 11.9897 353.472 10.0556 368.944C9.54427 373.035 9.71981 377.552 8.77778 381.556C8.26866 383.719 7 385.921 7 388" stroke="#E5E5E5" stroke-width="3" stroke-linecap="round" stroke-dasharray="6 6"/>
<mask id="path-2-inside-1_34_157" fill="white">
<path d="M56.0401 310.127C54.3945 310.625 52.9287 308.952 53.6389 307.386L68.3254 275.005C69.0697 273.364 71.4344 273.467 72.0333 275.166L76.5687 288.034C76.4815 288.052 76.3968 288.093 76.3253 288.162L60.323 303.627L77.9787 289.998C78.0086 289.975 78.0351 289.95 78.058 289.923L90.29 296.149C91.8952 296.966 91.6871 299.323 89.9635 299.846L56.0401 310.127Z"/>
</mask>
<path d="M56.0401 310.127C54.3945 310.625 52.9287 308.952 53.6389 307.386L68.3254 275.005C69.0697 273.364 71.4344 273.467 72.0333 275.166L76.5687 288.034C76.4815 288.052 76.3968 288.093 76.3253 288.162L60.323 303.627L77.9787 289.998C78.0086 289.975 78.0351 289.95 78.058 289.923L90.29 296.149C91.8952 296.966 91.6871 299.323 89.9635 299.846L56.0401 310.127Z" fill="#418FDE"/>
<path d="M56.0401 310.127L56.3301 311.084L56.3301 311.084L56.0401 310.127ZM53.6389 307.386L54.5496 307.799L54.5496 307.799L53.6389 307.386ZM68.3254 275.005L67.4147 274.592L67.4147 274.592L68.3254 275.005ZM72.0333 275.166L72.9765 274.834L72.9765 274.834L72.0333 275.166ZM76.5687 288.034L76.7747 289.013L77.891 288.778L77.5118 287.702L76.5687 288.034ZM76.3253 288.162L75.6308 287.443L75.6303 287.443L76.3253 288.162ZM60.323 303.627L59.6281 302.908L60.9341 304.419L60.323 303.627ZM77.9787 289.998L78.5898 290.79L78.5899 290.79L77.9787 289.998ZM78.058 289.923L78.5116 289.032L77.8028 288.671L77.2917 289.28L78.058 289.923ZM90.29 296.149L90.7437 295.258L90.7436 295.258L90.29 296.149ZM89.9635 299.846L90.2536 300.803L90.2538 300.803L89.9635 299.846ZM56.0401 310.127L55.7501 309.17C54.9277 309.419 54.1943 308.583 54.5496 307.799L53.6389 307.386L52.7282 306.973C51.663 309.322 53.8614 311.832 56.3301 311.084L56.0401 310.127ZM53.6389 307.386L54.5496 307.799L69.2361 275.418L68.3254 275.005L67.4147 274.592L52.7282 306.973L53.6389 307.386ZM68.3254 275.005L69.2361 275.418C69.6083 274.597 70.7908 274.649 71.0902 275.499L72.0333 275.166L72.9765 274.834C72.078 272.285 68.5311 272.131 67.4147 274.592L68.3254 275.005ZM72.0333 275.166L71.0902 275.499L75.6255 288.366L76.5687 288.034L77.5118 287.702L72.9765 274.834L72.0333 275.166ZM76.5687 288.034L76.3626 287.056C76.1101 287.109 75.8506 287.23 75.6308 287.443L76.3253 288.162L77.0197 288.882C76.9431 288.956 76.853 288.996 76.7747 289.013L76.5687 288.034ZM76.3253 288.162L75.6303 287.443L59.6281 302.908L60.323 303.627L61.018 304.346L77.0202 288.881L76.3253 288.162ZM60.323 303.627L60.9341 304.419L78.5898 290.79L77.9787 289.998L77.3676 289.207L59.712 302.836L60.323 303.627ZM77.9787 289.998L78.5899 290.79C78.6721 290.726 78.7516 290.652 78.8242 290.565L78.058 289.923L77.2917 289.28C77.3186 289.248 77.345 289.224 77.3675 289.207L77.9787 289.998ZM78.058 289.923L77.6043 290.814L89.8364 297.04L90.29 296.149L90.7436 295.258L78.5116 289.032L78.058 289.923ZM90.29 296.149L89.8364 297.04C90.6393 297.449 90.5347 298.627 89.6733 298.889L89.9635 299.846L90.2538 300.803C92.8395 300.018 93.1512 296.484 90.7437 295.258L90.29 296.149ZM89.9635 299.846L89.6735 298.889L55.7501 309.17L56.0401 310.127L56.3301 311.084L90.2536 300.803L89.9635 299.846Z" fill="#418FDE" mask="url(#path-2-inside-1_34_157)"/>
<circle cx="70.0602" cy="295.884" r="16.0818" transform="rotate(-131.072 70.0602 295.884)" stroke="#418FDE" stroke-width="2"/>
<path d="M2 373C2 377.316 2.45802 382.824 4.5 386.5C6.0683 389.323 3.78977 397.655 9.22222 392.222C11.8618 389.583 12.0881 385.73 15.5 383C18.0543 380.957 22.7143 377 26 377" stroke="#E5E5E5" stroke-width="3" stroke-linecap="round" stroke-dasharray="6 6"/>
</svg>
