<svg width="761" height="668" viewBox="0 0 761 668" fill="none" xmlns="http://www.w3.org/2000/svg">
<path d="M463.5 57.5C627.541 57.5 760.5 187.126 760.5 347C760.5 506.874 627.541 636.5 463.5 636.5C299.459 636.5 166.5 506.874 166.5 347C166.5 187.126 299.459 57.5 463.5 57.5Z" stroke="#DDDAE0"/>
<path d="M443.5 67.5C613.616 67.5 751.5 201.827 751.5 367.5C751.5 533.173 613.616 667.5 443.5 667.5C273.384 667.5 135.5 533.173 135.5 367.5C135.5 201.827 273.384 67.5 443.5 67.5Z" stroke="#E9E9E9"/>
<path d="M443.5 36.5C613.616 36.5 751.5 170.827 751.5 336.5C751.5 502.173 613.616 636.5 443.5 636.5C273.384 636.5 135.5 502.173 135.5 336.5C135.5 170.827 273.384 36.5 443.5 36.5Z" stroke="#E9E9E9"/>
<path d="M389.5 45.5C559.616 45.5 697.5 179.827 697.5 345.5C697.5 511.173 559.616 645.5 389.5 645.5C219.384 645.5 81.5 511.173 81.5 345.5C81.5 179.827 219.384 45.5 389.5 45.5Z" stroke="#E9E9E9"/>
<path d="M335.5 54.5C505.616 54.5 643.5 188.827 643.5 354.5C643.5 520.173 505.616 654.5 335.5 654.5C165.384 654.5 27.5 520.173 27.5 354.5C27.5 188.827 165.384 54.5 335.5 54.5Z" stroke="#E9E9E9"/>
<path d="M308.5 0.5C478.616 0.5 616.5 134.827 616.5 300.5C616.5 466.173 478.616 600.5 308.5 600.5C138.384 600.5 0.5 466.173 0.5 300.5C0.5 134.827 138.384 0.5 308.5 0.5Z" stroke="#E9E9E9"/>
</svg>
