<?xml version="1.0" encoding="UTF-8"?>
<svg width="134" height="34" viewBox="0 0 134 34" fill="none" xmlns="http://www.w3.org/2000/svg">
<path d="M45.9407 25.9342L45.1897 27.2364H46.8437L46.0842 25.9342H45.9407ZM47.4091 28.2654L47.0715 27.6553H44.9618L44.6158 28.2654H43.9829L45.6622 25.4152H46.388L48.0673 28.2654H47.4091Z" fill="#231F20"/>
<path d="M54.2363 28.2924C53.6203 28.2924 53.46 28.1923 53.46 27.5002V25.4149H54.0254V27.5821C54.0254 27.7643 54.0844 27.7916 54.2701 27.7916H56.1688C56.3629 27.7916 56.422 27.7643 56.422 27.5821V25.4149H56.9874V27.4911C56.9874 28.174 56.8186 28.2833 56.2026 28.2833H54.2363V28.2924Z" fill="#231F20"/>
<path d="M63.8991 28.2654V25.8796H62.3379V25.4152H66.0003V25.8796H64.456V28.2654H63.8991Z" fill="#231F20"/>
<path d="M74.4983 26.0705C74.4983 25.8884 74.4392 25.8611 74.2535 25.8611H72.1607C71.9666 25.8611 71.916 25.8975 71.916 26.0705V27.5913C71.916 27.7734 71.9751 27.8007 72.1607 27.8007H74.2535C74.4476 27.8007 74.4983 27.7734 74.4983 27.5913V26.0705ZM72.1691 28.2924C71.5784 28.2924 71.3506 28.1649 71.3506 27.5002V26.1798C71.3506 25.5151 71.5784 25.3876 72.1691 25.3876H74.2367C74.8274 25.3876 75.0552 25.5151 75.0552 26.1798V27.5002C75.0552 28.1649 74.8358 28.2924 74.2367 28.2924H72.1691Z" fill="#231F20"/>
<path d="M84.3373 28.2654V26.6263C84.3373 26.4077 84.3457 26.1983 84.3457 26.0708H84.3288L82.9195 28.0468H82.7761L81.3584 26.0708H81.3415C81.3499 26.2074 81.3584 26.4077 81.3584 26.6081V28.2563H80.793V25.4152H81.4681L82.8436 27.3639H82.852L84.2276 25.4152H84.8858V28.2654H84.3373Z" fill="#231F20"/>
<path d="M93.7888 26.0705C93.7888 25.8884 93.7297 25.8611 93.5441 25.8611H91.4512C91.2571 25.8611 91.2065 25.8975 91.2065 26.0705V27.5913C91.2065 27.7734 91.2656 27.8007 91.4512 27.8007H93.5441C93.7382 27.8007 93.7888 27.7734 93.7888 27.5913V26.0705ZM91.4597 28.2924C90.869 28.2924 90.6411 28.1649 90.6411 27.5002V26.1798C90.6411 25.5151 90.869 25.3876 91.4597 25.3876H93.5272C94.1179 25.3876 94.3458 25.5151 94.3458 26.1798V27.5002C94.3458 28.1649 94.1263 28.2924 93.5272 28.2924H91.4597Z" fill="#231F20"/>
<path d="M102.886 27.2181C102.886 27.036 102.827 26.9996 102.633 26.9996H100.641V27.7827H102.633C102.827 27.7827 102.886 27.7463 102.886 27.5641V27.2181ZM102.886 26.0981C102.886 25.9068 102.827 25.8795 102.633 25.8795H100.641V26.5989H102.65C102.819 26.5989 102.878 26.5625 102.878 26.3803V26.0981H102.886ZM103.443 27.6097C103.443 28.1378 103.173 28.2744 102.658 28.2744H100.093V25.4151H102.641C103.232 25.4151 103.418 25.5517 103.418 26.0799V26.3257C103.418 26.5352 103.367 26.7264 103.131 26.781V26.7901C103.35 26.8357 103.443 26.9996 103.443 27.2636V27.6097Z" fill="#231F20"/>
<path d="M109.249 28.2654H109.814V25.4152H109.249V28.2654Z" fill="#231F20"/>
<path d="M115.738 28.2654V25.4152H116.304V27.7645H118.894V28.2654H115.738Z" fill="#231F20"/>
<path d="M124.431 28.2654H124.996V25.4152H124.431V28.2654Z" fill="#231F20"/>
<path d="M123.435 10.3445C121.443 10.3445 119.772 10.5812 118.616 11.4736C117.519 12.3205 116.92 13.5225 116.92 14.8611C116.92 17.4836 119.283 19.3777 122.186 19.3777H124.279C124.363 19.3777 124.439 19.3504 124.515 19.3048L125.19 18.8222C125.207 18.804 125.215 18.7767 125.215 18.7585C125.207 18.7312 125.19 18.7129 125.165 18.7129C122.481 18.6765 120.304 17.347 120.304 15.1707C120.304 12.9397 122.236 11.5009 125.232 11.5009H132.768C132.878 11.5009 132.987 11.4554 133.063 11.3644L134 10.3536H123.435V10.3445Z" fill="#231F20"/>
<path d="M100.051 10.472L95.5698 15.3073H97.3842C97.4939 15.3073 97.6036 15.2617 97.6795 15.1707L100.962 11.6375C101.08 11.5101 101.266 11.5101 101.376 11.6375L108.422 19.2411C108.498 19.323 108.608 19.3777 108.717 19.3777H112.515L104.27 10.4811C104.194 10.3991 104.085 10.3445 103.975 10.3445H100.346C100.236 10.3445 100.135 10.39 100.051 10.472Z" fill="#231F20"/>
<path d="M85.2657 10.4357L79.021 15.5169C78.9197 15.5988 78.7762 15.5988 78.6665 15.5169L72.4049 10.4357C72.329 10.381 72.2446 10.3446 72.1518 10.3446H67.6201L77.4935 18.3579C77.5948 18.4399 77.7382 18.4399 77.848 18.3579L85.3163 12.2842C85.4007 12.2205 85.5188 12.2842 85.5188 12.3935V19.3687H88.8859V10.3446H85.5104C85.426 10.3446 85.3416 10.3719 85.2657 10.4357Z" fill="#231F20"/>
<path d="M58.4385 19.3687H61.8056V10.3446H58.4385V19.3687Z" fill="#231F20"/>
<path d="M42.1854 14.6152C42.0335 14.6152 41.9576 14.8064 42.0673 14.9248L46.0673 19.2411C46.1432 19.323 46.2529 19.3777 46.3626 19.3777H50.1601L46.9365 15.8992C46.8605 15.8172 46.9112 15.6806 47.0124 15.6715L48.3711 15.5531C50.7002 15.28 51.7888 14.2601 51.7888 12.8304C51.7888 11.1276 50.3036 10.3445 47.3162 10.3445H33.0884L34.1432 11.3552C34.2192 11.4372 34.3289 11.4827 34.4386 11.4827H45.4512C47.6875 11.4827 48.4217 12.0564 48.4217 13.049C48.4217 13.9778 47.3753 14.515 45.1559 14.5606C42.4217 14.6061 42.1854 14.6152 42.1854 14.6152Z" fill="#231F20"/>
<path d="M19.6878 20.4069L13.9494 14.2148C13.865 14.1238 13.9156 13.9781 14.0338 13.9599L15.1477 13.8324C17.519 13.5592 18.8776 12.2752 18.8776 10.6635C18.8776 8.80582 17.0549 7.75862 14 7.75862H2.88609C2.77638 6.72964 2.692 5.70976 2.6498 4.70809C2.63293 4.38028 2.83545 4.08888 3.13081 4.01604C6.32068 3.22381 9.59494 2.80493 12.7257 2.80493H12.8945C16.0169 2.80493 19.2911 3.22381 22.4894 4.01604C22.7848 4.08888 22.9873 4.38028 22.9705 4.70809C22.7426 9.81659 21.6709 15.435 19.6878 20.4069ZM17.9325 24.1586C16.5907 26.6173 14.9789 28.7845 13.0802 30.4782C12.9283 30.6148 12.7004 30.6148 12.5485 30.4782C7.34178 25.8432 4.30381 17.6569 3.13925 9.77106L1.81436 9.00615H11.6371C14.7933 9.00615 15.1983 10.1171 15.1983 10.9093C15.1983 11.7015 14.7933 12.8125 11.6371 12.8125H8.76794C8.65824 12.8125 8.58229 12.9127 8.58229 13.0128C8.58229 13.0583 8.59916 13.113 8.63292 13.1494L18.2532 23.5303L19.2827 24.6413L17.9325 24.1586ZM25.1561 1.85791C21.2489 0.674118 17.0042 -0.00883865 12.8101 0.000267029C8.61604 -0.00883865 4.37132 0.674118 0.464148 1.85791C0.194106 1.93986 1.35809e-05 2.21304 1.35809e-05 2.51354C-0.00842523 13.7868 3.91562 27.7282 12.4557 33.8839C12.6667 34.0387 12.9452 34.0387 13.1561 33.8839C21.6962 27.7282 25.6202 13.7777 25.6118 2.51354C25.6202 2.21304 25.4346 1.93986 25.1561 1.85791Z" fill="#231F20"/>
</svg>

