<?xml version="1.0" encoding="UTF-8"?>
<svg width="540" height="668" viewBox="0 0 540 668" fill="none" xmlns="http://www.w3.org/2000/svg">
<path d="M242.5 57.5C406.541 57.5 539.5 187.126 539.5 347C539.5 506.874 406.541 636.5 242.5 636.5C78.4593 636.5 -54.5 506.874 -54.5 347C-54.5 187.126 78.4593 57.5 242.5 57.5Z" stroke="#DDDAE0"/>
<path d="M222.5 67.5C392.616 67.5 530.5 201.827 530.5 367.5C530.5 533.173 392.616 667.5 222.5 667.5C52.3838 667.5 -85.5 533.173 -85.5 367.5C-85.5 201.827 52.3838 67.5 222.5 67.5Z" stroke="#E9E9E9"/>
<path d="M222.5 36.5C392.616 36.5 530.5 170.827 530.5 336.5C530.5 502.173 392.616 636.5 222.5 636.5C52.3838 636.5 -85.5 502.173 -85.5 336.5C-85.5 170.827 52.3838 36.5 222.5 36.5Z" stroke="#E9E9E9"/>
<path d="M168.5 45.5C338.616 45.5 476.5 179.827 476.5 345.5C476.5 511.173 338.616 645.5 168.5 645.5C-1.61618 645.5 -139.5 511.173 -139.5 345.5C-139.5 179.827 -1.61618 45.5 168.5 45.5Z" stroke="#E9E9E9"/>
<path d="M114.5 54.5C284.616 54.5 422.5 188.827 422.5 354.5C422.5 520.173 284.616 654.5 114.5 654.5C-55.6162 654.5 -193.5 520.173 -193.5 354.5C-193.5 188.827 -55.6162 54.5 114.5 54.5Z" stroke="#E9E9E9"/>
<path d="M87.5 0.5C257.616 0.5 395.5 134.827 395.5 300.5C395.5 466.173 257.616 600.5 87.5 600.5C-82.6162 600.5 -220.5 466.173 -220.5 300.5C-220.5 134.827 -82.6162 0.5 87.5 0.5Z" stroke="#E9E9E9"/>
<!-- <rect x="107.5" y="449.5" width="175" height="47" rx="23.5" fill="white"/> -->
<!-- <rect x="107.5" y="449.5" width="175" height="47" rx="23.5" stroke="#DADAE0"/> -->
<!-- <path d="M162.816 478V468.2H164.314L168.598 475.354H167.814L172.028 468.2H173.526L173.54 478H171.818L171.804 470.902H172.168L168.584 476.88H167.772L164.132 470.902H164.552V478H162.816ZM179.289 478.098C178.524 478.098 177.842 477.935 177.245 477.608C176.648 477.272 176.176 476.815 175.831 476.236C175.486 475.657 175.313 474.999 175.313 474.262C175.313 473.515 175.486 472.857 175.831 472.288C176.176 471.709 176.648 471.257 177.245 470.93C177.842 470.603 178.524 470.44 179.289 470.44C180.064 470.44 180.75 470.603 181.347 470.93C181.954 471.257 182.425 471.705 182.761 472.274C183.106 472.843 183.279 473.506 183.279 474.262C183.279 474.999 183.106 475.657 182.761 476.236C182.425 476.815 181.954 477.272 181.347 477.608C180.75 477.935 180.064 478.098 179.289 478.098ZM179.289 476.6C179.718 476.6 180.101 476.507 180.437 476.32C180.773 476.133 181.034 475.863 181.221 475.508C181.417 475.153 181.515 474.738 181.515 474.262C181.515 473.777 181.417 473.361 181.221 473.016C181.034 472.661 180.773 472.391 180.437 472.204C180.101 472.017 179.723 471.924 179.303 471.924C178.874 471.924 178.491 472.017 178.155 472.204C177.828 472.391 177.567 472.661 177.371 473.016C177.175 473.361 177.077 473.777 177.077 474.262C177.077 474.738 177.175 475.153 177.371 475.508C177.567 475.863 177.828 476.133 178.155 476.32C178.491 476.507 178.869 476.6 179.289 476.6ZM184.863 478V470.524H186.529V472.582L186.333 471.98C186.557 471.476 186.907 471.093 187.383 470.832C187.868 470.571 188.47 470.44 189.189 470.44V472.106C189.114 472.087 189.044 472.078 188.979 472.078C188.913 472.069 188.848 472.064 188.783 472.064C188.12 472.064 187.593 472.26 187.201 472.652C186.809 473.035 186.613 473.609 186.613 474.374V478H184.863ZM194.029 478.098C193.198 478.098 192.47 477.935 191.845 477.608C191.229 477.272 190.748 476.815 190.403 476.236C190.067 475.657 189.899 474.999 189.899 474.262C189.899 473.515 190.062 472.857 190.389 472.288C190.725 471.709 191.182 471.257 191.761 470.93C192.349 470.603 193.016 470.44 193.763 470.44C194.491 470.44 195.139 470.599 195.709 470.916C196.278 471.233 196.726 471.681 197.053 472.26C197.379 472.839 197.543 473.52 197.543 474.304C197.543 474.379 197.538 474.463 197.529 474.556C197.529 474.649 197.524 474.738 197.515 474.822H191.285V473.66H196.591L195.905 474.024C195.914 473.595 195.825 473.217 195.639 472.89C195.452 472.563 195.195 472.307 194.869 472.12C194.551 471.933 194.183 471.84 193.763 471.84C193.333 471.84 192.955 471.933 192.629 472.12C192.311 472.307 192.059 472.568 191.873 472.904C191.695 473.231 191.607 473.618 191.607 474.066V474.346C191.607 474.794 191.709 475.191 191.915 475.536C192.12 475.881 192.409 476.147 192.783 476.334C193.156 476.521 193.585 476.614 194.071 476.614C194.491 476.614 194.869 476.549 195.205 476.418C195.541 476.287 195.839 476.082 196.101 475.802L197.039 476.88C196.703 477.272 196.278 477.575 195.765 477.79C195.261 477.995 194.682 478.098 194.029 478.098Z" fill="#2D2926"/> -->
<!-- <path d="M220.525 467.942L225.583 473L220.525 478.058" stroke="#292D32" stroke-width="1.5" stroke-miterlimit="10" stroke-linecap="round" stroke-linejoin="round"/> -->
<path d="M211.417 473H225.442" stroke="#292D32" stroke-width="1.5" stroke-miterlimit="10" stroke-linecap="round" stroke-linejoin="round"/>
</svg>
