<?xml version="1.0" encoding="UTF-8"?>
<svg width="448" height="448" viewBox="0 0 448 448" fill="none" xmlns="http://www.w3.org/2000/svg">
<g clip-path="url(#clip0_2076_254)">
<g clip-path="url(#clip1_2076_254)">
<g clip-path="url(#clip2_2076_254)">
<mask id="mask0_2076_254" style="mask-type:luminance" maskUnits="userSpaceOnUse" x="0" y="0" width="448" height="448">
<path d="M0 0H448V448H0V0Z" fill="white"/>
</mask>
<g mask="url(#mask0_2076_254)">
<path d="M0 0H448V448H0V0Z" fill="#F7F8FA"/>
<path d="M928.838 259.029L917.512 255.238M928.838 259.029H895.274M928.838 259.029L940.54 262.946M928.838 259.029H952.608M917.512 255.238L921.633 255.239L925.711 255.247L929.705 255.27L933.574 255.316L937.274 255.39L940.768 255.501L944.012 255.655L947.024 255.852L949.608 256.124L951.961 256.439L952.608 256.549V259.029M917.512 255.238H884.487M895.274 259.029L884.487 255.238M895.274 259.029H861.71M895.274 259.029L898.026 259.996L906.419 262.946M940.54 262.946H906.419M940.54 262.946L952.608 266.985M940.54 262.946H952.608M952.608 259.029V262.946M884.487 255.238H851.463M851.463 255.238H818.438M851.463 255.238L861.71 259.029M818.438 255.238H785.414M818.438 255.238L828.147 259.029M861.71 259.029H828.147M861.71 259.029L872.298 262.946M785.414 255.238H752.39M785.414 255.238L794.583 259.029M828.147 259.029H794.583M828.147 259.029L838.177 262.946M752.39 255.238H719.365M752.39 255.238L761.019 259.029M794.583 259.029H761.019M794.583 259.029L804.056 262.946M719.365 255.238H686.341M719.365 255.238L727.456 259.029M761.019 259.029H727.456M761.019 259.029L763.22 259.996L764.329 260.482L769.935 262.946M686.341 255.238H653.317M686.341 255.238L693.892 259.029M727.456 259.029H693.892M727.456 259.029L729.519 259.996L735.814 262.946M653.317 255.238H620.292M653.317 255.238L660.328 259.029M693.892 259.029H660.328M693.892 259.029L701.693 262.946M620.292 255.238H587.268M620.292 255.238L626.764 259.029M660.328 259.029H626.764M660.328 259.029L662.117 259.996L663.017 260.482L667.572 262.946M587.268 255.238H554.244M587.268 255.238L593.201 259.029M626.764 259.029H593.201M626.764 259.029L633.452 262.946M554.244 255.238H521.22M554.244 255.238L559.637 259.029M593.201 259.029H559.637M593.201 259.029L594.714 259.996L595.476 260.482L599.331 262.946M521.22 255.238H488.195M521.22 255.238L522.418 256.174L524.235 257.592L526.073 259.029M559.637 259.029H526.073M559.637 259.029L560.324 259.511L561.013 259.996L565.209 262.946M488.195 255.238H455.171M488.195 255.238L489.26 256.174L492.509 259.029M526.073 259.029H492.509M526.073 259.029L527.312 259.996L527.935 260.482L531.088 262.946M455.171 255.238H422.146M455.171 255.238L458.946 259.029M492.509 259.029H458.946M492.509 259.029L496.967 262.946M422.146 255.238H389.122M422.146 255.238L423.347 256.645L424.564 258.069L424.972 258.548L425.383 259.029M458.946 259.029H425.383M458.946 259.029L459.427 259.511L459.909 259.996L460.394 260.482L462.847 262.946M389.122 255.238H356.097M389.122 255.238L390.123 256.645L390.459 257.118L390.797 257.592L391.819 259.029M425.383 259.029H391.819M425.383 259.029L426.208 259.996L426.623 260.482L427.04 260.971L428.726 262.946M356.097 255.238H323.073M356.097 255.238L358.255 259.029M391.819 259.029H358.255M391.819 259.029L392.506 259.996L393.9 261.954L394.251 262.449L394.605 262.946M323.073 255.238L323.273 255.705L323.472 256.174L324.486 258.548L324.691 259.029M323.073 255.238H290.049M358.255 259.029H324.691M358.255 259.029L358.53 259.511L358.805 259.996L359.082 260.482L360.483 262.946M324.691 259.029H291.128M324.691 259.029L326.362 262.946M290.049 255.238H257.024M290.049 255.238L291.128 259.029M257.024 255.238H224M257.024 255.238L257.225 256.645L257.564 259.029M291.128 259.029H257.564M291.128 259.029L291.265 259.511L291.402 259.996L291.541 260.482L292.242 262.946M224 255.238H190.976M224 255.238V259.029M257.564 259.029H224M257.564 259.029L258.121 262.946M190.976 255.238H157.951M190.976 255.238L190.776 256.645L190.436 259.029M224 259.029H190.436M224 259.029V262.946M157.951 255.238H124.927M157.951 255.238L156.873 259.029M190.436 259.029H156.873M190.436 259.029L189.879 262.946M124.927 255.238L124.727 255.705L124.528 256.174L123.514 258.548L123.309 259.029M124.927 255.238H91.903M156.873 259.029H123.309M156.873 259.029L156.735 259.511L156.598 259.996L156.459 260.482L156.04 261.954L155.758 262.946M123.309 259.029H89.745M123.309 259.029L121.638 262.946M91.903 255.238H58.878M91.903 255.238L90.019 258.548L89.745 259.029M58.878 255.238H25.854M58.878 255.238L57.878 256.645L57.541 257.118L56.864 258.069L56.524 258.548L56.181 259.029M89.745 259.029H56.181M89.745 259.029L89.47 259.511L89.195 259.996L88.918 260.482L87.515 262.946M25.854 255.238H-7.17099M25.854 255.238L24.653 256.645L23.436 258.069L23.028 258.548L22.618 259.029M56.181 259.029H22.618M56.181 259.029L55.494 259.996L54.1 261.954L53.395 262.946M-7.17099 255.238H-40.195M-7.17099 255.238L-10.946 259.029M22.618 259.029H-10.946M22.618 259.029L21.792 259.996L21.376 260.482L20.96 260.971L19.274 262.946H53.395M-40.195 255.238H-73.22M-40.195 255.238L-41.26 256.174L-44.51 259.029M-10.946 259.029L-11.426 259.511L-14.846 262.946M-10.946 259.029H-44.509M-73.22 255.238H-106.244M-73.22 255.238L-78.073 259.029M-106.244 255.238H-139.268M-106.244 255.238L-111.637 259.029M-78.073 259.029H-111.637M-78.073 259.029L-79.312 259.996L-79.935 260.482L-83.088 262.946M-78.073 259.029H-44.509M-139.268 255.238H-172.293M-139.268 255.238L-145.201 259.029M-111.637 259.029H-145.201M-111.637 259.029L-112.324 259.511L-113.013 259.996L-117.209 262.946M-172.293 255.238H-205.317M-172.293 255.238L-178.764 259.029M-145.201 259.029H-178.764M-145.201 259.029L-146.714 259.996L-147.476 260.482L-151.331 262.946M-205.317 255.238H-238.341M-205.317 255.238L-212.328 259.029M-178.764 259.029H-212.328M-178.764 259.029L-179.589 259.511L-185.452 262.946M-238.341 255.238H-271.365M-238.341 255.238L-245.892 259.029M-212.328 259.029H-245.892M-212.328 259.029L-214.117 259.996L-215.017 260.482L-219.573 262.946M-271.365 255.238H-304.39M-271.365 255.238L-279.456 259.029M-245.892 259.029H-279.456M-245.892 259.029L-253.693 262.946M-304.39 255.238H-337.414M-304.39 255.238L-313.019 259.029M-279.456 259.029H-313.019M-279.456 259.029L-281.519 259.996L-287.814 262.946M-337.414 255.238H-370.438M-337.414 255.238L-346.583 259.029M-313.019 259.029H-346.583M-313.019 259.029L-315.22 259.996L-316.329 260.482L-321.935 262.946M-370.438 255.238H-403.463M-370.438 255.238L-380.147 259.029M-346.583 259.029H-380.147M-346.583 259.029L-356.056 262.946M-403.463 255.238H-436.487M-403.463 255.238L-413.71 259.029M-380.147 259.029H-413.71M-380.147 259.029L-390.177 262.946M-436.487 255.238H-469.511M-436.487 255.238L-447.274 259.029M-413.71 259.029H-447.274M-413.71 259.029L-424.298 262.946M-469.511 255.238L-473.633 255.239L-477.711 255.247L-481.705 255.27L-485.573 255.316L-489.274 255.39L-492.768 255.501L-496.012 255.655L-499.024 255.852L-501.608 256.124L-503.961 256.439L-504.608 256.549V259.029M-469.511 255.238L-480.838 259.029M-447.274 259.029H-480.838M-447.274 259.029L-450.026 259.996L-458.419 262.946M-504.608 259.029H-480.838M-504.608 259.029V262.946M-480.838 259.029L-492.54 262.946M-424.298 262.946L-435.243 266.995M-424.298 262.946H-390.177M-424.298 262.946H-458.419M-390.177 262.946L-400.547 266.995M-390.177 262.946H-356.056M-287.814 262.946L-296.455 266.995M-287.814 262.946H-253.693M-287.814 262.946H-321.935M-253.693 262.946L-261.758 266.995M-253.693 262.946H-219.573M-151.331 262.946L-157.667 266.995M-151.331 262.946H-117.209M-151.331 262.946H-185.452M-117.209 262.946L-120.787 265.46L-122.971 266.995M-117.209 262.946H-83.088M-14.846 262.946L-18.879 266.995M-14.846 262.946H19.275L17.129 265.46L15.818 266.995M-14.846 262.946H-48.968M-44.509 259.029L-45.059 259.511L-48.968 262.946M121.638 262.946L121.209 263.945L120.563 265.46L120.127 266.481L119.909 266.995M121.638 262.946H155.758M121.638 262.946H87.515M155.758 262.946L155.33 264.448L154.752 266.481L154.606 266.995M155.758 262.946H189.879M258.121 262.946L258.192 263.444L258.263 263.945L258.335 264.448L258.406 264.953L258.479 265.46L258.697 266.995M258.121 262.946H292.242M258.121 262.946H224M292.242 262.946L292.67 264.448L293.248 266.481L293.394 266.995M292.242 262.946H326.362M394.605 262.946L395.316 263.945L397.485 266.995M394.605 262.946H428.726M394.605 262.946H360.483M428.726 262.946L430.872 265.46L432.182 266.995M428.726 262.946H462.847M531.088 262.946L535.616 266.481L536.273 266.995M531.088 262.946H565.209M531.088 262.946H496.967M565.209 262.946L568.787 265.46L570.971 266.995M565.209 262.946H599.331M667.572 262.946L675.061 266.995M667.572 262.946H701.693M667.572 262.946H633.452M701.693 262.946L709.758 266.995M701.693 262.946H735.814M804.056 262.946L813.85 266.995M804.056 262.946H769.935M804.056 262.946H838.177M838.177 262.946L848.546 266.995M838.177 262.946H872.298M-504.725 294.484H-504.608M-504.608 294.484H-470.943M-504.608 294.484V299.679M-504.608 294.484V292.655M-470.943 294.484L-458.129 289.48M-470.943 294.484L-484.248 299.679M-470.943 294.484H-432.335M-458.129 289.48H-496.024M-458.129 289.48L-445.778 284.657M-458.129 289.48H-420.233M-484.248 299.679L-498.073 305.078M-484.248 299.679H-444.901M-484.248 299.679H-504.608M-432.335 294.484L-420.233 289.48M-432.335 294.484L-444.901 299.679M-432.335 294.484H-393.727M-496.024 289.48L-482.988 284.657M-496.024 289.48H-504.608M-496.024 289.48L-504.608 292.655M-445.778 284.657L-433.867 280.006M-445.778 284.657H-408.568M-445.778 284.657H-482.988M-420.233 289.48L-408.568 284.657M-420.233 289.48H-382.337M-482.988 284.657L-470.415 280.006M-482.988 284.657H-504.608M-504.608 289.48V292.655M-504.608 289.48V284.657M-458.282 275.517H-422.372M-458.282 275.517L-446.565 271.183M-458.282 275.517H-494.191M-458.282 275.517L-470.415 280.006M-422.372 275.517L-411.271 271.183M-422.372 275.517L-433.867 280.006M-422.372 275.517H-386.462M-446.565 271.183H-411.271M-446.565 271.183L-435.243 266.995M-446.565 271.183H-481.858M-494.191 275.517L-481.858 271.183M-494.191 275.517H-504.608M-494.191 275.517L-504.608 279.178M-470.415 280.006H-433.867M-470.415 280.006H-504.608M-411.271 271.183H-375.979M-411.271 271.183L-400.547 266.995M-433.867 280.006H-397.319M-386.462 275.517L-375.979 271.183M-386.462 275.517L-397.319 280.006M-386.462 275.517H-350.553M-435.243 266.995H-400.547M-435.243 266.995H-469.94M-481.858 271.183L-469.94 266.995M-481.858 271.183H-504.608M-375.979 271.183H-340.686M-375.979 271.183L-365.85 266.995M-400.547 266.995H-365.85M-504.977 373.464H-504.608M-504.608 373.464H-473.825M-504.608 373.464V365.168M-504.608 373.464V382.173M-473.825 373.464L-457.3 365.168M-473.825 373.464L-491.17 382.173M-473.825 373.464H-423.98M-457.3 365.168L-441.541 357.256M-457.3 365.168H-408.636M-457.3 365.168H-504.608M-491.17 382.173H-440.086M-491.17 382.173H-504.608M-491.17 382.173L-504.608 388.919M-423.98 373.464L-408.636 365.168M-423.98 373.464L-440.086 382.173M-423.98 373.464H-374.135M-441.541 357.256H-489.079M-441.541 357.256L-426.494 349.702M-441.541 357.256H-394.002M-408.636 365.168L-394.002 357.256M-408.636 365.168H-359.971M-504.608 365.168V364.532M-489.079 357.256L-472.957 349.702M-489.079 357.256H-504.608M-489.079 357.256L-504.608 364.532M-472.957 349.702L-457.549 342.481M-472.957 349.702H-426.494M-472.957 349.702H-504.608M-504.608 357.256V364.532M-504.608 357.256V349.702M-457.549 342.481H-412.112M-457.549 342.481L-442.807 335.573M-457.549 342.481H-502.985M-412.112 342.481L-398.352 335.573M-412.112 342.481L-426.494 349.702M-412.112 342.481H-366.675M-442.807 335.573H-398.352M-442.807 335.573H-487.26M-442.807 335.573L-428.688 328.958M-502.985 342.481L-487.26 335.573M-502.985 342.481H-504.608M-502.985 342.481L-504.608 343.194M-398.352 335.573L-385.176 328.958M-398.352 335.573H-353.899M-426.494 349.702H-380.03M-366.675 342.481L-353.899 335.573M-366.675 342.481L-380.03 349.702M-366.675 342.481H-321.239M-487.26 335.573L-472.201 328.958M-487.26 335.573H-504.608M-428.688 328.958H-385.176M-428.688 328.958H-472.201M-428.688 328.958L-415.156 322.616M-385.176 328.958L-372.545 322.616M-385.176 328.958H-341.663M-353.899 335.573L-341.663 328.958M-353.899 335.573H-309.445M-402.173 316.533H-360.428M-402.173 316.533L-389.707 310.691M-402.173 316.533H-443.918M-402.173 316.533L-415.156 322.616M-360.428 316.533L-348.793 310.691M-360.428 316.533L-372.545 322.616M-360.428 316.533H-318.683M-389.707 310.691H-348.793M-389.707 310.691H-430.621M-389.707 310.691L-377.727 305.078M-443.918 316.533H-485.662M-443.918 316.533L-430.621 310.691M-443.918 316.533L-457.766 322.616M-415.156 322.616H-372.545M-415.156 322.616H-457.766M-348.793 310.691L-337.612 305.078M-348.793 310.691H-307.879M-372.545 322.616H-329.935M-318.683 316.533L-307.879 310.691M-318.683 316.533L-329.935 322.616M-318.683 316.533H-276.938M-430.621 310.691H-471.534M-430.621 310.691L-417.843 305.078M-377.727 305.078H-337.612M-377.727 305.078H-417.843M-377.727 305.078L-366.207 299.679M-337.612 305.078L-326.86 299.679M-337.612 305.078H-297.497M-307.879 310.691L-297.497 305.078M-307.879 310.691H-266.965M-355.119 294.484H-316.511M-355.119 294.484L-344.441 289.48M-355.119 294.484H-393.727M-355.119 294.484L-366.207 299.679M-316.511 294.484L-306.545 289.48M-316.511 294.484L-326.86 299.679M-316.511 294.484H-277.904M-344.441 289.48H-306.545M-344.441 289.48H-382.337M-344.441 289.48L-334.148 284.657M-393.727 294.484L-382.337 289.48M-393.727 294.484L-405.554 299.679M-366.207 299.679H-326.86M-366.207 299.679H-405.554M-306.545 289.48L-296.939 284.657M-306.545 289.48H-268.649M-326.86 299.679H-287.513M-277.904 294.484L-268.649 289.48M-277.904 294.484L-287.513 299.679M-277.904 294.484H-239.296M-382.337 289.48L-371.358 284.657M-334.148 284.657H-296.939M-334.148 284.657H-371.358M-334.148 284.657L-324.223 280.006M-296.939 284.657L-287.675 280.006M-296.939 284.657H-259.729M-268.649 289.48L-259.729 284.657M-268.649 289.48H-230.752M-314.644 275.517H-278.734M-314.644 275.517L-305.393 271.183M-314.644 275.517H-350.553M-314.644 275.517L-324.223 280.006M-278.734 275.517L-270.101 271.183M-278.734 275.517L-287.675 280.006M-278.734 275.517H-242.824M-305.393 271.183H-270.101M-305.393 271.183L-296.455 266.995M-305.393 271.183H-340.686M-350.553 275.517L-340.686 271.183M-350.553 275.517L-360.771 280.006M-324.223 280.006H-287.675M-324.223 280.006H-360.771M-270.101 271.183H-234.807M-270.101 271.183L-261.758 266.995M-287.675 280.006H-251.126M-242.824 275.517L-234.807 271.183M-242.824 275.517L-251.126 280.006M-242.824 275.517H-206.914M-296.455 266.995H-261.758M-296.455 266.995H-331.153M-340.686 271.183L-331.153 266.995M-234.807 271.183H-199.515M-234.807 271.183L-227.061 266.995M-261.758 266.995H-227.061M-479.071 517.292L-455.814 500.945M-479.071 517.292L-503.975 534.797M-479.071 517.292H-408.764M-479.071 517.292H-504.608M-455.814 500.945L-434.047 485.645M-455.814 500.945H-387.833M-455.814 500.945H-504.608M-503.975 534.797H-431.178M-503.975 534.797H-504.608M-503.975 534.797L-504.608 535.241M-408.764 517.292L-387.833 500.945M-408.764 517.292L-431.178 534.797M-408.764 517.292H-338.457M-504.608 517.292V534.797M-504.608 517.292V500.945M-434.047 485.645L-413.63 471.295M-434.047 485.645H-368.242M-434.047 485.645H-499.851M-387.833 500.945L-368.242 485.645M-387.833 500.945H-319.852M-504.608 500.945V488.684M-456.287 457.807H-394.442M-456.287 457.807L-436.413 445.109M-456.287 457.807L-477.393 471.295M-456.287 457.807H-504.608M-394.442 457.807L-376.376 445.109M-394.442 457.807L-413.63 471.295M-394.442 457.807H-332.598M-436.413 445.109H-376.376M-436.413 445.109H-496.45M-436.413 445.109L-417.667 433.131M-477.393 471.295H-413.63M-477.393 471.295L-499.851 485.645M-477.393 471.295H-504.608M-504.608 457.807V471.295M-504.608 457.807V449.887M-376.376 445.109L-359.334 433.131M-376.376 445.109H-316.338M-413.63 471.295H-349.867M-332.598 457.807L-316.338 445.109M-332.598 457.807L-349.867 471.295M-332.598 457.807H-270.753M-496.45 445.109L-476.001 433.131M-496.45 445.109H-504.608M-496.45 445.109L-504.608 449.887M-417.667 433.131H-359.334M-417.667 433.131H-476.001M-417.667 433.131L-399.957 421.814M-359.334 433.131L-343.234 421.814M-359.334 433.131H-301M-316.338 445.109L-301 433.131M-316.338 445.109H-256.3M-383.198 411.105H-327.998M-383.198 411.105L-367.315 400.956M-383.198 411.105H-438.398M-383.198 411.105L-399.957 421.814M-327.998 411.105L-313.559 400.956M-327.998 411.105L-343.234 421.814M-327.998 411.105H-272.798M-367.315 400.956H-313.559M-367.315 400.956H-421.071M-367.315 400.956L-352.243 391.325M-438.398 411.105H-493.597M-438.398 411.105L-421.071 400.956M-438.398 411.105L-456.68 421.814M-399.957 421.814H-343.234M-399.957 421.814H-456.68M-313.559 400.956L-299.857 391.325M-313.559 400.956H-259.804M-343.234 421.814H-286.51M-272.798 411.105L-259.804 400.956M-272.798 411.105L-286.51 421.814M-272.798 411.105H-217.598M-421.071 400.956H-474.827M-421.071 400.956L-404.628 391.325M-352.243 391.325H-299.857M-352.243 391.325H-404.628M-352.243 391.325L-337.919 382.173M-299.857 391.325L-286.836 382.173M-299.857 391.325H-247.471M-259.804 400.956L-247.471 391.325M-259.804 400.956H-206.048M-324.291 373.464H-274.446M-324.291 373.464L-311.307 365.168M-324.291 373.464H-374.135M-324.291 373.464L-337.919 382.173M-274.446 373.464L-262.643 365.168M-274.446 373.464L-286.836 382.173M-274.446 373.464H-224.601M-311.307 365.168H-262.643M-311.307 365.168H-359.971M-311.307 365.168L-298.925 357.256M-374.135 373.464L-359.971 365.168M-374.135 373.464L-389.003 382.173M-337.919 382.173H-286.836M-337.919 382.173H-389.003M-262.643 365.168L-251.386 357.256M-262.643 365.168H-213.979M-286.836 382.173H-235.752M-224.601 373.464L-213.979 365.168M-224.601 373.464L-235.752 382.173M-224.601 373.464H-174.757M-359.971 365.168L-346.463 357.256M-298.925 357.256H-251.386M-298.925 357.256H-346.463M-298.925 357.256L-287.102 349.702M-251.386 357.256L-240.638 349.702M-251.386 357.256H-203.847M-213.979 365.168L-203.847 357.256M-213.979 365.168H-165.315M-275.802 342.481H-230.366M-275.802 342.481L-264.991 335.573M-275.802 342.481H-321.239M-275.802 342.481L-287.102 349.702M-230.366 342.481L-220.537 335.573M-230.366 342.481L-240.638 349.702M-230.366 342.481H-184.93M-264.991 335.573H-220.537M-264.991 335.573H-309.445M-264.991 335.573L-254.638 328.958M-321.239 342.481L-309.445 335.573M-321.239 342.481L-333.566 349.702M-287.102 349.702H-240.638M-287.102 349.702H-333.566M-220.537 335.573L-211.125 328.958M-220.537 335.573H-176.084M-240.638 349.702H-194.174M-184.93 342.481L-176.084 335.573M-184.93 342.481L-194.174 349.702M-184.93 342.481H-139.492M-309.445 335.573L-298.151 328.958M-254.638 328.958H-211.125M-254.638 328.958H-298.151M-254.638 328.958L-244.714 322.616M-211.125 328.958L-202.103 322.616M-211.125 328.958H-167.613M-176.084 335.573L-167.613 328.958M-176.084 335.573H-131.63M-235.194 316.533H-193.449M-235.194 316.533L-226.052 310.691M-235.194 316.533H-276.938M-235.194 316.533L-244.714 322.616M-193.449 316.533L-192.391 315.79L-185.138 310.691M-193.449 316.533L-202.103 322.616M-193.449 316.533H-151.703M-226.052 310.691H-185.138M-226.052 310.691H-266.965M-226.052 310.691L-217.267 305.078M-276.938 316.533L-266.965 310.691M-276.938 316.533L-287.325 322.616M-244.714 322.616H-202.103M-244.714 322.616H-287.325M-185.138 310.691L-177.152 305.078M-185.138 310.691H-144.224M-202.103 322.616H-159.494M-151.703 316.533L-144.224 310.691M-151.703 316.533L-159.494 322.616M-151.703 316.533H-109.959M-266.965 310.691L-257.382 305.078M-217.267 305.078H-177.152M-217.267 305.078H-257.382M-217.267 305.078L-208.819 299.679M-177.152 305.078L-170.415 300.343L-169.472 299.679M-177.152 305.078H-137.036M-144.224 310.691L-137.036 305.078M-144.224 310.691H-103.31M-200.688 294.484H-162.079M-200.688 294.484L-192.856 289.48M-200.688 294.484H-239.296M-200.688 294.484L-208.819 299.679M-162.079 294.484L-154.96 289.48M-162.079 294.484L-164.818 296.409L-169.472 299.679M-162.079 294.484H-123.471M-192.856 289.48H-154.96M-192.856 289.48H-230.752M-192.856 289.48L-185.309 284.657M-239.296 294.484L-231.803 290.095L-230.752 289.48M-239.296 294.484L-248.166 299.679M-208.819 299.679H-169.472M-208.819 299.679H-248.166M-154.96 289.48L-148.099 284.657M-154.96 289.48H-117.064M-169.472 299.679H-130.125M-123.471 294.484L-117.064 289.48M-123.471 294.484L-125.112 295.764L-130.125 299.679M-123.471 294.484H-84.864M-230.752 289.48L-222.519 284.657M-185.309 284.657H-148.099M-185.309 284.657H-222.519M-185.309 284.657L-178.03 280.006M-148.099 284.657L-141.482 280.006M-148.099 284.657H-110.889M-117.064 289.48L-110.889 284.657M-117.064 289.48H-79.168M-171.006 275.517H-135.096M-171.006 275.517L-164.222 271.183M-171.006 275.517H-206.914M-171.006 275.517L-178.03 280.006M-135.096 275.517L-130.45 272.253L-129.688 271.716L-128.928 271.183M-135.096 275.517L-141.482 280.006M-135.096 275.517H-99.186M-164.222 271.183H-128.928M-164.222 271.183L-157.667 266.995M-164.222 271.183H-199.515M-206.914 275.517L-199.515 271.183M-206.914 275.517L-214.578 280.006M-178.03 280.006H-141.482M-178.03 280.006H-214.578M-128.928 271.183H-93.636M-128.928 271.183L-122.971 266.995M-141.482 280.006H-104.934M-99.186 275.517L-93.636 271.183M-99.186 275.517L-104.934 280.006M-99.186 275.517H-63.276M-157.667 266.995H-122.971M-157.667 266.995H-192.364M-199.515 271.183L-192.364 266.995M-93.636 271.183H-58.343M-93.636 271.183L-88.273 266.995M-122.971 266.995H-88.273M-453.597 703.503H-356.797M-453.597 703.503L-423.117 672.898M-453.597 703.503L-487.091 737.135M-453.597 703.503L-504.608 703.504M-356.797 703.503L-330.672 672.898M-356.797 703.503L-385.506 737.135M-356.797 703.503H-259.998M-423.117 672.898H-330.672M-423.117 672.898L-395.261 644.927M-423.117 672.898H-504.608M-487.091 737.135L-504.608 754.724M-487.091 737.135H-504.608M-504.608 703.504V737.135M-504.608 703.504V672.898M-330.672 672.898L-306.795 644.927M-330.672 672.898H-238.226M-385.506 737.135L-417.201 774.264M-385.506 737.135H-283.922M-385.506 737.135H-487.092M-504.608 672.898V663.273M-306.795 644.927L-284.89 619.265M-306.795 644.927H-218.33M-306.795 644.927H-395.262M-238.226 672.898L-218.33 644.927M-238.226 672.898L-259.999 703.503M-238.226 672.898H-145.781M-346.173 595.637H-264.72M-346.173 595.637L-324.437 573.811M-346.173 595.637H-427.626M-346.173 595.637L-369.704 619.265M-264.72 595.637L-246.089 573.811M-264.72 595.637L-284.889 619.265M-264.72 595.637H-183.267M-324.437 573.811H-246.089M-324.437 573.811H-402.785M-324.437 573.811L-304.296 553.587M-427.626 595.637L-402.785 573.811M-427.626 595.637L-454.52 619.265M-427.626 595.637H-504.608M-369.704 619.265H-284.89M-369.704 619.265L-395.262 644.927M-369.704 619.265H-454.52M-246.089 573.811L-228.825 553.587M-246.089 573.811H-167.74M-402.785 573.811H-481.133M-402.785 573.811L-379.767 553.587M-228.825 553.587L-212.786 534.797M-228.825 553.587H-153.355M-228.825 553.587H-304.297M-268.149 517.292H-197.843M-268.149 517.292L-251.87 500.945M-268.149 517.292H-338.457M-268.149 517.292L-285.583 534.797M-197.843 517.292L-183.888 500.945M-197.843 517.292L-212.785 534.797M-197.843 517.292H-127.536M-251.87 500.945H-183.888M-251.87 500.945H-319.852M-251.87 500.945L-236.633 485.645M-338.457 517.292L-319.852 500.945M-338.457 517.292L-358.382 534.797M-183.888 500.945L-170.828 485.645M-183.888 500.945H-115.907M-127.536 517.292L-115.908 500.945M-127.536 517.292L-139.988 534.797M-127.536 517.292H-57.229M-319.852 500.945L-302.438 485.645M-170.828 485.645L-158.578 471.295M-170.828 485.645H-105.024M-170.828 485.645H-236.634M-208.91 457.807H-147.065M-208.91 457.807L-196.262 445.109M-208.91 457.807H-270.753M-208.91 457.807L-222.341 471.295M-147.065 457.807L-136.225 445.109M-147.065 457.807L-158.578 471.295M-147.065 457.807H-85.221M-196.262 445.109H-136.225M-196.262 445.109H-256.3M-196.262 445.109L-184.334 433.131M-270.753 457.807L-256.3 445.109M-270.753 457.807L-286.104 471.295M-222.341 471.295H-158.578M-222.341 471.295L-236.634 485.645M-222.341 471.295H-286.105M-136.225 445.109L-126 433.131M-136.225 445.109H-76.188L-85.221 457.807M-158.578 471.295H-94.816M-85.221 457.807L-94.816 471.295M-85.221 457.807H-23.377M-256.3 445.109L-242.667 433.131M-162.399 411.105H-107.198M-162.399 411.105L-152.292 400.956M-162.399 411.105H-217.598M-162.399 411.105L-173.064 421.814M-107.198 411.105L-98.536 400.956M-107.198 411.105L-116.34 421.814M-107.198 411.105H-51.998L-59.617 421.814M-152.292 400.956H-98.536M-152.292 400.956H-206.048M-152.292 400.956L-142.7 391.325M-217.598 411.105L-206.048 400.956M-217.598 411.105L-229.787 421.814M-98.536 400.956L-90.314 391.325M-98.536 400.956H-44.779H8.97699M-206.048 400.956L-195.085 391.325M-142.7 391.325H-90.315M-142.7 391.325H-195.085M-142.7 391.325L-133.585 382.173M-124.912 373.464H-75.068M-124.912 373.464L-116.65 365.168M-124.912 373.464H-174.757M-124.912 373.464L-133.585 382.173M-75.068 373.464L-67.986 365.168M-75.068 373.464L-82.502 382.173M-75.068 373.464H-25.223M-116.65 365.168H-67.986M-116.65 365.168H-165.315M-116.65 365.168L-108.77 357.256M-174.757 373.464L-165.315 365.168M-174.757 373.464L-184.668 382.173M-133.585 382.173H-82.502M-133.585 382.173H-184.668M-67.986 365.168L-61.232 357.256L-54.783 349.702M-67.986 365.168H-19.321M-82.502 382.173L-90.316 391.325H-37.929L-31.419 382.173M-82.502 382.173H-31.419M-165.315 365.168L-156.31 357.256M-94.056 342.481H-48.619M-94.056 342.481L-87.176 335.573M-94.056 342.481H-139.492M-94.056 342.481L-101.247 349.702M-48.619 342.481L-42.723 335.573M-48.619 342.481L-54.783 349.702M-48.619 342.481H-3.18301M-87.176 335.573H-42.723M-87.176 335.573H-131.63M-87.176 335.573L-80.588 328.958M-139.492 342.481L-131.63 335.573M-139.492 342.481L-147.711 349.702M-101.247 349.702H-54.784M-101.247 349.702L-108.771 357.256M-101.247 349.702H-147.712M-42.723 335.573L-37.075 328.958M-42.723 335.573H1.73099M-54.783 349.702H-8.32001M-3.18301 342.481L1.73099 335.573M-3.18301 342.481L-4.44601 344.256L-8.319 349.702M-3.18301 342.481H42.253M-131.63 335.573L-124.101 328.958M-80.588 328.958H-37.075M-80.588 328.958L-74.273 322.616M-37.075 328.958L-34.341 325.753L-31.662 322.616M-37.075 328.958H6.43701M1.73099 335.573H46.185M-68.214 316.533H-26.469M-68.214 316.533L-62.397 310.691M-68.214 316.533H-109.959M-68.214 316.533L-74.273 322.616M-26.469 316.533L-27.107 317.279L-31.662 322.616M-26.469 316.533L-21.483 310.691M-26.469 316.533H15.276M-62.397 310.691H-21.483M-62.397 310.691H-103.31M-62.397 310.691L-56.807 305.078M-109.959 316.533L-103.31 310.691M-109.959 316.533L-116.883 322.616M-74.273 322.616H-31.662M-74.273 322.616H-116.883M-31.662 322.616H10.948M-21.483 310.691L-16.691 305.078M-21.483 310.691H19.431M15.276 316.533L19.431 310.691M15.276 316.533L10.948 322.616M15.276 316.533H57.021M-103.31 310.691L-96.921 305.078M-16.691 305.078H23.425M-16.691 305.078H-56.806M19.431 310.691L23.425 305.078M19.431 310.691H60.345M-46.256 294.484H-7.64801M-46.256 294.484L-41.272 289.48M-46.256 294.484H-84.864M-46.256 294.484L-51.43 299.679M-7.64801 294.484L-3.37601 289.48M-7.64801 294.484L-9.29102 296.409L-10.4 297.708L-12.082 299.679H27.266M-7.64801 294.484H30.96M-41.272 289.48H-3.37601M-41.272 289.48H-79.168M-41.272 289.48L-36.47 284.657M-84.864 294.484L-79.168 289.48M-84.864 294.484L-90.777 299.679M-51.43 299.679H-12.081L-16.69 305.078M-51.43 299.679L-56.806 305.078M-51.43 299.679H-90.777M-3.37601 289.48L-1.814 287.651L-0.785004 286.445L0.740997 284.657L2.74399 282.311L4.71201 280.006H-31.836M-3.37601 289.48H34.519M30.96 294.484L31.863 293.215L34.521 289.48M30.96 294.484L30.507 295.123L30.05 295.764L28.668 297.708L28.202 298.362L27.266 299.679M30.96 294.484H69.568M-79.168 289.48L-73.679 284.657M-27.367 275.517H8.54303M-27.367 275.517L-24.115 272.253L-23.05 271.183M-27.367 275.517H-63.277M-27.367 275.517L-31.27 279.436L-31.837 280.006M8.54303 275.517L11.33 272.253L11.787 271.716L12.243 271.183M8.54303 275.517L6.64301 277.742L4.711 280.006H41.26L44.454 275.517M-23.05 271.183H12.243M-23.05 271.183L-18.879 266.995M-23.05 271.183H-58.343M12.243 271.183H47.536M12.243 271.183L15.818 266.995M8.54199 275.517H44.452M-18.879 266.995H-53.576M-58.343 271.183L-63.276 275.517M-58.343 271.183L-54.753 268.028L-53.576 266.995M47.536 271.183L44.454 275.517M47.536 271.183H82.83M47.536 271.183L49.78 268.028L50.516 266.995H15.818M15.818 266.995H-18.88M-66.4 703.503H30.4M-66.4 703.503L-53.337 672.898H39.109M-66.4 703.503H-163.199M30.4 703.503L39.109 672.898M30.4 703.503H127.2M-163.199 703.503H-259.999M-163.199 703.503L-145.781 672.898M-163.199 703.503L-182.338 737.135M-66.399 703.503L-80.754 737.135M39.109 672.898L47.068 644.927M39.109 672.898H131.555M30.399 703.503L20.831 737.135M127.2 703.503L131.555 672.898M127.2 703.503L122.415 737.135M127.2 703.503H224M-145.781 672.898H-53.336L-41.398 644.927M-145.781 672.898L-129.864 644.927M-41.398 644.927H47.068M-41.398 644.927H-129.863M-41.398 644.927L-30.445 619.265M47.068 644.927L54.37 619.265M47.068 644.927H135.534M131.555 672.898L135.534 644.927M131.555 672.898H224M-20.36 595.637H61.093M-20.36 595.637L-11.044 573.811M-20.36 595.637H-101.814M-20.36 595.637L-30.445 619.265M61.093 595.637L67.303 573.811M61.093 595.637L54.37 619.265M61.093 595.637H142.547M-11.044 573.811H67.304M-11.044 573.811H-89.392M-11.044 573.811L-2.41299 553.587M-30.445 619.265H54.37M-30.445 619.265H-115.259M54.37 619.265H139.185M142.547 595.637L145.652 573.811M142.547 595.637L139.185 619.265M142.547 595.637H224M67.304 573.811L73.058 553.587M67.304 573.811H145.652M-2.41299 553.587H-77.883M-2.41299 553.587L5.60699 534.797M73.058 553.587L78.406 534.797M73.058 553.587H148.529M145.652 573.811L148.529 553.587M145.652 573.811H224M13.079 517.292H83.386M13.079 517.292L20.056 500.945M13.079 517.292H-57.228M13.079 517.292L5.60699 534.797M83.386 517.292L88.037 500.945M83.386 517.292L78.406 534.797M83.386 517.292H153.693M20.056 500.945H88.037M20.056 500.945H-47.925M5.60699 534.797H78.406M5.60699 534.797H-67.19M88.037 500.945L92.391 485.645M88.037 500.945H156.019M78.406 534.797H151.202M153.693 517.292L156.019 500.945M153.693 517.292L151.202 534.797M153.693 517.292H224M20.055 500.945L26.586 485.645M26.586 485.645H92.391M26.586 485.645H-39.219M26.586 485.645L32.711 471.295M92.391 485.645L96.474 471.295M92.391 485.645H158.195M156.019 500.945L158.195 485.645M156.019 500.945H224M38.468 457.807H100.311M38.468 457.807L43.888 445.109M38.468 457.807H-23.377M38.468 457.807L32.711 471.295M100.311 457.807L103.925 445.109M100.311 457.807L96.474 471.295M100.311 457.807H162.156M43.888 445.109H103.925M43.888 445.109H-16.15M43.888 445.109L49 433.131M-23.377 457.807L-16.151 445.109M-23.377 457.807L-31.053 471.295M32.711 471.295H96.474M32.711 471.295H-31.052M103.925 445.109L107.333 433.131M103.925 445.109H163.963M96.474 471.295H160.237M162.156 457.807L163.963 445.109M162.156 457.807L160.237 471.295M162.156 457.807H224M49 433.131H107.333M49 433.131H-9.33398M49 433.131L53.83 421.814M107.333 433.131L110.554 421.814M107.333 433.131H165.667M163.963 445.109L165.667 433.131M163.963 445.109H224M58.4 411.105H113.601M58.4 411.105L62.731 400.956M58.4 411.105H3.20001M58.4 411.105L53.829 421.814M62.731 400.956H116.487M62.731 400.956H8.97699M62.731 400.956L66.843 391.325M3.20001 411.105H-51.999L-44.78 400.956L-37.928 391.325H14.457M3.20001 411.105L8.97699 400.956M3.20001 411.105L-2.89401 421.814M113.6 411.105L116.487 400.956M113.6 411.105L110.553 421.814M113.6 411.105H168.8M116.487 400.956L119.229 391.325M116.487 400.956H170.244M168.8 411.105L170.244 400.956M168.8 411.105L167.276 421.814M168.8 411.105H224M8.97699 400.956L14.457 391.325M66.843 391.325H119.229M66.843 391.325H14.457M66.843 391.325L70.75 382.173M119.229 391.325L121.833 382.173M119.229 391.325H171.615M170.244 400.956L171.615 391.325M170.244 400.956H224M74.466 373.464H124.311M74.466 373.464L78.006 365.168H126.672M74.466 373.464H24.622M74.466 373.464L70.75 382.173M124.311 373.464L126.672 365.168M124.311 373.464L121.833 382.173M124.311 373.464H174.156M70.75 382.173H121.833M70.75 382.173H19.666M126.672 365.168L128.923 357.256M126.672 365.168H175.336M121.833 382.173H172.916M174.156 373.464L175.336 365.168M174.156 373.464L172.916 382.173M174.156 373.464H224M29.343 365.168H78.007L79.292 362.158L81.384 357.256M81.384 357.256H128.923M81.384 357.256H33.846M81.384 357.256L84.608 349.702M128.923 357.256L131.072 349.702M128.923 357.256H176.461M175.336 365.168L176.461 357.256M175.336 365.168H224M87.69 342.481H133.127M87.69 342.481L90.639 335.573M87.69 342.481H42.253M87.69 342.481L85.392 347.866L84.608 349.702M133.127 342.481L133.874 339.855L135.092 335.573M133.127 342.481L131.072 349.702M133.127 342.481H178.564M90.639 335.573L90.998 334.73L93.462 328.958M90.639 335.573H135.092M90.639 335.573H46.185M42.253 342.481L46.185 335.573M42.253 342.481L41.75 343.366L40.222 346.051L38.144 349.702M84.608 349.702H131.072M84.608 349.702H38.144M135.092 335.573L135.808 333.059L136.043 332.23L136.279 331.406L136.975 328.958M135.092 335.573H179.547M131.072 349.702H177.536M178.564 342.481L179.547 335.573M178.564 342.481L177.536 349.702M178.564 342.481H224M93.462 328.958H136.975M93.462 328.958H49.95M93.462 328.958L96.169 322.616M46.185 335.573L49.95 328.958M136.975 328.958L137.661 326.549L137.886 325.753L138.78 322.616M136.975 328.958H180.488M179.547 335.573L179.666 334.73L180.488 328.958M179.547 335.573H224M98.765 316.533H140.51M98.765 316.533L100.024 313.583L100.336 312.855L100.644 312.13L100.953 311.409L101.258 310.691M98.765 316.533H57.021M98.765 316.533L96.169 322.616M140.51 316.533L141.763 312.13L141.969 311.409L142.172 310.691M140.51 316.533L138.78 322.616M140.51 316.533H182.255M101.258 310.691H142.172M101.258 310.691H60.345M101.258 310.691L102.767 307.157L103.064 306.46L103.655 305.078M57.021 316.533L59.526 312.13L60.345 310.691M57.021 316.533L55.739 318.785L54.437 321.072L53.558 322.616M96.169 322.616H138.78M96.169 322.616H53.559M142.172 310.691L143.178 307.157L143.377 306.46L143.573 305.767L143.77 305.078M142.172 310.691H183.086M138.78 322.616H181.389M182.255 316.533L183.086 310.691M182.255 316.533L181.935 318.785L181.609 321.072L181.389 322.616M182.255 316.533H224M60.345 310.691L63.539 305.078M103.655 305.078H143.77M103.655 305.078H63.539M103.655 305.078L105.959 299.679M143.77 305.078L145.306 299.679M143.77 305.078H183.885M183.086 310.691L183.885 305.078M183.086 310.691H224M108.176 294.484H146.784M108.176 294.484L110.312 289.48M108.176 294.484H69.568M108.176 294.484L107.629 295.764L106.8 297.708L105.959 299.679M146.784 294.484L146.602 295.123L145.493 299.019L145.306 299.679M146.784 294.484L148.208 289.48M146.784 294.484H185.392M110.312 289.48H148.208M110.312 289.48H72.416M110.312 289.48L112.371 284.657M69.568 294.484L72.067 290.095L72.416 289.48M69.568 294.484L69.206 295.123L68.84 295.764L68.474 296.409L66.612 299.679M105.959 299.679H145.306M105.959 299.679H66.612M145.306 299.679H184.653M148.208 289.48L148.729 287.651L148.9 287.046L149.072 286.445L149.58 284.657M148.208 289.48H186.104M185.392 294.484L185.929 290.713L186.016 290.095L186.104 289.48M185.392 294.484L184.653 299.679M185.392 294.484H224M72.416 289.48H34.521M72.416 289.48L75.161 284.657M112.371 284.657H149.58M112.371 284.657H75.161M112.371 284.657L112.873 283.479L113.123 282.894L113.372 282.311L113.62 281.73L113.866 281.153L114.112 280.578L114.355 280.006M149.58 284.657L149.748 284.067L149.916 283.479L150.248 282.311L150.413 281.73L150.578 281.153L150.741 280.578L150.904 280.006M149.58 284.657H186.79M186.104 289.48L186.79 284.657M186.104 289.48H224M116.272 275.517H152.181M116.272 275.517L117.665 272.253L118.121 271.183M116.272 275.517H80.362M116.272 275.517L115.56 277.182L115.322 277.742L115.082 278.304L114.355 280.006M152.181 275.517L152.338 274.967L152.648 273.874L152.957 272.791L153.414 271.183M152.181 275.517L151.548 277.742L151.388 278.304L151.066 279.436L150.904 280.006M152.181 275.517H188.09M118.121 271.183H153.414M118.121 271.183L119.688 267.51L119.909 266.995M118.121 271.183H82.829M80.362 275.517H44.454M80.362 275.517L82.829 271.183M80.362 275.517L77.807 280.006M114.355 280.006H150.904M114.355 280.006H77.807M153.414 271.183L153.566 270.651L153.716 270.122L153.866 269.595L154.015 269.071L154.459 267.51L154.606 266.995M153.414 271.183H188.707M150.904 280.006H187.452M188.09 275.517L188.707 271.183M188.09 275.517L187.452 280.006M188.09 275.517H224M119.909 266.995H154.606M119.909 266.995H85.211M82.829 271.183L84.03 269.071L84.918 267.51L85.211 266.995M154.606 266.995H189.303M188.707 271.183L188.782 270.651L188.858 270.122L188.933 269.595L189.303 266.995M188.707 271.183H224M320.799 703.503H417.599M320.799 703.503L316.445 672.898M320.799 703.503H224M320.799 703.503L325.585 737.135M417.599 703.503L408.891 672.898M417.599 703.503L427.168 737.135M417.599 703.503H514.399M316.445 672.898H408.891M316.445 672.898H224M316.445 672.898L312.466 644.927M224 703.503V672.898M224 703.503V737.135M325.585 737.135H427.168M325.585 737.135L330.867 774.264M325.585 737.135H224M408.891 672.898L400.932 644.927M408.891 672.898H501.336M427.168 737.135L437.733 774.264M427.168 737.135H528.753M514.399 703.503L501.336 672.898M514.399 703.503L528.753 737.135M514.399 703.503H611.199M224 672.898V644.927M312.466 644.927H400.932M312.466 644.927H224M312.466 644.927L308.815 619.265M400.932 644.927L393.63 619.265M400.932 644.927H489.398M501.336 672.898L489.398 644.927M501.336 672.898H593.781M305.453 595.637H386.907M305.453 595.637L302.348 573.811M305.453 595.637H224M305.453 595.637L308.815 619.265M386.907 595.637L380.696 573.811M386.907 595.637L393.63 619.265M386.907 595.637H468.36M302.348 573.811H380.696M302.348 573.811H224M302.348 573.811L299.471 553.587M224 595.637V573.811M224 595.637V619.265M308.815 619.265H393.63M308.815 619.265H224M380.696 573.811L374.942 553.587M380.696 573.811H459.044M393.63 619.265H478.445M468.36 595.637L459.044 573.811M468.36 595.637L478.445 619.265M468.36 595.637H549.814M224 573.811V553.587M299.471 553.587H374.942M299.471 553.587H224M299.471 553.587L296.798 534.797M374.942 553.587L369.595 534.797M374.942 553.587H450.413M459.044 573.811L450.413 553.587M459.044 573.811H537.392M294.307 517.292H364.614M294.307 517.292L291.981 500.945M294.307 517.292H224M294.307 517.292L296.798 534.797M364.614 517.292L359.963 500.945M364.614 517.292L369.595 534.797M364.614 517.292H434.921M291.981 500.945H359.963M291.981 500.945H224M291.981 500.945L289.805 485.645M224 517.292V500.945M224 517.292V534.797M296.798 534.797H369.595M296.798 534.797H224M359.963 500.945L355.609 485.645M359.963 500.945H427.944M369.595 534.797H442.393M434.921 517.292L427.944 500.945M434.921 517.292L442.393 534.797M434.921 517.292H505.228M224 500.945V485.645M289.805 485.645H355.609M289.805 485.645H224M289.805 485.645L287.763 471.295M355.609 485.645L351.526 471.295M355.609 485.645H421.414M427.944 500.945L421.414 485.645M427.944 500.945H495.925M285.844 457.807H347.689M285.844 457.807L284.037 445.109M285.844 457.807H224M285.844 457.807L287.763 471.295M347.689 457.807L344.075 445.109M347.689 457.807L351.526 471.295M347.689 457.807H409.532M284.037 445.109H344.075M284.037 445.109H224M284.037 445.109L282.333 433.131M224 457.807V445.109M224 457.807V471.295M287.763 471.295H351.526M287.763 471.295H224M344.075 445.109L340.667 433.131M344.075 445.109H404.113M351.526 471.295H415.289M409.532 457.807L404.113 445.109M409.532 457.807L415.289 471.295M409.532 457.807H471.377M224 445.109V433.131M282.333 433.131H340.667M282.333 433.131H224M282.333 433.131L280.724 421.814M340.667 433.131L337.446 421.814M340.667 433.131H399M404.113 445.109L399 433.131M404.113 445.109H464.15M279.2 411.105H334.399M279.2 411.105L277.756 400.956M279.2 411.105H224M279.2 411.105L280.724 421.814M334.399 411.105L331.512 400.956M334.399 411.105L337.446 421.814M334.399 411.105H389.6M277.756 400.956H331.512M277.756 400.956H224M277.756 400.956L276.385 391.325M224 411.105V400.956M224 411.105V421.814M280.724 421.814H337.446M280.724 421.814H224M331.512 400.956L328.772 391.325M331.512 400.956H385.268M337.446 421.814H394.17M389.6 411.105L385.268 400.956M389.6 411.105L394.17 421.814M389.6 411.105H444.799M224 400.956V391.325M276.385 391.325H328.772M276.385 391.325H224M276.385 391.325L275.242 383.292L275.084 382.173M328.772 391.325L326.167 382.173M328.772 391.325H381.157M385.268 400.956L381.157 391.325M385.268 400.956H439.023M273.844 373.464H323.689M273.844 373.464L272.664 365.168M273.844 373.464H224M273.844 373.464L275.084 382.173M323.689 373.464L321.328 365.168M323.689 373.464L326.167 382.173M323.689 373.464H373.534M272.664 365.168H321.328M272.664 365.168H224M272.664 365.168L271.539 357.256M224 373.464V365.168M224 373.464V382.173M275.084 382.173H326.167M275.084 382.173H224M321.328 365.168L319.077 357.256M321.328 365.168H369.993M326.167 382.173H377.25M373.534 373.464L369.993 365.168M373.534 373.464L377.25 382.173M373.534 373.464H423.378M224 365.168V357.256M271.539 357.256H319.077M271.539 357.256H224M271.539 357.256L270.464 349.702M319.077 357.256L316.928 349.702M319.077 357.256H366.616M369.993 365.168L369.133 363.156L366.616 357.256M369.993 365.168H418.657M269.436 342.481H314.873M269.436 342.481L268.453 335.573M269.436 342.481H224M269.436 342.481L270.464 349.702M314.873 342.481L313.148 336.42L312.908 335.573M314.873 342.481L316.928 349.702M314.873 342.481H360.31M268.453 335.573L268.334 334.73L267.512 328.958M268.453 335.573H312.908M268.453 335.573H224M224 342.481V335.573M224 342.481V349.702M270.464 349.702H316.928M270.464 349.702H224M312.908 335.573L312.192 333.059L311.957 332.23L311.721 331.406L311.025 328.958M312.908 335.573H357.361M316.928 349.702H363.392M360.31 342.481L357.361 335.573M360.31 342.481L362.608 347.866L363.392 349.702M360.31 342.481H405.747M267.512 328.958H311.025M267.512 328.958H224M267.512 328.958L267.283 327.347L266.832 324.177L266.611 322.616M224 335.573V328.958M311.025 328.958L310.339 326.549L310.114 325.753L309.221 322.616M311.025 328.958H354.538M357.361 335.573L354.538 328.958M357.361 335.573H401.815M265.745 316.533H307.49M265.745 316.533L264.914 310.691M265.745 316.533H224M265.745 316.533L266.065 318.785L266.174 319.543L266.281 320.306L266.5 321.842L266.611 322.616M307.49 316.533L306.237 312.13L305.827 310.691M307.49 316.533L309.221 322.616M307.49 316.533H349.235M264.914 310.691H305.827M264.914 310.691H224M264.914 310.691L264.115 305.078M224 316.533V310.691M224 316.533V322.616M266.611 322.616H309.221M266.611 322.616H224M305.827 310.691L304.822 307.157L304.623 306.46L304.427 305.767L304.23 305.078M305.827 310.691H346.742M309.221 322.616H351.831M349.235 316.533L347.664 312.855L347.356 312.13L347.047 311.409L346.742 310.691M349.235 316.533L351.501 321.842L351.831 322.616M349.235 316.533H390.979M224 310.691V305.078M264.115 305.078H304.23M264.115 305.078H224M264.115 305.078L263.347 299.679M304.23 305.078L302.694 299.679M304.23 305.078H344.345M346.742 310.691L345.532 307.857L345.233 307.157L344.936 306.46L344.345 305.078M346.742 310.691H387.655M262.608 294.484H301.216M262.608 294.484L261.896 289.48M262.608 294.484H224M262.608 294.484L263.347 299.679M301.216 294.484L301.398 295.123L302.507 299.019L302.694 299.679M301.216 294.484L299.792 289.48M301.216 294.484H339.824M261.896 289.48H299.792M261.896 289.48H224M261.896 289.48L261.21 284.657M224 294.484V289.48M224 294.484V299.679M263.347 299.679H302.694M263.347 299.679H224M302.694 299.679H342.041M299.792 289.48L299.271 287.651L299.1 287.046L298.928 286.445L298.42 284.657M299.792 289.48H337.688M339.824 294.484L337.688 289.48M339.824 294.484L340.371 295.764L341.2 297.708L342.041 299.679M339.824 294.484H378.432M224 289.48V284.657M261.21 284.657H298.42M261.21 284.657H224M261.21 284.657L260.548 280.006M298.42 284.657L298.252 284.067L297.752 282.311L297.587 281.73L297.422 281.153L297.259 280.578L297.096 280.006M298.42 284.657H335.63M337.688 289.48L335.63 284.657M337.688 289.48H375.584M259.91 275.517H295.819M259.91 275.517L259.293 271.183M259.91 275.517H224M259.91 275.517L260.548 280.006M295.819 275.517L295.662 274.967L295.351 273.874L295.197 273.331L294.89 272.253L294.738 271.716L294.585 271.183M295.819 275.517L296.452 277.742L296.612 278.304L296.934 279.436L297.096 280.006M295.819 275.517H331.728M259.293 271.183L259.218 270.651L259.142 270.122L259.067 269.595L258.697 266.995M259.293 271.183H294.585M259.293 271.183H224M224 275.517V271.183M224 275.517V280.006M260.548 280.006H297.096M260.548 280.006H224M294.585 271.183H329.879M294.585 271.183L294.284 270.122L294.134 269.595L293.985 269.071L293.541 267.51L293.394 266.995M297.096 280.006H333.645M331.728 275.517L330.335 272.253L329.879 271.183M331.728 275.517L332.918 278.304L333.645 280.006M331.728 275.517H367.638M258.697 266.995H293.394M258.697 266.995H224M224 271.183V266.995M329.879 271.183H365.172M329.879 271.183L328.532 268.028L328.091 266.995M293.394 266.995H328.091M707.998 703.503H804.797M707.998 703.503L686.226 672.898M707.998 703.503H611.199M707.998 703.503L731.922 737.135M804.797 703.503L778.671 672.898M804.797 703.503L833.506 737.135M804.797 703.503H901.598M686.226 672.898H778.671M686.226 672.898H593.781M686.226 672.898L666.329 644.927M611.199 703.503L593.781 672.898M611.199 703.503L630.338 737.135M731.922 737.135H833.506M731.922 737.135L758.333 774.264M731.922 737.135H630.338M778.671 672.898L754.795 644.927M778.671 672.898H871.117M833.506 737.135L865.2 774.264M833.506 737.135H935.091M901.598 703.503L871.117 672.898M901.598 703.503L935.091 737.135M901.598 703.503H952.608M593.781 672.898L577.863 644.927M666.329 644.927H754.795M666.329 644.927H577.863M666.329 644.927L648.075 619.265M754.795 644.927L732.889 619.265M754.795 644.927H843.261M871.117 672.898L843.261 644.927M871.117 672.898H952.608M631.267 595.637H712.72M631.267 595.637L615.74 573.811M631.267 595.637H549.814M631.267 595.637L648.075 619.265M712.72 595.637L694.089 573.811M712.72 595.637L732.889 619.265M712.72 595.637H794.173M615.74 573.811H694.089M615.74 573.811H537.392M615.74 573.811L601.354 553.587M549.814 595.637L537.392 573.811M549.814 595.637L563.259 619.265M648.075 619.265H732.889M648.075 619.265H563.259M694.089 573.811L676.825 553.587M694.089 573.811H772.437M732.889 619.265H817.704M794.173 595.637L772.437 573.811M794.173 595.637L817.704 619.265M794.173 595.637H875.626M537.392 573.811L525.883 553.587M601.354 553.587H676.825M601.354 553.587H525.883M601.354 553.587L587.988 534.797M676.825 553.587L660.785 534.797M676.825 553.587H752.296M772.437 573.811L752.296 553.587M772.437 573.811H850.785M575.536 517.292H645.843M575.536 517.292L563.907 500.945M575.536 517.292H505.228M575.536 517.292L587.988 534.797M645.843 517.292L631.889 500.945M645.843 517.292L660.785 534.797M645.843 517.292H716.149M563.907 500.945H631.889M563.907 500.945H495.925M563.907 500.945L553.023 485.645M505.228 517.292L495.925 500.945M505.228 517.292L515.19 534.797M587.988 534.797H660.785M587.988 534.797H515.19M631.889 500.945L618.828 485.645M631.889 500.945H699.87M660.785 534.797H733.583M716.149 517.292L699.87 500.945M716.149 517.292L733.583 534.797M716.149 517.292H786.457M495.925 500.945L487.219 485.645M553.023 485.645H618.828M553.023 485.645H487.219M553.023 485.645L542.815 471.295M618.828 485.645L606.578 471.295M618.828 485.645H684.633M699.87 500.945L684.633 485.645M699.87 500.945H767.852M533.221 457.807H595.065M533.221 457.807L524.188 445.109M533.221 457.807H471.377M533.221 457.807L542.815 471.295M595.065 457.807L584.225 445.109M595.065 457.807L606.578 471.295M595.065 457.807H656.91M524.188 445.109H584.225M524.188 445.109H464.15M524.188 445.109L515.667 433.131M471.377 457.807L464.15 445.109M471.377 457.807L479.052 471.295M542.815 471.295H606.578M542.815 471.295H479.052M584.225 445.109L574 433.131M584.225 445.109H644.262M606.578 471.295H670.341M656.91 457.807L644.262 445.109M656.91 457.807L670.341 471.295M656.91 457.807H718.753M464.15 445.109L457.334 433.131M515.667 433.131H574M515.667 433.131H457.334M515.667 433.131L507.617 421.814M574 433.131L564.34 421.814M574 433.131H632.334M644.262 445.109L632.334 433.131M644.262 445.109H704.3M499.999 411.105H555.198M499.999 411.105L492.78 400.956M499.999 411.105H444.799M499.999 411.105L507.617 421.814M555.198 411.105L546.536 400.956M555.198 411.105L564.34 421.814M555.198 411.105H610.399M492.78 400.956H546.536M492.78 400.956H439.023M492.78 400.956L485.928 391.325M444.799 411.105L443.326 408.518L439.023 400.956M444.799 411.105L450.894 421.814M507.617 421.814H564.34M507.617 421.814H450.894M546.536 400.956L538.314 391.325M546.536 400.956H600.292M564.34 421.814H621.064M610.399 411.105L600.292 400.956M610.399 411.105L621.064 421.814M610.399 411.105H665.598M439.023 400.956L433.543 391.325M485.928 391.325H538.314M485.928 391.325H433.543M485.928 391.325L479.418 382.173M538.314 391.325L530.502 382.173M538.314 391.325H590.7M600.292 400.956L590.7 391.325M600.292 400.956H654.048M473.223 373.464H523.068M473.223 373.464L467.321 365.168M473.223 373.464H423.378M473.223 373.464L479.418 382.173M523.068 373.464L515.986 365.168M523.068 373.464L530.502 382.173M523.068 373.464H572.912M467.321 365.168H515.986M467.321 365.168H418.657M467.321 365.168L461.693 357.256M423.378 373.464L418.657 365.168M423.378 373.464L428.334 382.173M479.418 382.173H530.502M479.418 382.173H428.334M515.986 365.168L509.232 357.256M515.986 365.168H564.65M530.502 382.173H581.585M572.912 373.464L564.65 365.168M572.912 373.464L581.585 382.173M572.912 373.464H622.757M418.657 365.168L414.154 357.256M461.693 357.256H509.232M461.693 357.256H414.154M461.693 357.256L456.319 349.702M509.232 357.256L502.783 349.702M509.232 357.256H556.77M564.65 365.168L556.77 357.256M564.65 365.168H613.315M451.183 342.481L451.812 343.366L452.446 344.256L456.319 349.702M451.183 342.481H496.619M451.183 342.481L446.269 335.573M451.183 342.481H405.747M456.319 349.702H502.783M456.319 349.702H409.856M496.619 342.481L490.723 335.573M496.619 342.481L502.783 349.702M496.619 342.481H542.056M446.269 335.573H490.723M446.269 335.573H401.815M446.269 335.573L441.563 328.958M405.747 342.481L401.815 335.573M405.747 342.481L407.778 346.051L409.856 349.702M490.723 335.573L485.075 328.958M490.723 335.573H535.176M502.783 349.702H549.247M542.056 342.481L535.176 335.573M542.056 342.481L549.247 349.702M542.056 342.481H587.492M401.815 335.573L398.05 328.958M441.563 328.958H485.075M441.563 328.958H398.05M441.563 328.958L440.417 327.347L437.052 322.616M485.075 328.958L483.018 326.549L482.341 325.753L479.662 322.616M485.075 328.958H528.588M535.176 335.573L528.588 328.958M535.176 335.573H579.63M432.724 316.533H474.47M432.724 316.533L428.569 310.691M432.724 316.533H390.979M432.724 316.533L437.052 322.616M474.47 316.533L471.329 312.855L469.483 310.691M474.47 316.533L479.662 322.616M474.47 316.533H516.214M428.569 310.691H469.483M428.569 310.691H387.655M428.569 310.691L425.067 305.767L424.576 305.078M390.979 316.533L388.474 312.13L387.655 310.691M390.979 316.533L392.261 318.785L394.442 322.616M437.052 322.616H479.662M437.052 322.616H394.442M469.483 310.691L464.691 305.078M469.483 310.691H510.397M479.662 322.616H522.273M516.214 316.533L510.397 310.691M516.214 316.533L522.273 322.616M516.214 316.533H557.959M387.655 310.691L384.461 305.078M424.576 305.078H464.691M424.576 305.078H384.461M424.576 305.078L420.735 299.679M464.691 305.078L460.082 299.679M464.691 305.078H504.806M510.397 310.691L506.877 307.157L506.184 306.46L504.806 305.078M510.397 310.691H551.31M417.04 294.484H455.648M417.04 294.484L416.138 293.215L413.48 289.48M417.04 294.484H378.432M417.04 294.484L417.951 295.764L419.799 298.362L420.735 299.679M455.648 294.484L451.376 289.48M455.648 294.484L457.291 296.409L458.4 297.708L460.082 299.679M455.648 294.484H494.256M413.48 289.48H451.376M413.48 289.48H375.584M413.48 289.48L410.895 285.846L410.049 284.657M378.432 294.484L375.934 290.095L375.584 289.48M378.432 294.484L378.795 295.123L379.161 295.764L379.527 296.409L381.388 299.679M420.735 299.679H460.082M420.735 299.679H381.388M451.376 289.48L449.814 287.651L448.785 286.445L447.259 284.657M451.376 289.48H489.272M460.082 299.679H499.43M494.256 294.484L489.272 289.48M494.256 294.484L497.466 297.708L498.118 298.362L499.43 299.679M494.256 294.484H532.864M375.584 289.48L372.839 284.657M410.049 284.657H447.259M410.049 284.657H372.839M410.049 284.657L406.741 280.006M447.259 284.657L445.256 282.311L444.761 281.73L443.289 280.006M447.259 284.657H484.47M489.272 289.48L484.47 284.657M489.272 289.48H527.168M403.548 275.517H439.458M403.548 275.517L401.608 272.791L400.464 271.183M403.548 275.517H367.638M403.548 275.517L406.741 280.006M439.458 275.517L436.67 272.253L436.213 271.716L435.757 271.183M439.458 275.517L441.357 277.742L443.289 280.006M439.458 275.517H475.367M400.464 271.183H435.757M400.464 271.183L398.962 269.071L398.221 268.028L397.852 267.51L397.485 266.995M400.464 271.183H365.172M367.638 275.517L365.78 272.253L365.172 271.183M367.638 275.517L370.193 280.006M406.741 280.006H443.289M406.741 280.006H370.193M435.757 271.183H471.05M435.757 271.183L432.182 266.995M443.289 280.006H479.837M475.367 275.517L472.115 272.253L471.05 271.183M475.367 275.517L479.27 279.436L479.837 280.006M475.367 275.517H511.276M397.485 266.995H432.182M397.485 266.995H362.788M365.172 271.183L363.969 269.071L363.081 267.51L362.788 266.995M471.05 271.183H506.343M471.05 271.183L466.879 266.995M432.182 266.995H466.879M929.133 573.811H850.785M929.133 573.811L903.238 553.587M929.133 573.811H952.608M929.133 573.811L952.608 592.144M850.785 573.811L827.767 553.587M850.785 573.811L875.626 595.637M903.238 553.587L879.178 534.797M903.238 553.587H827.767M903.238 553.587H952.608M952.608 573.811V553.587M952.608 573.811V592.144M952.608 592.144V595.637M856.764 517.292H927.071M856.764 517.292L835.833 500.945M856.764 517.292H786.457M856.764 517.292L879.178 534.797M927.071 517.292L903.814 500.945M927.071 517.292L951.975 534.797M927.071 517.292H952.608M835.833 500.945H903.814M835.833 500.945H767.852M835.833 500.945L816.242 485.645M786.457 517.292L767.852 500.945M786.457 517.292L806.381 534.797M879.178 534.797H951.975M879.178 534.797H806.381M903.814 500.945L882.047 485.645M903.814 500.945H952.608M951.975 534.797H952.608M951.975 534.797L952.608 535.241M952.608 517.292V500.945M952.608 517.292V534.797M767.852 500.945L750.437 485.645M816.242 485.645H882.047M816.242 485.645H750.437M816.242 485.645L797.867 471.295M882.047 485.645L861.63 471.295M882.047 485.645H947.851M952.608 500.945V488.684M780.598 457.807H842.442M780.598 457.807L764.338 445.109M780.598 457.807H718.753M780.598 457.807L797.867 471.295M842.442 457.807L824.376 445.109M842.442 457.807L861.63 471.295M842.442 457.807H904.286M764.338 445.109H824.376M764.338 445.109H704.3M764.338 445.109L749 433.131M718.753 457.807L704.3 445.109M718.753 457.807L734.104 471.295M797.867 471.295H861.63M797.867 471.295H734.104M824.376 445.109L807.334 433.131M824.376 445.109H884.413M861.63 471.295H925.393M904.286 457.807L884.413 445.109M904.286 457.807L925.393 471.295M904.286 457.807H952.608M704.3 445.109L690.667 433.131M749 433.131H807.334M749 433.131H690.667M749 433.131L734.51 421.814M807.334 433.131L791.234 421.814M807.334 433.131H865.667M884.413 445.109L865.667 433.131M884.413 445.109H944.45M720.798 411.105H775.998M720.798 411.105L707.804 400.956M720.798 411.105H665.598M720.798 411.105L734.51 421.814M775.998 411.105L761.559 400.956M775.998 411.105L791.234 421.814M775.998 411.105H831.198M707.804 400.956H761.559M707.804 400.956H654.048M707.804 400.956L695.471 391.325M665.598 411.105L654.048 400.956M665.598 411.105L677.787 421.814M734.51 421.814H791.234M734.51 421.814H677.787M761.559 400.956L747.857 391.325M761.559 400.956H815.315M791.234 421.814H847.957M831.198 411.105L815.315 400.956M831.198 411.105L847.957 421.814M831.198 411.105H886.398M654.048 400.956L643.085 391.325M695.471 391.325H747.857M695.471 391.325H643.085M695.471 391.325L683.752 382.173M747.857 391.325L734.836 382.173M747.857 391.325H800.243M815.315 400.956L800.243 391.325M815.315 400.956H869.071M672.601 373.464H722.446M672.601 373.464L661.979 365.168M672.601 373.464H622.757M672.601 373.464L683.752 382.173M722.446 373.464L710.643 365.168M722.446 373.464L734.836 382.173M722.446 373.464H772.29M661.979 365.168H710.643M661.979 365.168H613.315M661.979 365.168L651.847 357.256M622.757 373.464L613.315 365.168M622.757 373.464L632.668 382.173M683.752 382.173H734.836M683.752 382.173H632.668M710.643 365.168L699.386 357.256M710.643 365.168H759.307M734.836 382.173H785.919M772.29 373.464L759.307 365.168M772.29 373.464L785.919 382.173M772.29 373.464H822.135M613.315 365.168L604.309 357.256M651.847 357.256H699.386M651.847 357.256H604.309M651.847 357.256L642.174 349.702M699.386 357.256L688.638 349.702M699.386 357.256H746.925M759.307 365.168L746.925 357.256M759.307 365.168H807.971M632.929 342.481H678.366M632.929 342.481L624.084 335.573M632.929 342.481H587.492M632.929 342.481L642.174 349.702M678.366 342.481L668.537 335.573M678.366 342.481L688.638 349.702M678.366 342.481H723.802M624.084 335.573H668.537M624.084 335.573H579.63M624.084 335.573L615.613 328.958M587.492 342.481L579.63 335.573M587.492 342.481L595.711 349.702M642.174 349.702H688.638M642.174 349.702H595.711M668.537 335.573L659.125 328.958M668.537 335.573H712.991M688.638 349.702H735.102M723.802 342.481L712.991 335.573M723.802 342.481L735.102 349.702M723.802 342.481H769.239M579.63 335.573L572.101 328.958M615.613 328.958H659.125M615.613 328.958H572.101M615.613 328.958L607.494 322.616M659.125 328.958L650.104 322.616M659.125 328.958H702.638M712.991 335.573L702.638 328.958M712.991 335.573H757.445M599.703 316.533H641.448M599.703 316.533L592.224 310.691M599.703 316.533H557.959M599.703 316.533L607.494 322.616M641.448 316.533L633.138 310.691M641.448 316.533L650.104 322.616M641.448 316.533H683.194M592.224 310.691H633.138M592.224 310.691H551.31M592.224 310.691L585.036 305.078M557.959 316.533L551.31 310.691M557.959 316.533L564.883 322.616M607.494 322.616H650.104M607.494 322.616H564.883M633.138 310.691L625.152 305.078M633.138 310.691H674.052M650.104 322.616H692.714M683.194 316.533L674.052 310.691M683.194 316.533L692.714 322.616M683.194 316.533H724.938M551.31 310.691L544.921 305.078M585.036 305.078H625.152M585.036 305.078H544.921M585.036 305.078L578.125 299.679M625.152 305.078L618.415 300.343L617.472 299.679M625.152 305.078H665.267M674.052 310.691L665.267 305.078M674.052 310.691H714.965M571.471 294.484H610.079M571.471 294.484L565.064 289.48M571.471 294.484H532.864M571.471 294.484L573.112 295.764L573.937 296.409L578.125 299.679M610.079 294.484L602.96 289.48M610.079 294.484L617.472 299.679M610.079 294.484H648.687M565.064 289.48H602.96M565.064 289.48H527.168M565.064 289.48L558.889 284.657M532.864 294.484L527.168 289.48M532.864 294.484L538.777 299.679M578.125 299.679H617.472M578.125 299.679H538.777M602.96 289.48L596.099 284.657M602.96 289.48H640.856M617.472 299.679H656.819M648.687 294.484L640.856 289.48M648.687 294.484L656.819 299.679M648.687 294.484H687.296M527.168 289.48L521.679 284.657M558.889 284.657H596.099M558.889 284.657H521.679M558.889 284.657L552.934 280.006M596.099 284.657L589.482 280.006M596.099 284.657H633.309M640.856 289.48L633.309 284.657M640.856 289.48H678.752M547.186 275.517H583.096M547.186 275.517L541.636 271.183M547.186 275.517H511.276M547.186 275.517L552.934 280.006M583.096 275.517L578.45 272.253L577.688 271.716L576.928 271.183M583.096 275.517L589.482 280.006M583.096 275.517H619.005M541.636 271.183H576.928M541.636 271.183L536.934 267.51L536.273 266.995M541.636 271.183H506.343M511.276 275.517L506.343 271.183M511.276 275.517L516.385 280.006M552.934 280.006H589.482M552.934 280.006H516.385M576.928 271.183H612.222M576.928 271.183L570.971 266.995M589.482 280.006H626.03M619.005 275.517L612.222 271.183M619.005 275.517L626.03 280.006M619.005 275.517H654.914M536.273 266.995H570.971M536.273 266.995H501.576M506.343 271.183L502.752 268.028L501.576 266.995M612.222 271.183H647.515M612.222 271.183L605.667 266.995M570.971 266.995H605.667M941.597 411.105L922.827 400.956M941.597 411.105H886.398M941.597 411.105L952.608 417.058M941.597 411.105H952.608M922.827 400.956H869.071M922.827 400.956L905.014 391.325M922.827 400.956H952.608M886.398 411.105L869.071 400.956M886.398 411.105L904.68 421.814M952.608 417.058V411.105M952.608 417.058V421.814M952.608 411.105V400.956M869.071 400.956L852.628 391.325M905.014 391.325L888.086 382.173M905.014 391.325H852.628M905.014 391.325H952.608M952.608 400.956V391.325M871.98 373.464H921.825M871.98 373.464L856.636 365.168M871.98 373.464H822.135M871.98 373.464L888.086 382.173M921.825 373.464L905.3 365.168M921.825 373.464L939.17 382.173M921.825 373.464H952.608M856.636 365.168H905.3M856.636 365.168H807.971M856.636 365.168L842.002 357.256M822.135 373.464L807.971 365.168M822.135 373.464L837.003 382.173M888.086 382.173H939.17M888.086 382.173H837.003M905.3 365.168L889.541 357.256M905.3 365.168H952.608M939.17 382.173L952.608 388.919M939.17 382.173H952.608M952.608 373.464H952.977M952.608 373.464V365.168M952.608 373.464V382.173M807.971 365.168L794.463 357.256M842.002 357.256H889.541M842.002 357.256H794.463M842.002 357.256L828.03 349.702M889.541 357.256L874.493 349.702M889.541 357.256H937.079M952.608 365.168V364.532M814.675 342.481H860.112M814.675 342.481L801.899 335.573M814.675 342.481H769.239M814.675 342.481L828.03 349.702M860.112 342.481L846.352 335.573M860.112 342.481L874.493 349.702M860.112 342.481H905.549M801.899 335.573H846.352M801.899 335.573H757.445M801.899 335.573L789.663 328.958M769.239 342.481L757.445 335.573M769.239 342.481L781.566 349.702M828.03 349.702H874.493M828.03 349.702H781.566M846.352 335.573L833.176 328.958M846.352 335.573H890.807M874.493 349.702H920.957M905.549 342.481L890.807 335.573M905.549 342.481L920.957 349.702M905.549 342.481H950.985M757.445 335.573L746.151 328.958M789.663 328.958H833.176M789.663 328.958H746.151M789.663 328.958L777.935 322.616M833.176 328.958L820.545 322.616M833.176 328.958H876.688M890.807 335.573L876.688 328.958M890.807 335.573H935.26M766.683 316.533H808.428M766.683 316.533L755.879 310.691M766.683 316.533H724.938M766.683 316.533L777.935 322.616M808.428 316.533L796.793 310.691M808.428 316.533L820.545 322.616M808.428 316.533H850.173M755.879 310.691H796.793M755.879 310.691H714.965M755.879 310.691L745.497 305.078M724.938 316.533L714.965 310.691M724.938 316.533L735.325 322.616M777.935 322.616H820.545M777.935 322.616H735.325M796.793 310.691L785.612 305.078M796.793 310.691H837.707M820.545 322.616H863.156M850.173 316.533L837.707 310.691M850.173 316.533L863.156 322.616M850.173 316.533H891.918M714.965 310.691L705.382 305.078M745.497 305.078H785.612M745.497 305.078H705.382M745.497 305.078L735.513 299.679M785.612 305.078L774.86 299.679M785.612 305.078H825.727M837.707 310.691L825.727 305.078M837.707 310.691H878.621M725.904 294.484H764.511M725.904 294.484L716.649 289.48M725.904 294.484H687.296M725.904 294.484L735.513 299.679M764.511 294.484L754.545 289.48M764.511 294.484L774.86 299.679M764.511 294.484H803.119M716.649 289.48H754.545M716.649 289.48H678.752M716.649 289.48L707.729 284.657M687.296 294.484L679.803 290.095L678.752 289.48M687.296 294.484L696.166 299.679M735.513 299.679H774.86M735.513 299.679H696.166M754.545 289.48L744.939 284.657M754.545 289.48H792.441M774.86 299.679H814.207M803.119 294.484L792.441 289.48M803.119 294.484L814.207 299.679M803.119 294.484H841.727M678.752 289.48L670.519 284.657M707.729 284.657H744.939M707.729 284.657H670.519M707.729 284.657L699.126 280.006M744.939 284.657L735.675 280.006M744.939 284.657H782.148M792.441 289.48L782.148 284.657M792.441 289.48H830.337M690.824 275.517H726.734M690.824 275.517L682.807 271.183M690.824 275.517H654.914M690.824 275.517L699.126 280.006M726.734 275.517L718.1 271.183M726.734 275.517L735.675 280.006M726.734 275.517H762.644M682.807 271.183H718.1M682.807 271.183L675.061 266.995M682.807 271.183H647.515M654.914 275.517L647.515 271.183M654.914 275.517L662.578 280.006M699.126 280.006H735.675M699.126 280.006H662.578M718.1 271.183H753.393M718.1 271.183L709.758 266.995M735.675 280.006H772.223M762.644 275.517L753.393 271.183M762.644 275.517L772.223 280.006M762.644 275.517H798.553M675.061 266.995H709.758M675.061 266.995H640.364M647.515 271.183L640.364 266.995M753.393 271.183H788.686M753.393 271.183L744.455 266.995M709.758 266.995H744.455M933.662 316.533L919.534 310.691M933.662 316.533H891.918M933.662 316.533L948.376 322.616M933.662 316.533H952.608M919.534 310.691H878.621M919.534 310.691L905.958 305.078M919.534 310.691H952.608M891.918 316.533L878.621 310.691M891.918 316.533L905.766 322.616M948.376 322.616H905.766M948.376 322.616H952.608M948.376 322.616L952.608 324.365M952.608 316.533V310.691M952.608 316.533V322.616M878.621 310.691L865.843 305.078M905.958 305.078H946.073M905.958 305.078H865.843M905.958 305.078L892.901 299.679M952.608 310.691V307.629M880.335 294.484H918.943M880.335 294.484L868.233 289.48M880.335 294.484H841.727M880.335 294.484L892.901 299.679M918.943 294.484L906.129 289.48M918.943 294.484L932.248 299.679M918.943 294.484H952.608M868.233 289.48H906.129M868.233 289.48H830.337M868.233 289.48L856.568 284.657M841.727 294.484L830.337 289.48M841.727 294.484L853.554 299.679M892.901 299.679H932.248M892.901 299.679H853.554M906.129 289.48L893.778 284.657M906.129 289.48H944.024M932.248 299.679L946.073 305.078M932.248 299.679H952.608M952.608 294.484H952.725M952.608 294.484V292.655M952.608 294.484V299.679M830.337 289.48L819.358 284.657M856.568 284.657H893.778M856.568 284.657H819.358M856.568 284.657L845.319 280.006M893.778 284.657L881.867 280.006M893.778 284.657H930.988M944.024 289.48L930.988 284.657M944.024 289.48L952.608 292.655M944.024 289.48H952.608M834.462 275.517H870.372M834.462 275.517L823.979 271.183M834.462 275.517H798.553M834.462 275.517L845.319 280.006M870.372 275.517L859.271 271.183M870.372 275.517L881.867 280.006M870.372 275.517H906.282M823.979 271.183H859.271M823.979 271.183L813.85 266.995M823.979 271.183H788.686M798.553 275.517L788.686 271.183M798.553 275.517L808.771 280.006M845.319 280.006H881.867M845.319 280.006H808.771M859.271 271.183H894.565M859.271 271.183L848.546 266.995M881.867 280.006H918.415M906.282 275.517L894.565 271.183M906.282 275.517L918.415 280.006M906.282 275.517H942.191M813.85 266.995H848.546M813.85 266.995H779.153M788.686 271.183L779.153 266.995M894.565 271.183H929.858M894.565 271.183L883.243 266.995M848.546 266.995H883.243M918.415 280.006L930.988 284.657M918.415 280.006H952.608M942.191 275.517L929.858 271.183M942.191 275.517L952.608 279.178M942.191 275.517H952.608M929.858 271.183L917.94 266.995M929.858 271.183H952.608M883.243 266.995H917.94M883.243 266.995L872.298 262.946M930.988 284.657H952.608M952.608 280.006V279.178M952.608 280.006V284.657M952.608 279.178V275.517M952.608 275.517V271.183M917.94 266.995L906.419 262.946M917.94 266.995H952.608M952.608 271.183V266.995M872.298 262.946H906.419M952.608 266.995H952.637L952.608 266.985M952.608 266.995V266.985M952.608 292.655V289.48M952.608 289.48V284.657M819.358 284.657L808.771 280.006M819.358 284.657H782.148M808.771 280.006H772.223M946.073 305.078L952.608 307.629M946.073 305.078H952.608M952.608 299.679V305.078M952.608 307.629V305.078M865.843 305.078L853.554 299.679M865.843 305.078H825.727M853.554 299.679H814.207M772.223 280.006L782.148 284.657M744.455 266.995H779.153M744.455 266.995L735.814 262.946M779.153 266.995L769.935 262.946M735.814 262.946H769.935M670.519 284.657L662.578 280.006M670.519 284.657H633.309M662.578 280.006H626.03M814.207 299.679L825.727 305.078M705.382 305.078L696.166 299.679M705.382 305.078H665.267M696.166 299.679H656.819M863.156 322.616L876.688 328.958M863.156 322.616H905.766M905.766 322.616L920.201 328.958M876.688 328.958H920.201M920.201 328.958L935.26 335.573M920.201 328.958H952.608M952.608 322.616V324.365M952.608 324.365V328.958M935.26 335.573L950.985 342.481M935.26 335.573H952.608M746.151 328.958L735.325 322.616M746.151 328.958H702.638M952.608 328.958H952.835M952.608 328.958V335.573M735.325 322.616H692.714M920.957 349.702L937.079 357.256M920.957 349.702H952.608M950.985 342.481L952.608 343.194M950.985 342.481H952.608M952.608 335.573V342.481M952.608 343.194L953 343.366M952.608 343.194V342.481M952.608 343.194V349.702M937.079 357.256H952.608M937.079 357.256L952.608 364.532M952.608 349.702V357.256M952.608 357.256V364.532M794.463 357.256L781.566 349.702M794.463 357.256H746.925M781.566 349.702H735.102M952.608 388.919L952.756 388.994M952.608 388.919V382.173M952.608 388.919V391.325M837.003 382.173H785.919M837.003 382.173L852.628 391.325M626.03 280.006L633.309 284.657M605.667 266.995H640.364M605.667 266.995L599.331 262.946M640.364 266.995L639.488 266.481L637.744 265.46L633.452 262.946M599.331 262.946H633.452M521.679 284.657L516.385 280.006M521.679 284.657H484.47M516.385 280.006H479.837M656.819 299.679L665.267 305.078M544.921 305.078L538.777 299.679M544.921 305.078H504.806M538.777 299.679H499.43M692.714 322.616L702.638 328.958M572.101 328.958L564.883 322.616M572.101 328.958H528.588M564.883 322.616H522.273M735.102 349.702L746.925 357.256M604.309 357.256L595.711 349.702M604.309 357.256H556.77M595.711 349.702H549.247M785.919 382.173L800.243 391.325M800.243 391.325H852.628M643.085 391.325L632.668 382.173M643.085 391.325H590.7M632.668 382.173H581.585M847.957 421.814L865.667 433.131M847.957 421.814H904.68M904.68 421.814L924.001 433.131M904.68 421.814H952.608M865.667 433.131H924.001M924.001 433.131L944.45 445.109M924.001 433.131H952.608M952.608 421.814V433.131M944.45 445.109H952.608M944.45 445.109L952.608 449.887M690.667 433.131L677.787 421.814M690.667 433.131H632.334M952.608 433.131V445.109M677.787 421.814H621.064M925.393 471.295L947.851 485.645M925.393 471.295H952.608M952.608 457.807V449.887M952.608 457.807V471.295M952.608 445.109V449.887M947.851 485.645L952.608 488.684M947.851 485.645H952.608M952.608 471.295V485.645M952.608 488.684V485.645M750.437 485.645L734.104 471.295M750.437 485.645H684.633M734.104 471.295H670.341M952.608 534.797V535.241M952.608 535.241V553.587M806.381 534.797H733.583M806.381 534.797L827.767 553.587M479.837 280.006L480.98 281.153L484.47 284.657M466.879 266.995H501.576M466.879 266.995L462.847 262.946M501.576 266.995L499.83 265.46L496.967 262.946M462.847 262.946H496.967M372.839 284.657L372.169 283.479L370.193 280.006M372.839 284.657H335.63M370.193 280.006H333.645M499.43 299.679L504.806 305.078M384.461 305.078L384.071 304.392L383.681 303.708L381.388 299.679M384.461 305.078H344.345M381.388 299.679H342.041M522.273 322.616L528.588 328.958M398.05 328.958L394.442 322.616M398.05 328.958H354.538M394.442 322.616H351.831M549.247 349.702L556.77 357.256M414.154 357.256L409.856 349.702M414.154 357.256H366.616M409.856 349.702H363.392M581.585 382.173L590.7 391.325M433.543 391.325L428.334 382.173M433.543 391.325H381.157M428.334 382.173H377.25M621.064 421.814L632.334 433.131M457.334 433.131L450.894 421.814M457.334 433.131H399M450.894 421.814H394.17M670.341 471.295L684.633 485.645M487.219 485.645L479.052 471.295M487.219 485.645H421.414M479.052 471.295H415.289M733.583 534.797L752.296 553.587M752.296 553.587H827.767M525.883 553.587L515.19 534.797M525.883 553.587H450.413M515.19 534.797H442.393M817.704 619.265L843.261 644.927M817.704 619.265H902.52M875.626 595.637L902.52 619.265M875.626 595.637H952.608M902.52 619.265L931.727 644.927M902.52 619.265H952.608M952.608 595.637V619.265M843.261 644.927H931.727M931.727 644.927H952.608M931.727 644.927L952.608 663.273M952.608 619.265V644.927M952.608 672.898V663.273M952.608 672.898V703.503M577.863 644.927L563.259 619.265M577.863 644.927H489.398M952.608 644.927V663.273M563.259 619.265H478.445M935.091 737.135L952.608 754.724M935.091 737.135H952.608M952.608 703.503V737.135M865.2 774.264H758.333M865.2 774.264L952.608 774.263M952.608 754.724V737.135M952.608 754.724V774.263M758.333 774.264H651.467M952.608 774.263V774.396H-504.608V774.263M651.467 774.264L630.338 737.135M651.467 774.264H544.6M630.338 737.135H528.753M333.645 280.006L333.888 280.578L334.134 281.153L334.38 281.73L334.628 282.311L335.63 284.657M328.091 266.995L327.872 266.481L327.436 265.46L327.004 264.448L326.79 263.945L326.362 262.946M328.091 266.995H362.788M362.788 266.995L360.768 263.444L360.483 262.946M326.362 262.946H360.483M224 284.657V280.006M224 284.657H186.79M224 280.006H187.452M342.041 299.679L344.345 305.078M224 305.078V299.679M224 305.078H183.885M224 299.679H184.653M351.831 322.616L354.538 328.958M224 328.958V322.616M224 328.958H180.488M224 322.616H181.389M363.392 349.702L366.616 357.256M224 357.256V349.702M224 357.256H176.461M224 349.702H177.536M377.25 382.173L381.157 391.325M224 391.325V382.173M224 391.325H171.615M224 382.173H172.916M394.17 421.814L399 433.131M224 433.131V421.814M224 433.131H165.667M224 421.814H167.276M415.289 471.295L421.414 485.645M224 485.645V471.295M224 485.645H158.195M224 471.295H160.237M442.393 534.797L450.413 553.587M224 553.587V534.797M224 553.587H148.529M224 534.797H151.202M478.445 619.265L489.398 644.927M224 644.927V619.265M224 644.927H135.534M224 619.265H139.185M528.753 737.135L544.6 774.264M437.733 774.264H544.6M437.733 774.264H330.867M330.867 774.264H224M224 774.264V737.135M224 774.264H117.133M224 737.135H122.415M187.452 280.006L187.37 280.578L187.289 281.153L187.206 281.73L186.79 284.657M189.303 266.995H224M189.303 266.995L189.521 265.46L189.594 264.953L189.879 262.946M224 266.995V262.946M189.879 262.946H224M75.161 284.657L75.83 283.479L77.807 280.006M75.161 284.657H37.952M77.807 280.006H41.258L37.95 284.657M184.653 299.679L183.885 305.078M63.539 305.078L66.612 299.679M63.539 305.078H23.425M66.612 299.679H27.266M181.389 322.616L181.168 324.177L180.717 327.347L180.488 328.958M49.95 328.958L53.558 322.616M49.95 328.958H6.43701M177.536 349.702L176.461 357.256M38.144 349.702H-8.32001M38.144 349.702L33.845 357.256M172.916 382.173L171.615 391.325M14.457 391.325L19.665 382.173M167.276 421.814H110.554M167.276 421.814L165.667 433.131M110.554 421.814H53.83M53.83 421.814H-2.89401M-2.89401 421.814H-59.618M-2.89401 421.814L-9.33499 433.131M160.237 471.295L158.195 485.645M151.202 534.797L148.529 553.587M73.059 553.587H-2.414M139.185 619.265L135.534 644.927M122.415 737.135H20.832M122.415 737.135L117.133 774.264M20.832 737.135L10.267 774.264M20.832 737.135H-80.753M10.267 774.264H117.133M10.267 774.264H-96.6M-80.753 737.135L-96.6 774.264M-80.753 737.135H-182.338M-96.6 774.264H-203.467H-310.333M-182.338 737.135H-283.922M-182.338 737.135L-203.468 774.264M-31.836 280.006L-32.978 281.153L-36.468 284.657M-31.836 280.006H-68.385M85.211 266.995H50.514L52.683 263.945L53.394 262.946M85.211 266.995L85.504 266.481L86.085 265.46L87.515 262.946M87.515 262.946H53.395M37.952 284.657H0.742004H-36.468M37.952 284.657L37.106 285.846L35.39 288.257L34.957 288.868L34.521 289.48M-36.468 284.657H-73.678M-68.385 280.006H-104.934M-68.385 280.006L-63.276 275.517M-68.385 280.006L-73.679 284.657M27.266 299.679L23.425 305.078M-56.806 305.078H-96.921M-96.921 305.078H-137.036M-90.777 299.679H-130.125M-90.777 299.679L-91.532 300.343L-96.922 305.078M10.948 322.616L6.43701 328.958M10.948 322.616H53.558M6.43701 328.958L1.73199 335.573M-80.587 328.958H-124.101M-124.101 328.958L-116.883 322.616M-124.101 328.958H-167.613M-116.883 322.616H-159.494M-8.32001 349.702L-13.694 357.256M-13.694 357.256H-61.233H-108.771M-13.694 357.256L-15.773 360.18L-19.323 365.168M-13.694 357.256H33.845M33.845 357.256L29.342 365.168M-108.771 357.256H-156.31M-19.323 365.168L-25.224 373.464M-19.323 365.168H29.342M-25.224 373.464L-31.419 382.173M-25.224 373.464H24.621M29.342 365.168L24.621 373.464M-156.31 357.256L-147.711 349.702M-156.31 357.256H-203.847M-31.419 382.173H19.665M24.621 373.464L19.665 382.173M-195.085 391.325L-184.668 382.173M-195.085 391.325H-247.471M-184.668 382.173H-235.752M-116.341 421.814L-126.001 433.131M-116.341 421.814H-59.618M-116.341 421.814H-173.065M-126.001 433.131H-67.668M-126.001 433.131H-184.335M-59.618 421.814L-67.668 433.131M-173.065 421.814L-184.335 433.131M-173.065 421.814H-229.788M-67.668 433.131L-76.189 445.109H-16.151M-67.668 433.131H-9.33499M-9.33499 433.131L-16.151 445.109M-184.335 433.131H-242.668M-94.816 471.295L-105.024 485.645M-94.816 471.295H-31.053M-31.053 471.295L-39.22 485.645M-105.024 485.645L-115.908 500.945M-105.024 485.645H-39.22M-39.22 485.645L-47.926 500.945M-236.634 485.645H-302.438M-115.908 500.945H-47.926M-47.926 500.945L-57.229 517.292M-302.438 485.645L-286.104 471.295M-302.438 485.645H-368.242M-139.988 534.797H-212.786M-139.988 534.797L-153.355 553.587M-139.988 534.797H-67.191M-57.229 517.292L-67.191 534.797M-67.191 534.797L-77.884 553.587L-89.393 573.811M-212.786 534.797H-285.584M-285.584 534.797L-304.297 553.587M-285.584 534.797H-358.382M-153.355 553.587L-167.741 573.811M-153.355 553.587H-77.885M-304.297 553.587H-379.768M-167.741 573.811L-183.268 595.637M-167.741 573.811H-89.393M-183.268 595.637L-200.076 619.265M-183.268 595.637H-101.815M-89.393 573.811L-101.815 595.637M-358.382 534.797H-431.178M-358.382 534.797L-379.767 553.587M-200.076 619.265H-284.89M-200.076 619.265L-218.33 644.927M-200.076 619.265H-115.26M-101.815 595.637L-115.26 619.265M-115.26 619.265L-129.864 644.927M-218.33 644.927H-129.864M-395.262 644.927H-483.728M-259.999 703.503L-283.922 737.135M-454.52 619.265L-483.727 644.927M-454.52 619.265H-504.608M-283.922 737.135L-310.334 774.264H-417.201M-417.201 774.264L-504.608 774.263M-504.608 774.263V754.724M-504.608 754.724V737.135M-104.934 280.006L-110.889 284.657M-88.273 266.995L-87.616 266.481L-83.088 262.946M-88.273 266.995H-53.576M-110.889 284.657H-73.679M-53.576 266.995L-51.83 265.46L-48.968 262.946M-83.088 262.946H-48.968M-222.519 284.657L-214.578 280.006M-222.519 284.657H-259.729M-214.578 280.006H-251.126M-130.125 299.679L-137.036 305.078M-257.382 305.078L-248.166 299.679M-257.382 305.078H-297.497M-248.166 299.679H-287.513M-159.494 322.616L-167.613 328.958M-298.151 328.958L-287.325 322.616M-298.151 328.958H-341.663M-287.325 322.616H-329.935M-194.174 349.702L-203.847 357.256M-194.174 349.702H-147.711M-346.463 357.256L-333.566 349.702M-346.463 357.256H-394.002M-333.566 349.702H-380.03M-235.752 382.173L-247.471 391.325M-404.628 391.325L-389.003 382.173M-404.628 391.325H-457.014M-389.003 382.173H-440.086M-286.51 421.814L-301 433.131M-286.51 421.814H-229.787M-229.787 421.814L-242.667 433.131M-301 433.131H-242.667M-476.001 433.131L-456.68 421.814M-476.001 433.131H-504.608M-456.68 421.814H-504.608M-349.867 471.295L-368.242 485.645M-349.867 471.295H-286.104M-499.851 485.645H-504.608M-499.851 485.645L-504.608 488.684M-504.608 485.645V488.684M-504.608 485.645V471.295M-431.178 534.797L-455.238 553.587M-504.608 534.797V535.241M-504.608 535.241V553.587M-455.238 553.587L-481.133 573.811M-455.238 553.587H-379.767M-455.238 553.587H-504.608M-481.133 573.811H-504.608M-481.133 573.811L-504.608 592.144M-504.608 573.811V592.144M-504.608 573.811V553.587M-504.608 592.144V595.637M-504.608 595.637V619.265M-483.727 644.927H-504.608M-483.727 644.927L-504.608 663.273M-504.608 619.265V644.927M-504.608 644.927V663.273M-251.126 280.006L-259.729 284.657M-227.061 266.995L-226.112 266.481L-219.573 262.946M-227.061 266.995H-192.364M-192.364 266.995L-191.488 266.481L-185.452 262.946M-219.573 262.946H-185.452M-371.358 284.657L-360.771 280.006M-371.358 284.657H-408.568M-360.771 280.006H-397.319M-287.513 299.679L-297.497 305.078M-417.843 305.078L-405.554 299.679M-417.843 305.078H-457.958M-405.554 299.679H-444.901M-329.935 322.616L-341.663 328.958M-472.201 328.958L-457.766 322.616M-472.201 328.958H-504.608M-457.766 322.616H-500.376M-380.03 349.702L-394.002 357.256M-504.608 349.702V343.194M-440.086 382.173L-457.014 391.325M-504.608 382.173V388.919M-504.608 388.919L-504.756 388.994M-504.608 388.919V391.325M-457.014 391.325L-474.827 400.956M-457.014 391.325H-504.608M-474.827 400.956L-493.597 411.105M-474.827 400.956H-504.608M-493.597 411.105H-504.608M-493.597 411.105L-504.608 417.058M-504.608 400.956V411.105M-504.608 400.956V391.325M-504.608 411.105V417.058M-504.608 417.058V421.814M-504.608 421.814V433.131M-504.608 445.109V449.887M-504.608 445.109V433.131M-397.319 280.006L-408.568 284.657M-365.85 266.995H-331.153M-365.85 266.995L-356.056 262.946M-331.153 266.995L-321.935 262.946M-356.056 262.946H-321.935M-504.608 284.657V280.006M-504.608 280.006V279.178M-444.901 299.679L-457.958 305.078M-498.073 305.078H-457.958M-498.073 305.078L-504.608 307.629M-498.073 305.078H-504.608M-504.608 299.679V305.078M-457.958 305.078L-471.534 310.691M-471.534 310.691L-485.662 316.533M-471.534 310.691H-504.608M-485.662 316.533L-500.376 322.616M-485.662 316.533H-504.608M-504.608 310.691V316.533M-504.608 310.691V307.629M-504.608 307.629V305.078M-500.376 322.616L-504.608 324.365M-500.376 322.616H-504.608M-504.608 316.533V322.616M-504.608 324.365V328.958M-504.608 324.365V322.616M-504.608 335.573V342.481M-504.608 335.573V328.958M-504.608 328.958H-504.835M-504.608 342.481V343.194M-504.608 343.194L-505 343.366M-504.608 275.517V279.178M-504.608 275.517V271.183M-469.94 266.995L-458.419 262.946M-469.94 266.995H-504.608M-504.608 271.183V266.995M-458.419 262.946H-492.54M-504.608 266.995H-504.637L-504.608 266.985M-504.608 266.995V266.985M-492.54 262.946L-504.608 266.985M-492.54 262.946H-504.608M-504.608 266.985V262.946M952.608 266.985V262.946" stroke="url(#paint0_linear_2076_254)" stroke-width="1.012" stroke-miterlimit="10" stroke-linecap="round" stroke-linejoin="round"/>
<path d="M479 349C479 208.167 364.833 94 224 94C83.1674 94 -31 208.167 -31 349C-31 489.833 83.1674 604 224 604C364.833 604 479 489.833 479 349Z" fill="url(#paint1_linear_2076_254)"/>
</g>
</g>
</g>
</g>
<defs>
<linearGradient id="paint0_linear_2076_254" x1="224" y1="255.238" x2="224" y2="619.231" gradientUnits="userSpaceOnUse">
<stop stop-color="#CED2DF" stop-opacity="0"/>
<stop offset="1" stop-color="#CED2DF"/>
</linearGradient>
<linearGradient id="paint1_linear_2076_254" x1="224" y1="264" x2="224" y2="557.781" gradientUnits="userSpaceOnUse">
<stop stop-color="#E9EBF1" stop-opacity="0"/>
<stop offset="1" stop-color="#E9EBF1"/>
</linearGradient>
<clipPath id="clip0_2076_254">
<rect width="448" height="448" rx="224" fill="white"/>
</clipPath>
<clipPath id="clip1_2076_254">
<rect width="448" height="448" fill="white"/>
</clipPath>
<clipPath id="clip2_2076_254">
<rect width="448" height="448" fill="white"/>
</clipPath>
</defs>
</svg>
