<?xml version="1.0" encoding="UTF-8"?>
<svg width="280" height="280" viewBox="0 0 280 280" fill="none" xmlns="http://www.w3.org/2000/svg">
<g filter="url(#filter0_dd_2076_264)">
<g clip-path="url(#clip0_2076_264)">
<rect x="96" y="84" width="88" height="88" rx="44" fill="white" fill-opacity="0.01" shape-rendering="crispEdges"/>
<g clip-path="url(#clip1_2076_264)">
<g clip-path="url(#clip2_2076_264)">
<g clip-path="url(#clip3_2076_264)">
<path d="M96 84H184V172H96V84Z" fill="white"/>
</g>
</g>
</g>
<rect x="96.5" y="84.5" width="87" height="87" rx="43.5" stroke="#E9EBF1"/>
<mask id="path-5-inside-1_2076_264" fill="white">
<path d="M146.829 113.741C148.224 112.736 150.153 113.843 149.989 115.555L147.088 145.859C146.917 147.652 144.647 148.322 143.529 146.909L136.351 137.835C136.449 137.791 136.534 137.715 136.588 137.608L145.514 120.127L134.681 136.552C134.646 136.605 134.623 136.661 134.611 136.717L123.103 135.09C121.319 134.838 120.752 132.541 122.213 131.488L146.829 113.741Z"/>
</mask>
<path d="M146.829 113.741C148.224 112.736 150.153 113.843 149.989 115.555L147.088 145.859C146.917 147.652 144.647 148.322 143.529 146.909L136.351 137.835C136.449 137.791 136.534 137.715 136.588 137.608L145.514 120.127L134.681 136.552C134.646 136.605 134.623 136.661 134.611 136.717L123.103 135.09C121.319 134.838 120.752 132.541 122.213 131.488L146.829 113.741Z" fill="#418FDE"/>
<path d="M146.829 113.741L147.414 114.553L147.414 114.553L146.829 113.741ZM149.989 115.555L148.994 115.459L148.994 115.459L149.989 115.555ZM147.088 145.859L148.084 145.954L148.084 145.954L147.088 145.859ZM143.529 146.909L144.313 146.289L144.313 146.288L143.529 146.909ZM136.351 137.835L135.938 136.924L134.774 137.453L135.567 138.455L136.351 137.835ZM136.588 137.608L137.479 138.062L137.479 138.062L136.588 137.608ZM145.514 120.127L146.405 120.582L144.679 119.576L145.514 120.127ZM134.681 136.552L135.516 137.103L135.516 137.103L134.681 136.552ZM134.611 136.717L134.471 137.707L135.379 137.836L135.585 136.941L134.611 136.717ZM123.103 135.09L122.963 136.08L122.963 136.08L123.103 135.09ZM122.213 131.488L121.628 130.676L121.628 130.676L122.213 131.488ZM146.829 113.741L147.414 114.553C148.111 114.05 149.076 114.603 148.994 115.459L149.989 115.555L150.985 115.65C151.231 113.083 148.337 111.422 146.244 112.93L146.829 113.741ZM149.989 115.555L148.994 115.459L146.093 145.763L147.088 145.859L148.084 145.954L150.985 115.65L149.989 115.555ZM147.088 145.859L146.093 145.763C146.007 146.66 144.872 146.995 144.313 146.289L143.529 146.909L142.744 147.529C144.421 149.649 147.826 148.644 148.084 145.954L147.088 145.859ZM143.529 146.909L144.313 146.288L137.136 137.215L136.351 137.835L135.567 138.455L142.744 147.529L143.529 146.909ZM136.351 137.835L136.764 138.746C137.058 138.612 137.317 138.381 137.479 138.062L136.588 137.608L135.698 137.153C135.751 137.049 135.839 136.969 135.938 136.924L136.351 137.835ZM136.588 137.608L137.479 138.062L146.405 120.582L145.514 120.127L144.623 119.672L135.698 137.153L136.588 137.608ZM145.514 120.127L144.679 119.576L133.846 136.002L134.681 136.552L135.516 137.103L146.349 120.677L145.514 120.127ZM134.681 136.552L133.846 136.002C133.742 136.16 133.674 136.328 133.636 136.493L134.611 136.717L135.585 136.941C135.573 136.994 135.551 137.05 135.516 137.103L134.681 136.552ZM134.611 136.717L134.751 135.727L123.243 134.1L123.103 135.09L122.963 136.08L134.471 137.707L134.611 136.717ZM123.103 135.09L123.243 134.1C122.351 133.974 122.068 132.825 122.798 132.299L122.213 131.488L121.628 130.676C119.436 132.257 120.288 135.702 122.963 136.08L123.103 135.09ZM122.213 131.488L122.798 132.299L147.414 114.553L146.829 113.741L146.244 112.93L121.628 130.676L122.213 131.488Z" fill="#418FDE" mask="url(#path-5-inside-1_2076_264)"/>
<circle cx="139.578" cy="129.418" r="14.1382" transform="rotate(30 139.578 129.418)" stroke="#418FDE" stroke-width="2"/>
</g>
</g>
<defs>
<filter id="filter0_dd_2076_264" x="0" y="0" width="280" height="280" filterUnits="userSpaceOnUse" color-interpolation-filters="sRGB">
<feFlood flood-opacity="0" result="BackgroundImageFix"/>
<feColorMatrix in="SourceAlpha" type="matrix" values="0 0 0 0 0 0 0 0 0 0 0 0 0 0 0 0 0 0 127 0" result="hardAlpha"/>
<feOffset dy="12"/>
<feGaussianBlur stdDeviation="48"/>
<feComposite in2="hardAlpha" operator="out"/>
<feColorMatrix type="matrix" values="0 0 0 0 0.0235294 0 0 0 0 0.0431373 0 0 0 0 0.0745098 0 0 0 0.1 0"/>
<feBlend mode="normal" in2="BackgroundImageFix" result="effect1_dropShadow_2076_264"/>
<feColorMatrix in="SourceAlpha" type="matrix" values="0 0 0 0 0 0 0 0 0 0 0 0 0 0 0 0 0 0 127 0" result="hardAlpha"/>
<feMorphology radius="4" operator="dilate" in="SourceAlpha" result="effect2_dropShadow_2076_264"/>
<feOffset/>
<feComposite in2="hardAlpha" operator="out"/>
<feColorMatrix type="matrix" values="0 0 0 0 1 0 0 0 0 1 0 0 0 0 1 0 0 0 1 0"/>
<feBlend mode="normal" in2="effect1_dropShadow_2076_264" result="effect2_dropShadow_2076_264"/>
<feBlend mode="normal" in="SourceGraphic" in2="effect2_dropShadow_2076_264" result="shape"/>
</filter>
<clipPath id="clip0_2076_264">
<rect x="96" y="84" width="88" height="88" rx="44" fill="white"/>
</clipPath>
<clipPath id="clip1_2076_264">
<rect x="96" y="84" width="88" height="88" rx="44" fill="white"/>
</clipPath>
<clipPath id="clip2_2076_264">
<rect width="88" height="88" fill="white" transform="translate(96 84)"/>
</clipPath>
<clipPath id="clip3_2076_264">
<rect width="88" height="88" fill="white" transform="translate(96 84)"/>
</clipPath>
</defs>
</svg>
