<svg width="94" height="97" viewBox="0 0 94 97" fill="none" xmlns="http://www.w3.org/2000/svg">
<mask id="path-1-inside-1_2076_1322" fill="white">
<path d="M29.9882 79.2889C28.5673 80.2574 26.6678 79.0997 26.8768 77.3929L35.8385 4.18745C36.0575 2.39895 38.3444 1.78916 39.4246 3.23133L56.9948 26.6901L37.0496 63.3329L60.7877 29.328L89.966 34.2424C91.7422 34.5416 92.249 36.8525 90.761 37.8672L29.9882 79.2889Z"/>
</mask>
<path d="M29.9882 79.2889C28.5673 80.2574 26.6678 79.0997 26.8768 77.3929L35.8385 4.18745C36.0575 2.39895 38.3444 1.78916 39.4246 3.23133L56.9948 26.6901L37.0496 63.3329L60.7877 29.328L89.966 34.2424C91.7422 34.5416 92.249 36.8525 90.761 37.8672L29.9882 79.2889Z" fill="#418FDE"/>
<path d="M29.9882 79.2889L30.5514 80.1152L30.5514 80.1152L29.9882 79.2889ZM26.8768 77.3929L27.8694 77.5144L27.8694 77.5144L26.8768 77.3929ZM35.8385 4.18745L34.8459 4.06593L34.8459 4.06594L35.8385 4.18745ZM39.4246 3.23133L40.225 2.63185L40.225 2.63184L39.4246 3.23133ZM56.9948 26.6901L57.8732 27.1682L58.18 26.6044L57.7952 26.0906L56.9948 26.6901ZM37.0496 63.3329L36.1713 62.8548L37.8696 63.9053L37.0496 63.3329ZM60.7877 29.328L60.9538 28.3419L60.3299 28.2368L59.9677 28.7556L60.7877 29.328ZM89.966 34.2424L90.1322 33.2563L90.1321 33.2563L89.966 34.2424ZM90.761 37.8672L91.3242 38.6935L91.3244 38.6934L90.761 37.8672ZM29.9882 79.2889L29.425 78.4626C28.7149 78.9466 27.7649 78.3682 27.8694 77.5144L26.8768 77.3929L25.8842 77.2714C25.5708 79.8311 28.4198 81.5681 30.5514 80.1152L29.9882 79.2889ZM26.8768 77.3929L27.8694 77.5144L36.8311 4.30896L35.8385 4.18745L34.8459 4.06594L25.8842 77.2714L26.8768 77.3929ZM35.8385 4.18745L36.8311 4.30897C36.9406 3.41458 38.0842 3.10985 38.6242 3.83082L39.4246 3.23133L40.225 2.63184C38.6046 0.468468 35.1743 1.38332 34.8459 4.06593L35.8385 4.18745ZM39.4246 3.23133L38.6242 3.83081L56.1945 27.2896L56.9948 26.6901L57.7952 26.0906L40.225 2.63185L39.4246 3.23133ZM56.9948 26.6901L56.1165 26.212L36.1713 62.8548L37.0496 63.3329L37.928 63.811L57.8732 27.1682L56.9948 26.6901ZM37.0496 63.3329L37.8696 63.9053L61.6077 29.9004L60.7877 29.328L59.9677 28.7556L36.2297 62.7605L37.0496 63.3329ZM60.7877 29.328L60.6216 30.3141L89.8 35.2285L89.966 34.2424L90.1321 33.2563L60.9538 28.3419L60.7877 29.328ZM89.966 34.2424L89.7999 35.2285C90.6884 35.3781 90.9413 36.5338 90.1976 37.041L90.761 37.8672L91.3244 38.6934C93.5567 37.1711 92.7961 33.705 90.1322 33.2563L89.966 34.2424ZM90.761 37.8672L90.1978 37.0409L29.425 78.4626L29.9882 79.2889L30.5514 80.1152L91.3242 38.6935L90.761 37.8672Z" fill="#418FDE" mask="url(#path-1-inside-1_2076_1322)"/>
<circle cx="49.9482" cy="44.2744" r="30.5984" transform="rotate(-148.489 49.9482 44.2744)" stroke="#418FDE" stroke-width="2"/>
</svg>
