<svg width="48" height="49" viewBox="0 0 48 49" fill="none" xmlns="http://www.w3.org/2000/svg">
<rect y="0.5" width="48" height="48" rx="24" fill="#418FDE"/>
<path d="M18.13 16.8333C18.2 17.8717 18.375 18.8867 18.655 19.855L17.255 21.255C16.7767 19.855 16.4733 18.3733 16.3683 16.8333H18.13ZM29.6333 30.8567C30.625 31.1367 31.64 31.3117 32.6667 31.3817V33.12C31.1267 33.015 29.645 32.7117 28.2333 32.245L29.6333 30.8567ZM19.25 14.5H15.1667C14.525 14.5 14 15.025 14 15.6667C14 26.6217 22.8783 35.5 33.8333 35.5C34.475 35.5 35 34.975 35 34.3333V30.2617C35 29.62 34.475 29.095 33.8333 29.095C32.3867 29.095 30.975 28.8617 29.6683 28.43C29.5517 28.3833 29.4233 28.3717 29.3067 28.3717C29.0033 28.3717 28.7117 28.4883 28.4783 28.71L25.9117 31.2767C22.61 29.585 19.9033 26.89 18.2233 23.5883L20.79 21.0217C21.1167 20.695 21.21 20.24 21.0817 19.8317C20.65 18.525 20.4167 17.125 20.4167 15.6667C20.4167 15.025 19.8917 14.5 19.25 14.5Z" fill="white"/>
</svg>
