<?xml version="1.0" encoding="UTF-8"?>
<svg width="553" height="679" viewBox="0 0 553 679" fill="none" xmlns="http://www.w3.org/2000/svg">
<path d="M501.5 21.5C665.541 21.5 798.5 151.126 798.5 311C798.5 470.874 665.541 600.5 501.5 600.5C337.459 600.5 204.5 470.874 204.5 311C204.5 151.126 337.459 21.5 501.5 21.5Z" stroke="#DDDAE0"/>
<path d="M481.5 31.5C651.616 31.5 789.5 165.827 789.5 331.5C789.5 497.173 651.616 631.5 481.5 631.5C311.384 631.5 173.5 497.173 173.5 331.5C173.5 165.827 311.384 31.5 481.5 31.5Z" stroke="#E9E9E9"/>
<path d="M481.5 0.5C651.616 0.5 789.5 134.827 789.5 300.5C789.5 466.173 651.616 600.5 481.5 600.5C311.384 600.5 173.5 466.173 173.5 300.5C173.5 134.827 311.384 0.5 481.5 0.5Z" stroke="#E9E9E9"/>
<path d="M427.5 9.5C597.616 9.5 735.5 143.827 735.5 309.5C735.5 475.173 597.616 609.5 427.5 609.5C257.384 609.5 119.5 475.173 119.5 309.5C119.5 143.827 257.384 9.5 427.5 9.5Z" stroke="#E9E9E9"/>
<path d="M395.5 78.5C565.616 78.5 703.5 212.827 703.5 378.5C703.5 544.173 565.616 678.5 395.5 678.5C225.384 678.5 87.5 544.173 87.5 378.5C87.5 212.827 225.384 78.5 395.5 78.5Z" stroke="#E9E9E9"/>
<path d="M308.5 31.5C478.616 31.5 616.5 165.827 616.5 331.5C616.5 497.173 478.616 631.5 308.5 631.5C138.384 631.5 0.5 497.173 0.5 331.5C0.5 165.827 138.384 31.5 308.5 31.5Z" stroke="#E9E9E9"/>
</svg>

