<svg width="48" height="48" viewBox="0 0 48 48" fill="none" xmlns="http://www.w3.org/2000/svg">
<rect width="48" height="48" rx="4" fill="#ECEEF9"/>
<path d="M15.833 19.3334C13.8963 19.3334 12.333 20.8967 12.333 22.8334V32.1667C12.333 34.1034 13.8963 35.6667 15.833 35.6667H17.583C18.8663 35.6667 19.9163 34.6167 19.9163 33.3334V21.6667C19.9163 20.3834 18.8663 19.3334 17.583 19.3334H15.833ZM16.9997 29.8334C16.9997 30.3117 16.603 30.7084 16.1247 30.7084C15.6463 30.7084 15.2497 30.3117 15.2497 29.8334V25.1667C15.2497 24.6884 15.6463 24.2917 16.1247 24.2917C16.603 24.2917 16.9997 24.6884 16.9997 25.1667V29.8334Z" fill="#292D32"/>
<path d="M32.167 12.3334H25.167C23.2303 12.3334 21.667 13.8967 21.667 15.8334V32.1667C21.667 34.1034 23.2303 35.6667 25.167 35.6667H25.7503C26.077 35.6667 26.3337 35.41 26.3337 35.0834V31C26.3337 30.3584 26.8587 29.8334 27.5003 29.8334H29.8337C30.4753 29.8334 31.0003 30.3584 31.0003 31V35.0834C31.0003 35.41 31.257 35.6667 31.5837 35.6667H32.167C34.1037 35.6667 35.667 34.1034 35.667 32.1667V15.8334C35.667 13.8967 34.1037 12.3334 32.167 12.3334ZM27.2087 25.1667C27.2087 25.645 26.812 26.0417 26.3337 26.0417C25.8553 26.0417 25.4587 25.645 25.4587 25.1667V19.3334C25.4587 18.855 25.8553 18.4584 26.3337 18.4584C26.812 18.4584 27.2087 18.855 27.2087 19.3334V25.1667ZM31.8753 25.1667C31.8753 25.645 31.4787 26.0417 31.0003 26.0417C30.522 26.0417 30.1253 25.645 30.1253 25.1667V19.3334C30.1253 18.855 30.522 18.4584 31.0003 18.4584C31.4787 18.4584 31.8753 18.855 31.8753 19.3334V25.1667Z" fill="#292D32"/>
</svg>
