<svg width="66" height="78" viewBox="0 0 66 78" fill="none" xmlns="http://www.w3.org/2000/svg">
<mask id="path-1-inside-1_2531_2379" fill="white">
<path d="M3.98721 77.2889C2.56636 78.2574 0.666867 77.0997 0.875819 75.3929L9.83752 2.18745C10.0565 0.398954 12.3435 -0.210842 13.4237 1.23133L30.9939 24.6901L11.0487 61.3329L34.7867 27.328L63.9651 32.2424C65.7413 32.5416 66.248 34.8525 64.76 35.8672L3.98721 77.2889Z"/>
</mask>
<path d="M3.98721 77.2889C2.56636 78.2574 0.666867 77.0997 0.875819 75.3929L9.83752 2.18745C10.0565 0.398954 12.3435 -0.210842 13.4237 1.23133L30.9939 24.6901L11.0487 61.3329L34.7867 27.328L63.9651 32.2424C65.7413 32.5416 66.248 34.8525 64.76 35.8672L3.98721 77.2889Z" fill="#418FDE"/>
<path d="M3.98721 77.2889L4.55041 78.1152L4.55042 78.1152L3.98721 77.2889ZM0.875819 75.3929L1.86841 75.5144L1.86841 75.5144L0.875819 75.3929ZM9.83752 2.18745L8.84492 2.06593L8.84493 2.06594L9.83752 2.18745ZM13.4237 1.23133L14.224 0.631852L14.224 0.63184L13.4237 1.23133ZM30.9939 24.6901L31.8722 25.1682L32.1791 24.6044L31.7943 24.0906L30.9939 24.6901ZM11.0487 61.3329L10.1704 60.8548L11.8686 61.9053L11.0487 61.3329ZM34.7867 27.328L34.9528 26.3419L34.3289 26.2368L33.9667 26.7556L34.7867 27.328ZM63.9651 32.2424L64.1312 31.2563L64.1312 31.2563L63.9651 32.2424ZM64.76 35.8672L65.3232 36.6935L65.3234 36.6934L64.76 35.8672ZM3.98721 77.2889L3.42401 76.4626C2.71393 76.9466 1.76388 76.3682 1.86841 75.5144L0.875819 75.3929L-0.116769 75.2714C-0.430147 77.8311 2.41879 79.5681 4.55041 78.1152L3.98721 77.2889ZM0.875819 75.3929L1.86841 75.5144L10.8301 2.30896L9.83752 2.18745L8.84493 2.06594L-0.11677 75.2714L0.875819 75.3929ZM9.83752 2.18745L10.8301 2.30897C10.9396 1.41458 12.0833 1.10985 12.6233 1.83082L13.4237 1.23133L14.224 0.63184C12.6037 -1.53153 9.17335 -0.616676 8.84492 2.06593L9.83752 2.18745ZM13.4237 1.23133L12.6233 1.83081L30.1935 25.2896L30.9939 24.6901L31.7943 24.0906L14.224 0.631852L13.4237 1.23133ZM30.9939 24.6901L30.1156 24.212L10.1704 60.8548L11.0487 61.3329L11.927 61.811L31.8722 25.1682L30.9939 24.6901ZM11.0487 61.3329L11.8686 61.9053L35.6067 27.9004L34.7867 27.328L33.9667 26.7556L10.2287 60.7605L11.0487 61.3329ZM34.7867 27.328L34.6206 28.3141L63.799 33.2285L63.9651 32.2424L64.1312 31.2563L34.9528 26.3419L34.7867 27.328ZM63.9651 32.2424L63.799 33.2285C64.6874 33.3781 64.9403 34.5338 64.1966 35.041L64.76 35.8672L65.3234 36.6934C67.5557 35.1711 66.7952 31.705 64.1312 31.2563L63.9651 32.2424ZM64.76 35.8672L64.1968 35.0409L3.42401 76.4626L3.98721 77.2889L4.55042 78.1152L65.3232 36.6935L64.76 35.8672Z" fill="#418FDE" mask="url(#path-1-inside-1_2531_2379)"/>
</svg>
